<svg width="18" height="20" fill="none" xmlns="http://www.w3.org/2000/svg"><path d="M10.555 2.575c.13-.244.203-.522.203-.817A1.76 1.76 0 0 0 9 0a1.76 1.76 0 0 0-1.555 2.575C3.342 3.312.219 6.907.219 11.22.219 16.06 4.158 20 8.999 20c4.843 0 8.782-3.94 8.782-8.781 0-4.312-3.123-7.907-7.226-8.644ZM9 1.172a.587.587 0 1 1-.001 1.173.587.587 0 0 1 0-1.173Zm0 17.656c-4.196 0-7.61-3.413-7.61-7.61C1.39 7.024 4.805 3.61 9 3.61s7.61 3.414 7.61 7.61-3.414 7.61-7.61 7.61Z" fill="#fff" fill-opacity=".54"/><path d="m13.582 6.681-.025-.028-.029-.026A6.432 6.432 0 0 0 9 4.766c-1.77 0-3.375.716-4.542 1.874l-.016.013c-.004.005-.007.01-.011.013a6.433 6.433 0 0 0-1.884 4.553c0 .323.262.586.586.586h.664a.586.586 0 1 0 0-1.172H3.75A5.256 5.256 0 0 1 4.88 7.919l.032.033a.584.584 0 0 0 .829 0 .586.586 0 0 0 0-.829l-.032-.032a5.256 5.256 0 0 1 2.705-1.12v.045a.586.586 0 0 0 1.172 0V5.97a5.257 5.257 0 0 1 2.704 1.122l-.03.031a.586.586 0 1 0 .828.829l.032-.032a5.257 5.257 0 0 1 1.128 2.705h-.053a.586.586 0 1 0 0 1.172h.673a.586.586 0 0 0 .585-.587 6.432 6.432 0 0 0-1.87-4.529Z" fill="#fff" fill-opacity=".54"/><path d="M11.657 8.562a.586.586 0 0 0-.829 0l-2.446 2.446c-.271-.13-.574-.189-.88-.167a.586.586 0 1 0 .082 1.169.585.585 0 0 1 .625.618.586.586 0 0 0 1.17.068 1.758 1.758 0 0 0-.169-.859l2.447-2.447a.586.586 0 0 0 0-.828ZM12.36 15.43H5.64a.586.586 0 1 0 0 1.172h6.72a.586.586 0 0 0 0-1.172Z" fill="#fff" fill-opacity=".54"/></svg>