<svg width="20" height="20" fill="none" xmlns="http://www.w3.org/2000/svg"><path fill-rule="evenodd" clip-rule="evenodd" d="M17.888 5.874a16.943 16.943 0 0 0-1.123-1.699c-.517-.674-.823-.913-1.167-.913-.327 0-.593.229-.892.572-.22.253-.481.604-.757 1.015-.395.589-.775 1.23-1.1 1.853a39.955 39.955 0 0 0-.912-1.652c-.752-1.286-1.554-2.5-2.258-3.418C8.524.126 8.089 0 7.773 0c-.316 0-.75.126-1.905 1.632-.704.918-1.506 2.132-2.258 3.418-.903 1.546-3.005 5.4-3.005 7.782C.605 16.785 3.821 20 7.773 20c3.709 0 6.768-2.83 7.132-6.445a3.801 3.801 0 0 0 4.49-3.733c0-1.191-.944-2.985-1.507-3.948ZM7.773 18.828a6.003 6.003 0 0 1-5.996-5.996c0-1.396 1-3.974 2.675-6.896 1.494-2.608 2.827-4.286 3.321-4.7.495.414 1.828 2.091 3.322 4.7 1.675 2.922 2.675 5.5 2.675 6.896a6.003 6.003 0 0 1-5.997 5.996Zm7.825-6.381c-.232 0-.46-.03-.682-.09-.129-1.29-.74-2.896-1.41-4.328.652-1.455 1.619-2.888 2.091-3.436.298.344.826 1.068 1.414 2.107.759 1.342 1.212 2.509 1.212 3.122a2.628 2.628 0 0 1-2.625 2.625Z" fill="#fff" fill-opacity=".54"/><path fill-rule="evenodd" clip-rule="evenodd" d="M9.382 10.045a.586.586 0 0 0-.8.215L5.95 14.818a.586.586 0 1 0 1.015.586l2.632-4.558a.586.586 0 0 0-.215-.8ZM6.309 11.21a.587.587 0 0 0-1.172 0 .587.587 0 0 0 1.172 0ZM9.629 13.945a.587.587 0 0 0 0 1.172.587.587 0 0 0 0-1.172Z" fill="#fff" fill-opacity=".54"/></svg>