<svg aria-hidden="true" style="position:absolute" xmlns="http://www.w3.org/2000/svg"><defs><symbol id="icon-barometer" viewBox="0 0 32 32"><path d="M18.489 4.12c.206-.391.324-.836.324-1.308 0-1.551-1.262-2.813-2.813-2.813s-2.813 1.262-2.813 2.813c0 .472.117.917.324 1.308C6.947 5.298 1.95 11.051 1.95 17.949c0 7.747 6.303 14.05 14.05 14.05s14.05-6.303 14.05-14.05c0-6.898-4.997-12.651-11.561-13.829zM16 1.875c.517 0 .938.421.938.938s-.421.938-.938.938c-.517 0-.938-.421-.938-.938s.421-.938.938-.938zm0 28.25c-6.713 0-12.175-5.462-12.175-12.175S9.287 5.775 16 5.775c6.713 0 12.175 5.462 12.175 12.175S22.713 30.125 16 30.125z"/><path d="m23.332 10.69-.04-.044a.638.638 0 0 0-.047-.042A10.293 10.293 0 0 0 16 7.626a10.29 10.29 0 0 0-7.267 2.998l-.025.022-.019.02a10.292 10.292 0 0 0-3.014 7.284c0 .518.42.938.938.938h1.063a.938.938 0 0 0 0-1.876h-.073a8.415 8.415 0 0 1 1.805-4.342l.052.052a.935.935 0 0 0 1.326 0 .938.938 0 0 0 0-1.326l-.05-.051a8.407 8.407 0 0 1 4.328-1.794v.073a.938.938 0 1 0 1.875 0v-.073a8.405 8.405 0 0 1 4.327 1.795l-.05.05a.938.938 0 0 0 1.326 1.326l.051-.051A8.408 8.408 0 0 1 24.397 17h-.084a.938.938 0 1 0 0 1.875h1.076a.937.937 0 0 0 .936-.939 10.29 10.29 0 0 0-2.993-7.246z"/><path d="M20.251 13.698a.938.938 0 0 0-1.326 0l-3.915 3.915a2.8 2.8 0 0 0-1.407-.268.938.938 0 1 0 .131 1.87.936.936 0 0 1 1.001.989.937.937 0 0 0 1.872.109 2.813 2.813 0 0 0-.271-1.374l3.915-3.915a.938.938 0 0 0 0-1.326zM21.375 24.688h-10.75a.938.938 0 1 0 0 1.875h10.75a.938.938 0 0 0 0-1.875z"/></symbol><symbol id="icon-humidity" viewBox="0 0 32 32"><path d="M28.62 9.399c-.597-1.021-1.234-1.986-1.796-2.718-.828-1.079-1.317-1.461-1.868-1.461-.523 0-.948.366-1.426.916-.352.405-.771.966-1.212 1.624a31.567 31.567 0 0 0-1.759 2.965 62.943 62.943 0 0 0-1.461-2.643c-1.203-2.059-2.486-4.001-3.613-5.47C13.637.203 12.943.002 12.436.002s-1.201.202-3.049 2.611c-1.127 1.469-2.41 3.411-3.612 5.47C4.329 10.557.967 16.722.967 20.534c0 6.324 5.145 11.469 11.469 11.469 5.934 0 10.829-4.529 11.411-10.312a6.082 6.082 0 0 0 7.183-5.973c0-1.906-1.511-4.776-2.411-6.317zM12.437 30.125c-5.29 0-9.594-4.304-9.594-9.594 0-2.233 1.6-6.358 4.279-11.034 2.392-4.173 4.524-6.857 5.315-7.519.791.662 2.923 3.345 5.315 7.519 2.679 4.676 4.279 8.8 4.279 11.034 0 5.29-4.304 9.594-9.594 9.594zm12.519-10.21a4.24 4.24 0 0 1-1.09-.143c-.207-2.066-1.185-4.634-2.256-6.925 1.043-2.328 2.589-4.622 3.345-5.498.477.55 1.322 1.709 2.262 3.37 1.214 2.147 1.939 4.014 1.939 4.995 0 2.316-1.884 4.2-4.2 4.2z"/><path d="M15.011 16.073a.938.938 0 0 0-1.281.343l-4.21 7.293a.938.938 0 0 0 1.624.938l4.21-7.293a.938.938 0 0 0-.343-1.281zM10.094 17.937a.938.938 0 1 0-.938.938.94.94 0 0 0 .938-.938zM15.406 22.312c-.516 0-.938.421-.938.938s.421.938.938.938c.516 0 .938-.421.938-.938s-.421-.938-.938-.938z"/></symbol><symbol id="icon-wind" viewBox="0 0 32 32"><path d="M25.316 2.643a6.712 6.712 0 0 0-4.185 1.472.937.937 0 1 0 1.174 1.462 4.827 4.827 0 0 1 3.011-1.059c2.652 0 4.809 2.157 4.809 4.809s-2.158 4.809-4.809 4.809H7.688a.938.938 0 0 0 0 1.876h17.628c3.686 0 6.684-2.999 6.684-6.684s-2.999-6.684-6.684-6.684z"/><path d="M5.891 12.268h10.015a.938.938 0 0 0 0-1.876H5.891a.938.938 0 0 0 0 1.876zM15.643 17.893H.937a.938.938 0 0 0 0 1.876h14.706c2.127 0 3.857 1.73 3.857 3.857s-1.73 3.857-3.857 3.857a3.872 3.872 0 0 1-2.414-.849.937.937 0 1 0-1.174 1.462 5.75 5.75 0 0 0 3.588 1.262c3.16 0 5.732-2.571 5.732-5.732s-2.571-5.732-5.732-5.732zM.938 12.268h1.265a.938.938 0 0 0 0-1.876H.938a.938.938 0 0 0 0 1.876z"/><path d="M12.25 22.563a.938.938 0 0 0-.938-.938H5.687a.938.938 0 0 0 0 1.876h5.625c.518 0 .938-.42.938-.938z"/></symbol></defs></svg>