<svg aria-hidden="true" style="width:0;height:0;position:absolute;overflow:hidden" xmlns="http://www.w3.org/2000/svg"><defs><symbol id="icon-01d" viewBox="0 0 32 32"><path fill="#f0c419" style="fill:var(--color1,#f0c419)" d="M16 0a.533.533 0 0 0-.533.533v3.2a.533.533 0 0 0 1.066 0v-3.2A.533.533 0 0 0 16 0zM16 27.733a.533.533 0 0 0-.533.533v3.2a.533.533 0 0 0 1.066 0v-3.2a.533.533 0 0 0-.533-.533zM31.467 15.467h-3.2a.533.533 0 0 0 0 1.066h3.2a.533.533 0 0 0 0-1.066zM4.267 16a.533.533 0 0 0-.533-.533h-3.2a.533.533 0 0 0 0 1.066h3.2A.533.533 0 0 0 4.267 16zM24.674 7.859a.53.53 0 0 0 .377-.156l3.059-3.059a.533.533 0 1 0-.754-.754l-3.059 3.059a.532.532 0 0 0 .377.91zM6.949 24.297 3.89 27.356a.532.532 0 0 0 .377.91.532.532 0 0 0 .377-.156l3.059-3.059a.533.533 0 1 0-.754-.754zM25.051 24.297a.533.533 0 1 0-.754.754l3.059 3.059a.532.532 0 1 0 .754-.754l-3.059-3.059zM4.644 3.89a.533.533 0 1 0-.754.754l3.059 3.059a.532.532 0 1 0 .754-.754L4.644 3.89zM26.801 11.415a.534.534 0 0 0 .699.282l1.473-.625a.533.533 0 0 0-.416-.982l-1.473.625a.533.533 0 0 0-.283.699zM5.199 20.585a.533.533 0 0 0-.699-.283l-1.473.625a.533.533 0 1 0 .416.981l1.473-.625a.533.533 0 0 0 .283-.699zM29.057 20.7l-1.483-.6a.533.533 0 0 0-.399.989l1.484.599a.534.534 0 0 0 .399-.989zM2.943 11.3l1.483.599a.534.534 0 0 0 .399-.989l-1.484-.599a.532.532 0 1 0-.399.989zM21.284 27.083a.534.534 0 0 0-.982.416l.625 1.473a.534.534 0 0 0 .982-.417l-.625-1.473zM11.207 5.242a.533.533 0 0 0 .491-.742l-.625-1.473a.533.533 0 0 0-.982.416l.625 1.473a.534.534 0 0 0 .491.325zM11.605 26.879a.533.533 0 0 0-.694.295l-.599 1.484a.533.533 0 0 0 .989.399l.599-1.484a.533.533 0 0 0-.295-.694zM20.595 5.16a.534.534 0 0 0 .495-.334l.599-1.484a.533.533 0 0 0-.989-.399l-.599 1.484a.533.533 0 0 0 .494.733z"/><path fill="#f0c419" style="fill:var(--color1,#f0c419)" d="M26.667 16c0 5.891-4.776 10.667-10.667 10.667S5.333 21.891 5.333 16 10.109 5.333 16 5.333 26.667 10.109 26.667 16z"/><path fill="#ede21b" style="fill:var(--color2,#ede21b)" d="M24 16a8 8 0 1 1-16 0 8 8 0 0 1 16 0z"/></symbol><symbol id="icon-01n" viewBox="0 0 32 32"><path fill="#bdc3c7" style="fill:var(--color3,#bdc3c7)" d="M31.459 19.534c-8.041 4.027-17.823.772-21.85-7.269A16.219 16.219 0 0 1 8.454.721C.812 4.909-2.208 14.425 1.726 22.282c4.027 8.041 13.809 11.295 21.85 7.269A16.239 16.239 0 0 0 32 19.246c-.179.098-.358.197-.541.288z"/></symbol><symbol id="icon-02d" viewBox="0 0 32 32"><path fill="#f0c419" style="fill:var(--color1,#f0c419)" d="M3.265 12.66a.532.532 0 0 0-.532-.532H.532a.532.532 0 1 0 0 1.064h2.201a.532.532 0 0 0 .532-.532zM11.167 1.493a.532.532 0 0 0-.532.532v2.2a.532.532 0 1 0 1.064 0v-2.2a.532.532 0 0 0-.532-.532zM3.475 4.215a.531.531 0 1 0-.752.752l2.104 2.104a.53.53 0 0 0 .752 0 .531.531 0 0 0 0-.752L3.475 4.215zM19.612 4.215a.531.531 0 0 0-.752 0l-2.104 2.104a.531.531 0 1 0 .752.752l2.104-2.104a.531.531 0 0 0 0-.752zM7.931 3.675a.531.531 0 1 0-.98.415l.43 1.013a.531.531 0 1 0 .98-.416l-.43-1.013zM14.939 3.326a.532.532 0 0 0-.692.294l-.412 1.02a.531.531 0 1 0 .986.398l.412-1.02a.532.532 0 0 0-.294-.692zM3.195 15.466l-1.012.43a.531.531 0 1 0 .416.978l1.012-.43a.531.531 0 1 0-.416-.979zM2.127 9.581l1.02.412a.532.532 0 0 0 .398-.985l-1.02-.413a.533.533 0 0 0-.398.987z"/><path fill="#ede21b" style="fill:var(--color2,#ede21b)" d="M6.81 18.546a5.67 5.67 0 0 1 1.11.233 3.714 3.714 0 0 1 .758-3.168 3.724 3.724 0 0 1 4.001-1.183l.006.002a3.716 3.716 0 0 1 3.905-2.323c-.004-.082-.012-.163-.012-.247a5.55 5.55 0 0 1 .868-2.981 7.325 7.325 0 0 0-6.278-3.556 7.335 7.335 0 0 0-7.335 7.335 7.308 7.308 0 0 0 2.977 5.886z"/><path fill="#d0e8f9" style="fill:var(--color4,#d0e8f9)" d="M31.987 15.618h-.043c.019.162.031.325.031.492a.532.532 0 1 1-1.064 0c0-1.76-1.431-3.191-3.191-3.191s-3.191 1.431-3.191 3.191a.532.532 0 1 1-1.064 0 4.257 4.257 0 0 1 3.711-4.215 5.054 5.054 0 0 0-5.04-4.825 5.054 5.054 0 0 0-5.042 4.851 4.27 4.27 0 0 1 1.265.522 4.23 4.23 0 0 1 1.902 2.643.533.533 0 0 1-1.036.244 3.194 3.194 0 0 0-3.836-2.375 3.193 3.193 0 0 0-2.375 3.837.531.531 0 1 1-1.035.243 4.227 4.227 0 0 1 .006-1.954 3.178 3.178 0 0 0-2.921 1.128 3.186 3.186 0 0 0-.625 2.81c.001.006.004.012.004.018A3.172 3.172 0 0 0 9.499 20.7a.533.533 0 0 1-.676.822 4.227 4.227 0 0 1-1.354-2.011 5.025 5.025 0 0 0-5.578 2.266c-.7 1.153-.91 2.51-.59 3.821s1.131 2.419 2.284 3.12a.532.532 0 0 1-.277.986.526.526 0 0 1-.208-.048c.84.498 1.807.802 2.842.847l4.365.002a6.923 6.923 0 0 0 6.27-4.25 6.924 6.924 0 0 0 6.381 4.254c4.985 0 9.04-4.055 9.04-9.04v-5.318l-.013-.532z"/><path fill="#abcadd" style="fill:var(--color5,#abcadd)" d="M28.241 11.93c-.123-3.265-2.81-5.885-6.104-5.885-3.266 0-5.935 2.576-6.099 5.802a4.244 4.244 0 0 0-3.672 2.266 4.224 4.224 0 0 0-4.121 1.458 4.227 4.227 0 0 0-.963 2.85 6.088 6.088 0 0 0-6.298 2.842c-.849 1.396-1.102 3.039-.715 4.625s1.369 2.928 2.765 3.777a.532.532 0 1 0 .553-.908c-1.153-.701-1.964-1.809-2.284-3.12s-.11-2.668.59-3.821a5.027 5.027 0 0 1 5.578-2.266 4.227 4.227 0 0 0 1.354 2.011.533.533 0 0 0 .676-.822 3.172 3.172 0 0 1-1.056-1.663c-.001-.006-.004-.012-.004-.018a3.186 3.186 0 0 1 .625-2.81 3.178 3.178 0 0 1 2.921-1.128 4.214 4.214 0 0 0-.006 1.954.532.532 0 0 0 1.035-.243 3.195 3.195 0 0 1 2.375-3.837 3.194 3.194 0 0 1 3.836 2.375.533.533 0 0 0 1.036-.244 4.23 4.23 0 0 0-1.902-2.643 4.27 4.27 0 0 0-1.265-.522 5.054 5.054 0 0 1 5.042-4.851 5.053 5.053 0 0 1 5.04 4.825 4.258 4.258 0 0 0-3.711 4.215.532.532 0 1 0 1.064 0c0-1.76 1.431-3.191 3.191-3.191s3.215 1.431 3.215 3.191v1.595a.532.532 0 1 0 1.064 0v-1.595c-.001-2.169-1.658-3.961-3.759-4.219z"/><path fill="#abcadd" style="fill:var(--color5,#abcadd)" d="M22.96 30.507a7.427 7.427 0 0 1-6.381-3.61 7.428 7.428 0 0 1-6.381 3.61.532.532 0 1 1 0-1.064 6.373 6.373 0 0 0 5.891-3.928l.49-1.173.49 1.173a6.373 6.373 0 0 0 5.891 3.928.532.532 0 1 1 0 1.064zM29.286 22.996a4.26 4.26 0 0 0-4.224-3.766 4.259 4.259 0 0 0-4.254 4.254.532.532 0 1 0 1.064 0 3.194 3.194 0 0 1 3.191-3.191 3.193 3.193 0 0 1 3.151 2.713 3.194 3.194 0 0 0-2.619 3.136.532.532 0 1 0 1.064 0c0-1.173.954-2.127 2.127-2.127s2.127.954 2.127 2.127a.532.532 0 1 0 1.064 0 3.193 3.193 0 0 0-2.689-3.147z"/></symbol><symbol id="icon-02n" viewBox="0 0 32 32"><path fill="#fbd490" style="fill:var(--color6,#fbd490)" d="M6.029 16.76c.599 0 1.176.097 1.718.271a3.724 3.724 0 0 1 .76-3.177 3.734 3.734 0 0 1 4.012-1.186l.006.002a3.725 3.725 0 0 1 3.916-2.329c-.004-.083-.012-.164-.012-.247 0-1.29.44-2.473 1.172-3.42a9.847 9.847 0 0 0-6.507-3.206 8.531 8.531 0 0 1-8.531 8.492c-.688 0-1.354-.09-1.996-.244a9.881 9.881 0 0 0-.138 1.578 9.81 9.81 0 0 0 1.518 5.241 5.574 5.574 0 0 1 4.081-1.774z"/><path fill="#d0e8f9" style="fill:var(--color4,#d0e8f9)" d="M31.987 13.6h-.043c.019.162.031.326.031.493a.532.532 0 1 1-1.066 0c0-1.765-1.435-3.2-3.2-3.2s-3.2 1.435-3.2 3.2a.532.532 0 1 1-1.066 0 4.27 4.27 0 0 1 3.721-4.228c-.121-2.687-2.338-4.839-5.055-4.839a5.067 5.067 0 0 0-5.056 4.865 4.241 4.241 0 0 1 3.175 3.174.534.534 0 0 1-1.039.245 3.203 3.203 0 0 0-3.847-2.382 3.203 3.203 0 0 0-2.382 3.848.534.534 0 0 1-1.038.244 4.235 4.235 0 0 1 .006-1.959 3.195 3.195 0 0 0-3.556 3.951c.001.006.004.012.004.018a3.179 3.179 0 0 0 1.059 1.668.534.534 0 0 1-.678.823 4.23 4.23 0 0 1-1.358-2.016 5.04 5.04 0 0 0-5.594 2.273c-.702 1.156-.913 2.517-.592 3.832s1.134 2.426 2.291 3.129a.533.533 0 0 1-.277.989.52.52 0 0 1-.209-.049 6.102 6.102 0 0 0 2.85.85l4.378.002a6.943 6.943 0 0 0 6.288-4.262 6.944 6.944 0 0 0 6.4 4.266c4.999 0 9.066-4.067 9.066-9.066v-5.333l-.013-.534z"/><path fill="#abcadd" style="fill:var(--color5,#abcadd)" d="M28.231 9.902C28.108 6.628 25.413 4 22.11 4c-3.276 0-5.952 2.583-6.117 5.818a4.254 4.254 0 0 0-3.683 2.272 4.238 4.238 0 0 0-4.133 1.462 4.236 4.236 0 0 0-.965 2.858 6.106 6.106 0 0 0-6.316 2.85c-.851 1.4-1.106 3.047-.717 4.639s1.373 2.936 2.773 3.788a.532.532 0 1 0 .554-.911c-1.157-.703-1.97-1.814-2.291-3.129s-.11-2.676.592-3.832a5.042 5.042 0 0 1 5.594-2.273 4.226 4.226 0 0 0 1.358 2.016.531.531 0 0 0 .751-.072.534.534 0 0 0-.073-.751 3.18 3.18 0 0 1-1.059-1.668c-.001-.006-.004-.012-.004-.018a3.197 3.197 0 0 1 .627-2.819 3.187 3.187 0 0 1 2.929-1.132 4.222 4.222 0 0 0-.006 1.959.533.533 0 0 0 1.038-.244 3.204 3.204 0 0 1 2.382-3.848 3.203 3.203 0 0 1 3.847 2.382.537.537 0 0 0 .642.397.535.535 0 0 0 .397-.642 4.244 4.244 0 0 0-3.175-3.174 5.069 5.069 0 0 1 5.056-4.865 5.068 5.068 0 0 1 5.055 4.839 4.27 4.27 0 0 0-3.721 4.228.532.532 0 1 0 1.066 0c0-1.765 1.435-3.2 3.2-3.2s3.224 1.435 3.224 3.2v1.6a.533.533 0 0 0 1.066 0v-1.6c-.001-2.175-1.663-3.973-3.77-4.231z"/><path fill="#abcadd" style="fill:var(--color5,#abcadd)" d="M22.934 28.533a7.45 7.45 0 0 1-6.4-3.621 7.45 7.45 0 0 1-6.4 3.621.533.533 0 1 1 0-1.066 6.392 6.392 0 0 0 5.908-3.939l.492-1.176.492 1.176a6.392 6.392 0 0 0 5.908 3.939.533.533 0 1 1 0 1.066zM29.279 20.999a4.271 4.271 0 0 0-4.236-3.777 4.271 4.271 0 0 0-4.266 4.266.533.533 0 0 0 1.066 0c0-1.765 1.435-3.2 3.2-3.2a3.2 3.2 0 0 1 3.16 2.721 3.202 3.202 0 0 0-2.627 3.145.533.533 0 0 0 1.066 0c0-1.176.957-2.133 2.133-2.133s2.133.957 2.133 2.133a.533.533 0 0 0 1.066 0 3.203 3.203 0 0 0-2.697-3.156z"/></symbol><symbol id="icon-03d" viewBox="0 0 32 32"><path fill="#d0e8f9" style="fill:var(--color4,#d0e8f9)" d="M31.987 15.618h-.043c.019.162.031.325.031.492a.532.532 0 1 1-1.064 0c0-1.76-1.431-3.191-3.191-3.191s-3.191 1.431-3.191 3.191a.532.532 0 1 1-1.064 0 4.257 4.257 0 0 1 3.711-4.215 5.054 5.054 0 0 0-5.04-4.825 5.054 5.054 0 0 0-5.042 4.851 4.27 4.27 0 0 1 1.265.522 4.23 4.23 0 0 1 1.902 2.643.533.533 0 0 1-1.036.244 3.194 3.194 0 0 0-3.836-2.375 3.193 3.193 0 0 0-2.375 3.837.531.531 0 1 1-1.035.243 4.227 4.227 0 0 1 .006-1.954 3.178 3.178 0 0 0-2.921 1.128 3.186 3.186 0 0 0-.625 2.81c.001.006.004.012.004.018A3.172 3.172 0 0 0 9.499 20.7a.533.533 0 0 1-.676.822 4.227 4.227 0 0 1-1.354-2.011 5.025 5.025 0 0 0-5.578 2.266c-.7 1.153-.91 2.51-.59 3.821s1.131 2.419 2.284 3.12a.532.532 0 0 1-.277.986.526.526 0 0 1-.208-.048c.84.498 1.807.802 2.842.847l4.365.002a6.923 6.923 0 0 0 6.27-4.25 6.924 6.924 0 0 0 6.381 4.254c4.985 0 9.04-4.055 9.04-9.04v-5.318l-.013-.532z"/><path fill="#abcadd" style="fill:var(--color5,#abcadd)" d="M28.241 11.93c-.123-3.265-2.81-5.885-6.104-5.885-3.266 0-5.935 2.576-6.099 5.802a4.244 4.244 0 0 0-3.672 2.266 4.224 4.224 0 0 0-4.121 1.458 4.227 4.227 0 0 0-.963 2.85 6.088 6.088 0 0 0-6.298 2.842c-.849 1.396-1.102 3.039-.715 4.625s1.369 2.928 2.765 3.777a.532.532 0 1 0 .553-.908c-1.153-.701-1.964-1.809-2.284-3.12s-.11-2.668.59-3.821a5.027 5.027 0 0 1 5.578-2.266 4.227 4.227 0 0 0 1.354 2.011.533.533 0 0 0 .676-.822 3.172 3.172 0 0 1-1.056-1.663c-.001-.006-.004-.012-.004-.018a3.186 3.186 0 0 1 .625-2.81 3.178 3.178 0 0 1 2.921-1.128 4.214 4.214 0 0 0-.006 1.954.532.532 0 0 0 1.035-.243 3.195 3.195 0 0 1 2.375-3.837 3.194 3.194 0 0 1 3.836 2.375.533.533 0 0 0 1.036-.244 4.23 4.23 0 0 0-1.902-2.643 4.27 4.27 0 0 0-1.265-.522 5.054 5.054 0 0 1 5.042-4.851 5.053 5.053 0 0 1 5.04 4.825 4.258 4.258 0 0 0-3.711 4.215.532.532 0 1 0 1.064 0c0-1.76 1.431-3.191 3.191-3.191s3.215 1.431 3.215 3.191v1.595a.532.532 0 1 0 1.064 0v-1.595c-.001-2.169-1.658-3.961-3.759-4.219z"/><path fill="#abcadd" style="fill:var(--color5,#abcadd)" d="M22.96 30.507a7.427 7.427 0 0 1-6.381-3.61 7.428 7.428 0 0 1-6.381 3.61.532.532 0 1 1 0-1.064 6.373 6.373 0 0 0 5.891-3.928l.49-1.173.49 1.173a6.373 6.373 0 0 0 5.891 3.928.532.532 0 1 1 0 1.064zM29.286 22.996a4.26 4.26 0 0 0-4.224-3.766 4.259 4.259 0 0 0-4.254 4.254.532.532 0 1 0 1.064 0 3.194 3.194 0 0 1 3.191-3.191 3.193 3.193 0 0 1 3.151 2.713 3.194 3.194 0 0 0-2.619 3.136.532.532 0 1 0 1.064 0c0-1.173.954-2.127 2.127-2.127s2.127.954 2.127 2.127a.532.532 0 1 0 1.064 0 3.193 3.193 0 0 0-2.689-3.147z"/></symbol><symbol id="icon-03n" viewBox="0 0 32 32"><path fill="#d0e8f9" style="fill:var(--color4,#d0e8f9)" d="M31.987 15.618h-.043c.019.162.031.325.031.492a.532.532 0 1 1-1.064 0c0-1.76-1.431-3.191-3.191-3.191s-3.191 1.431-3.191 3.191a.532.532 0 1 1-1.064 0 4.257 4.257 0 0 1 3.711-4.215 5.054 5.054 0 0 0-5.04-4.825 5.054 5.054 0 0 0-5.042 4.851 4.27 4.27 0 0 1 1.265.522 4.23 4.23 0 0 1 1.902 2.643.533.533 0 0 1-1.036.244 3.194 3.194 0 0 0-3.836-2.375 3.193 3.193 0 0 0-2.375 3.837.531.531 0 1 1-1.035.243 4.227 4.227 0 0 1 .006-1.954 3.178 3.178 0 0 0-2.921 1.128 3.186 3.186 0 0 0-.625 2.81c.001.006.004.012.004.018A3.172 3.172 0 0 0 9.499 20.7a.533.533 0 0 1-.676.822 4.227 4.227 0 0 1-1.354-2.011 5.025 5.025 0 0 0-5.578 2.266c-.7 1.153-.91 2.51-.59 3.821s1.131 2.419 2.284 3.12a.532.532 0 0 1-.277.986.526.526 0 0 1-.208-.048c.84.498 1.807.802 2.842.847l4.365.002a6.923 6.923 0 0 0 6.27-4.25 6.924 6.924 0 0 0 6.381 4.254c4.985 0 9.04-4.055 9.04-9.04v-5.318l-.013-.532z"/><path fill="#abcadd" style="fill:var(--color5,#abcadd)" d="M28.241 11.93c-.123-3.265-2.81-5.885-6.104-5.885-3.266 0-5.935 2.576-6.099 5.802a4.244 4.244 0 0 0-3.672 2.266 4.224 4.224 0 0 0-4.121 1.458 4.227 4.227 0 0 0-.963 2.85 6.088 6.088 0 0 0-6.298 2.842c-.849 1.396-1.102 3.039-.715 4.625s1.369 2.928 2.765 3.777a.532.532 0 1 0 .553-.908c-1.153-.701-1.964-1.809-2.284-3.12s-.11-2.668.59-3.821a5.027 5.027 0 0 1 5.578-2.266 4.227 4.227 0 0 0 1.354 2.011.533.533 0 0 0 .676-.822 3.172 3.172 0 0 1-1.056-1.663c-.001-.006-.004-.012-.004-.018a3.186 3.186 0 0 1 .625-2.81 3.178 3.178 0 0 1 2.921-1.128 4.214 4.214 0 0 0-.006 1.954.532.532 0 0 0 1.035-.243 3.195 3.195 0 0 1 2.375-3.837 3.194 3.194 0 0 1 3.836 2.375.533.533 0 0 0 1.036-.244 4.23 4.23 0 0 0-1.902-2.643 4.27 4.27 0 0 0-1.265-.522 5.054 5.054 0 0 1 5.042-4.851 5.053 5.053 0 0 1 5.04 4.825 4.258 4.258 0 0 0-3.711 4.215.532.532 0 1 0 1.064 0c0-1.76 1.431-3.191 3.191-3.191s3.215 1.431 3.215 3.191v1.595a.532.532 0 1 0 1.064 0v-1.595c-.001-2.169-1.658-3.961-3.759-4.219z"/><path fill="#abcadd" style="fill:var(--color5,#abcadd)" d="M22.96 30.507a7.427 7.427 0 0 1-6.381-3.61 7.428 7.428 0 0 1-6.381 3.61.532.532 0 1 1 0-1.064 6.373 6.373 0 0 0 5.891-3.928l.49-1.173.49 1.173a6.373 6.373 0 0 0 5.891 3.928.532.532 0 1 1 0 1.064zM29.286 22.996a4.26 4.26 0 0 0-4.224-3.766 4.259 4.259 0 0 0-4.254 4.254.532.532 0 1 0 1.064 0 3.194 3.194 0 0 1 3.191-3.191 3.193 3.193 0 0 1 3.151 2.713 3.194 3.194 0 0 0-2.619 3.136.532.532 0 1 0 1.064 0c0-1.173.954-2.127 2.127-2.127s2.127.954 2.127 2.127a.532.532 0 1 0 1.064 0 3.193 3.193 0 0 0-2.689-3.147z"/></symbol><symbol id="icon-04d" viewBox="0 0 32 32"><path fill="#d0e8f9" style="fill:var(--color4,#d0e8f9)" d="M31.987 15.618h-.043c.019.162.031.325.031.492a.532.532 0 1 1-1.064 0c0-1.76-1.431-3.191-3.191-3.191s-3.191 1.431-3.191 3.191a.532.532 0 1 1-1.064 0 4.257 4.257 0 0 1 3.711-4.215 5.054 5.054 0 0 0-5.04-4.825 5.054 5.054 0 0 0-5.042 4.851 4.27 4.27 0 0 1 1.265.522 4.23 4.23 0 0 1 1.902 2.643.533.533 0 0 1-1.036.244 3.194 3.194 0 0 0-3.836-2.375 3.193 3.193 0 0 0-2.375 3.837.531.531 0 1 1-1.035.243 4.227 4.227 0 0 1 .006-1.954 3.178 3.178 0 0 0-2.921 1.128 3.186 3.186 0 0 0-.625 2.81c.001.006.004.012.004.018A3.172 3.172 0 0 0 9.499 20.7a.533.533 0 0 1-.676.822 4.227 4.227 0 0 1-1.354-2.011 5.025 5.025 0 0 0-5.578 2.266c-.7 1.153-.91 2.51-.59 3.821s1.131 2.419 2.284 3.12a.532.532 0 0 1-.277.986.526.526 0 0 1-.208-.048c.84.498 1.807.802 2.842.847l4.365.002a6.923 6.923 0 0 0 6.27-4.25 6.924 6.924 0 0 0 6.381 4.254c4.985 0 9.04-4.055 9.04-9.04v-5.318l-.013-.532z"/><path fill="#abcadd" style="fill:var(--color5,#abcadd)" d="M28.241 11.93c-.123-3.265-2.81-5.885-6.104-5.885-3.266 0-5.935 2.576-6.099 5.802a4.244 4.244 0 0 0-3.672 2.266 4.224 4.224 0 0 0-4.121 1.458 4.227 4.227 0 0 0-.963 2.85 6.088 6.088 0 0 0-6.298 2.842c-.849 1.396-1.102 3.039-.715 4.625s1.369 2.928 2.765 3.777a.532.532 0 1 0 .553-.908c-1.153-.701-1.964-1.809-2.284-3.12s-.11-2.668.59-3.821a5.027 5.027 0 0 1 5.578-2.266 4.227 4.227 0 0 0 1.354 2.011.533.533 0 0 0 .676-.822 3.172 3.172 0 0 1-1.056-1.663c-.001-.006-.004-.012-.004-.018a3.186 3.186 0 0 1 .625-2.81 3.178 3.178 0 0 1 2.921-1.128 4.214 4.214 0 0 0-.006 1.954.532.532 0 0 0 1.035-.243 3.195 3.195 0 0 1 2.375-3.837 3.194 3.194 0 0 1 3.836 2.375.533.533 0 0 0 1.036-.244 4.23 4.23 0 0 0-1.902-2.643 4.27 4.27 0 0 0-1.265-.522 5.054 5.054 0 0 1 5.042-4.851 5.053 5.053 0 0 1 5.04 4.825 4.258 4.258 0 0 0-3.711 4.215.532.532 0 1 0 1.064 0c0-1.76 1.431-3.191 3.191-3.191s3.215 1.431 3.215 3.191v1.595a.532.532 0 1 0 1.064 0v-1.595c-.001-2.169-1.658-3.961-3.759-4.219z"/><path fill="#abcadd" style="fill:var(--color5,#abcadd)" d="M22.96 30.507a7.427 7.427 0 0 1-6.381-3.61 7.428 7.428 0 0 1-6.381 3.61.532.532 0 1 1 0-1.064 6.373 6.373 0 0 0 5.891-3.928l.49-1.173.49 1.173a6.373 6.373 0 0 0 5.891 3.928.532.532 0 1 1 0 1.064zM29.286 22.996a4.26 4.26 0 0 0-4.224-3.766 4.259 4.259 0 0 0-4.254 4.254.532.532 0 1 0 1.064 0 3.194 3.194 0 0 1 3.191-3.191 3.193 3.193 0 0 1 3.151 2.713 3.194 3.194 0 0 0-2.619 3.136.532.532 0 1 0 1.064 0c0-1.173.954-2.127 2.127-2.127s2.127.954 2.127 2.127a.532.532 0 1 0 1.064 0 3.193 3.193 0 0 0-2.689-3.147z"/></symbol><symbol id="icon-04n" viewBox="0 0 32 32"><path fill="#d0e8f9" style="fill:var(--color4,#d0e8f9)" d="M31.987 15.618h-.043c.019.162.031.325.031.492a.532.532 0 1 1-1.064 0c0-1.76-1.431-3.191-3.191-3.191s-3.191 1.431-3.191 3.191a.532.532 0 1 1-1.064 0 4.257 4.257 0 0 1 3.711-4.215 5.054 5.054 0 0 0-5.04-4.825 5.054 5.054 0 0 0-5.042 4.851 4.27 4.27 0 0 1 1.265.522 4.23 4.23 0 0 1 1.902 2.643.533.533 0 0 1-1.036.244 3.194 3.194 0 0 0-3.836-2.375 3.193 3.193 0 0 0-2.375 3.837.531.531 0 1 1-1.035.243 4.227 4.227 0 0 1 .006-1.954 3.178 3.178 0 0 0-2.921 1.128 3.186 3.186 0 0 0-.625 2.81c.001.006.004.012.004.018A3.172 3.172 0 0 0 9.499 20.7a.533.533 0 0 1-.676.822 4.227 4.227 0 0 1-1.354-2.011 5.025 5.025 0 0 0-5.578 2.266c-.7 1.153-.91 2.51-.59 3.821s1.131 2.419 2.284 3.12a.532.532 0 0 1-.277.986.526.526 0 0 1-.208-.048c.84.498 1.807.802 2.842.847l4.365.002a6.923 6.923 0 0 0 6.27-4.25 6.924 6.924 0 0 0 6.381 4.254c4.985 0 9.04-4.055 9.04-9.04v-5.318l-.013-.532z"/><path fill="#abcadd" style="fill:var(--color5,#abcadd)" d="M28.241 11.93c-.123-3.265-2.81-5.885-6.104-5.885-3.266 0-5.935 2.576-6.099 5.802a4.244 4.244 0 0 0-3.672 2.266 4.224 4.224 0 0 0-4.121 1.458 4.227 4.227 0 0 0-.963 2.85 6.088 6.088 0 0 0-6.298 2.842c-.849 1.396-1.102 3.039-.715 4.625s1.369 2.928 2.765 3.777a.532.532 0 1 0 .553-.908c-1.153-.701-1.964-1.809-2.284-3.12s-.11-2.668.59-3.821a5.027 5.027 0 0 1 5.578-2.266 4.227 4.227 0 0 0 1.354 2.011.533.533 0 0 0 .676-.822 3.172 3.172 0 0 1-1.056-1.663c-.001-.006-.004-.012-.004-.018a3.186 3.186 0 0 1 .625-2.81 3.178 3.178 0 0 1 2.921-1.128 4.214 4.214 0 0 0-.006 1.954.532.532 0 0 0 1.035-.243 3.195 3.195 0 0 1 2.375-3.837 3.194 3.194 0 0 1 3.836 2.375.533.533 0 0 0 1.036-.244 4.23 4.23 0 0 0-1.902-2.643 4.27 4.27 0 0 0-1.265-.522 5.054 5.054 0 0 1 5.042-4.851 5.053 5.053 0 0 1 5.04 4.825 4.258 4.258 0 0 0-3.711 4.215.532.532 0 1 0 1.064 0c0-1.76 1.431-3.191 3.191-3.191s3.215 1.431 3.215 3.191v1.595a.532.532 0 1 0 1.064 0v-1.595c-.001-2.169-1.658-3.961-3.759-4.219z"/><path fill="#abcadd" style="fill:var(--color5,#abcadd)" d="M22.96 30.507a7.427 7.427 0 0 1-6.381-3.61 7.428 7.428 0 0 1-6.381 3.61.532.532 0 1 1 0-1.064 6.373 6.373 0 0 0 5.891-3.928l.49-1.173.49 1.173a6.373 6.373 0 0 0 5.891 3.928.532.532 0 1 1 0 1.064zM29.286 22.996a4.26 4.26 0 0 0-4.224-3.766 4.259 4.259 0 0 0-4.254 4.254.532.532 0 1 0 1.064 0 3.194 3.194 0 0 1 3.191-3.191 3.193 3.193 0 0 1 3.151 2.713 3.194 3.194 0 0 0-2.619 3.136.532.532 0 1 0 1.064 0c0-1.173.954-2.127 2.127-2.127s2.127.954 2.127 2.127a.532.532 0 1 0 1.064 0 3.193 3.193 0 0 0-2.689-3.147z"/></symbol><symbol id="icon-09d" viewBox="0 0 32 32"><path fill="#d0e8f9" style="fill:var(--color4,#d0e8f9)" d="M31.987 14.554h-.043c.019.162.031.325.031.492a.532.532 0 1 1-1.064 0c0-1.76-1.431-3.191-3.191-3.191s-3.191 1.431-3.191 3.191a.532.532 0 1 1-1.064 0 4.257 4.257 0 0 1 3.711-4.215 5.054 5.054 0 0 0-5.04-4.825 5.054 5.054 0 0 0-5.042 4.851 4.27 4.27 0 0 1 1.265.522 4.23 4.23 0 0 1 1.902 2.643.533.533 0 0 1-1.036.244 3.194 3.194 0 0 0-3.836-2.375 3.193 3.193 0 0 0-2.375 3.837.531.531 0 1 1-1.035.243 4.227 4.227 0 0 1 .006-1.954 3.178 3.178 0 0 0-2.921 1.128 3.186 3.186 0 0 0-.625 2.81c.001.006.004.012.004.018a3.172 3.172 0 0 0 1.056 1.663.533.533 0 0 1-.676.822 4.227 4.227 0 0 1-1.354-2.011 5.025 5.025 0 0 0-5.578 2.266c-.7 1.153-.91 2.51-.59 3.821s1.131 2.419 2.284 3.12a.532.532 0 0 1-.277.986.526.526 0 0 1-.208-.048c.84.498 1.807.802 2.842.847l4.365.002a6.923 6.923 0 0 0 6.27-4.25 6.924 6.924 0 0 0 6.381 4.254c4.985 0 9.04-4.055 9.04-9.04v-5.318l-.013-.532z"/><path fill="#abcadd" style="fill:var(--color5,#abcadd)" d="M28.241 10.867c-.122-3.265-2.809-5.885-6.104-5.885-3.266 0-5.935 2.576-6.099 5.802a4.244 4.244 0 0 0-3.672 2.266 4.224 4.224 0 0 0-4.121 1.458 4.227 4.227 0 0 0-.963 2.85A6.088 6.088 0 0 0 .984 20.2c-.849 1.396-1.102 3.039-.715 4.625s1.369 2.928 2.765 3.777a.532.532 0 1 0 .553-.908c-1.153-.701-1.964-1.809-2.284-3.12s-.11-2.668.59-3.821a5.027 5.027 0 0 1 5.578-2.266 4.227 4.227 0 0 0 1.354 2.011.533.533 0 0 0 .676-.822 3.172 3.172 0 0 1-1.056-1.663c-.001-.006-.004-.012-.004-.018a3.186 3.186 0 0 1 .625-2.81 3.178 3.178 0 0 1 2.921-1.128 4.214 4.214 0 0 0-.006 1.954.532.532 0 0 0 1.035-.243 3.195 3.195 0 0 1 2.375-3.837 3.194 3.194 0 0 1 3.836 2.375.533.533 0 0 0 1.036-.244 4.23 4.23 0 0 0-1.902-2.643 4.27 4.27 0 0 0-1.265-.522 5.054 5.054 0 0 1 5.042-4.851 5.053 5.053 0 0 1 5.04 4.825 4.258 4.258 0 0 0-3.711 4.215.532.532 0 1 0 1.064 0c0-1.76 1.431-3.191 3.191-3.191s3.215 1.431 3.215 3.191v1.595a.532.532 0 1 0 1.064 0v-1.595c-.001-2.169-1.658-3.961-3.759-4.219z"/><path fill="#abc5d3" style="fill:var(--color7,#abc5d3)" d="m17.265 25.877-1.595 1.595a.531.531 0 1 0 .752.752l1.595-1.595a.531.531 0 1 0-.752-.752zM14.074 29.068l-1.595 1.595a.531.531 0 1 0 .752.752l1.595-1.595a.531.531 0 1 0-.752-.752z"/><path fill="#fff" style="fill:var(--color8,#fff)" d="M25.461 22.687a.531.531 0 0 0-.752 0l-1.595 1.595a.531.531 0 1 0 .752.752l1.595-1.595a.531.531 0 0 0 0-.752zM21.519 25.877l-1.595 1.595a.531.531 0 1 0 .752.752l1.595-1.595a.531.531 0 1 0-.752-.752zM16.953 22.687a.531.531 0 0 0-.752 0l-1.595 1.595a.531.531 0 1 0 .752.752l1.595-1.595a.531.531 0 0 0 0-.752zM21.207 22.687a.531.531 0 0 0-.752 0l-1.595 1.595a.531.531 0 1 0 .752.752l1.595-1.595a.531.531 0 0 0 0-.752z"/><path fill="#abc5d3" style="fill:var(--color7,#abc5d3)" d="M13.762 25.877a.531.531 0 0 0-.752 0l-1.595 1.595a.531.531 0 1 0 .752.752l1.595-1.595a.531.531 0 0 0 0-.752z"/></symbol><symbol id="icon-09n" viewBox="0 0 32 32"><path fill="#d0e8f9" style="fill:var(--color4,#d0e8f9)" d="M31.987 14.554h-.043c.019.162.031.325.031.492a.532.532 0 1 1-1.064 0c0-1.76-1.431-3.191-3.191-3.191s-3.191 1.431-3.191 3.191a.532.532 0 1 1-1.064 0 4.257 4.257 0 0 1 3.711-4.215 5.054 5.054 0 0 0-5.04-4.825 5.054 5.054 0 0 0-5.042 4.851 4.27 4.27 0 0 1 1.265.522 4.23 4.23 0 0 1 1.902 2.643.533.533 0 0 1-1.036.244 3.194 3.194 0 0 0-3.836-2.375 3.193 3.193 0 0 0-2.375 3.837.531.531 0 1 1-1.035.243 4.227 4.227 0 0 1 .006-1.954 3.178 3.178 0 0 0-2.921 1.128 3.186 3.186 0 0 0-.625 2.81c.001.006.004.012.004.018a3.172 3.172 0 0 0 1.056 1.663.533.533 0 0 1-.676.822 4.227 4.227 0 0 1-1.354-2.011 5.025 5.025 0 0 0-5.578 2.266c-.7 1.153-.91 2.51-.59 3.821s1.131 2.419 2.284 3.12a.532.532 0 0 1-.277.986.526.526 0 0 1-.208-.048c.84.498 1.807.802 2.842.847l4.365.002a6.923 6.923 0 0 0 6.27-4.25 6.924 6.924 0 0 0 6.381 4.254c4.985 0 9.04-4.055 9.04-9.04v-5.318l-.013-.532z"/><path fill="#abcadd" style="fill:var(--color5,#abcadd)" d="M28.241 10.867c-.122-3.265-2.809-5.885-6.104-5.885-3.266 0-5.935 2.576-6.099 5.802a4.244 4.244 0 0 0-3.672 2.266 4.224 4.224 0 0 0-4.121 1.458 4.227 4.227 0 0 0-.963 2.85A6.088 6.088 0 0 0 .984 20.2c-.849 1.396-1.102 3.039-.715 4.625s1.369 2.928 2.765 3.777a.532.532 0 1 0 .553-.908c-1.153-.701-1.964-1.809-2.284-3.12s-.11-2.668.59-3.821a5.027 5.027 0 0 1 5.578-2.266 4.227 4.227 0 0 0 1.354 2.011.533.533 0 0 0 .676-.822 3.172 3.172 0 0 1-1.056-1.663c-.001-.006-.004-.012-.004-.018a3.186 3.186 0 0 1 .625-2.81 3.178 3.178 0 0 1 2.921-1.128 4.214 4.214 0 0 0-.006 1.954.532.532 0 0 0 1.035-.243 3.195 3.195 0 0 1 2.375-3.837 3.194 3.194 0 0 1 3.836 2.375.533.533 0 0 0 1.036-.244 4.23 4.23 0 0 0-1.902-2.643 4.27 4.27 0 0 0-1.265-.522 5.054 5.054 0 0 1 5.042-4.851 5.053 5.053 0 0 1 5.04 4.825 4.258 4.258 0 0 0-3.711 4.215.532.532 0 1 0 1.064 0c0-1.76 1.431-3.191 3.191-3.191s3.215 1.431 3.215 3.191v1.595a.532.532 0 1 0 1.064 0v-1.595c-.001-2.169-1.658-3.961-3.759-4.219z"/><path fill="#abc5d3" style="fill:var(--color7,#abc5d3)" d="m17.265 25.877-1.595 1.595a.531.531 0 1 0 .752.752l1.595-1.595a.531.531 0 1 0-.752-.752zM14.074 29.068l-1.595 1.595a.531.531 0 1 0 .752.752l1.595-1.595a.531.531 0 1 0-.752-.752z"/><path fill="#fff" style="fill:var(--color8,#fff)" d="M25.461 22.687a.531.531 0 0 0-.752 0l-1.595 1.595a.531.531 0 1 0 .752.752l1.595-1.595a.531.531 0 0 0 0-.752zM21.519 25.877l-1.595 1.595a.531.531 0 1 0 .752.752l1.595-1.595a.531.531 0 1 0-.752-.752zM16.953 22.687a.531.531 0 0 0-.752 0l-1.595 1.595a.531.531 0 1 0 .752.752l1.595-1.595a.531.531 0 0 0 0-.752zM21.207 22.687a.531.531 0 0 0-.752 0l-1.595 1.595a.531.531 0 1 0 .752.752l1.595-1.595a.531.531 0 0 0 0-.752z"/><path fill="#abc5d3" style="fill:var(--color7,#abc5d3)" d="M13.762 25.877a.531.531 0 0 0-.752 0l-1.595 1.595a.531.531 0 1 0 .752.752l1.595-1.595a.531.531 0 0 0 0-.752z"/></symbol><symbol id="icon-10d" viewBox="0 0 32 32"><path fill="#f0c419" style="fill:var(--color1,#f0c419)" d="M3.265 11.596a.532.532 0 0 0-.532-.532H.532a.532.532 0 1 0 0 1.064h2.201a.532.532 0 0 0 .532-.532zM11.167.429a.532.532 0 0 0-.532.532v2.2a.532.532 0 1 0 1.064 0v-2.2a.532.532 0 0 0-.532-.532zM3.475 3.152a.531.531 0 1 0-.752.752l2.104 2.104a.53.53 0 0 0 .752 0 .531.531 0 0 0 0-.752L3.475 3.152zM19.612 3.152a.531.531 0 0 0-.752 0l-2.104 2.104a.531.531 0 1 0 .752.752l2.104-2.104a.531.531 0 0 0 0-.752zM7.931 2.611a.531.531 0 1 0-.98.415l.43 1.013a.531.531 0 1 0 .98-.416l-.43-1.013zM14.939 2.262a.532.532 0 0 0-.692.294l-.412 1.02a.531.531 0 1 0 .986.398l.412-1.02a.53.53 0 0 0-.293-.692zM3.195 14.403l-1.012.43a.531.531 0 1 0 .416.978l1.012-.43a.531.531 0 1 0-.416-.979zM2.127 8.517l1.02.412a.532.532 0 0 0 .398-.985l-1.02-.413a.533.533 0 0 0-.398.987z"/><path fill="#ede21b" style="fill:var(--color2,#ede21b)" d="M6.81 17.483a5.67 5.67 0 0 1 1.11.233 3.714 3.714 0 0 1 .758-3.168 3.724 3.724 0 0 1 4.001-1.183l.006.002a3.716 3.716 0 0 1 3.905-2.323c-.004-.082-.012-.163-.012-.247a5.55 5.55 0 0 1 .868-2.981 7.325 7.325 0 0 0-6.278-3.556 7.335 7.335 0 0 0-7.335 7.335 7.308 7.308 0 0 0 2.977 5.886z"/><path fill="#d0e8f9" style="fill:var(--color4,#d0e8f9)" d="M31.987 14.554h-.043c.019.162.031.325.031.492a.532.532 0 1 1-1.064 0c0-1.76-1.431-3.191-3.191-3.191s-3.191 1.431-3.191 3.191a.532.532 0 1 1-1.064 0 4.257 4.257 0 0 1 3.711-4.215 5.054 5.054 0 0 0-5.04-4.825 5.054 5.054 0 0 0-5.042 4.851 4.27 4.27 0 0 1 1.265.522 4.23 4.23 0 0 1 1.902 2.643.533.533 0 0 1-1.036.244 3.194 3.194 0 0 0-3.836-2.375 3.193 3.193 0 0 0-2.375 3.837.531.531 0 1 1-1.035.243 4.227 4.227 0 0 1 .006-1.954 3.178 3.178 0 0 0-2.921 1.128 3.186 3.186 0 0 0-.625 2.81c.001.006.004.012.004.018a3.172 3.172 0 0 0 1.056 1.663.533.533 0 0 1-.676.822 4.227 4.227 0 0 1-1.354-2.011 5.025 5.025 0 0 0-5.578 2.266c-.7 1.153-.91 2.51-.59 3.821s1.131 2.419 2.284 3.12a.532.532 0 0 1-.277.986.526.526 0 0 1-.208-.048c.84.498 1.807.802 2.842.847l4.365.002a6.923 6.923 0 0 0 6.27-4.25 6.924 6.924 0 0 0 6.381 4.254c4.985 0 9.04-4.055 9.04-9.04v-5.318l-.013-.532z"/><path fill="#abcadd" style="fill:var(--color5,#abcadd)" d="M28.241 10.867c-.122-3.265-2.809-5.885-6.104-5.885-3.266 0-5.935 2.576-6.099 5.802a4.244 4.244 0 0 0-3.672 2.266 4.224 4.224 0 0 0-4.121 1.458 4.227 4.227 0 0 0-.963 2.85A6.088 6.088 0 0 0 .984 20.2c-.849 1.396-1.102 3.039-.715 4.625s1.369 2.928 2.765 3.777a.532.532 0 1 0 .553-.908c-1.153-.701-1.964-1.809-2.284-3.12s-.11-2.668.59-3.821a5.027 5.027 0 0 1 5.578-2.266 4.227 4.227 0 0 0 1.354 2.011.533.533 0 0 0 .676-.822 3.172 3.172 0 0 1-1.056-1.663c-.001-.006-.004-.012-.004-.018a3.186 3.186 0 0 1 .625-2.81 3.178 3.178 0 0 1 2.921-1.128 4.214 4.214 0 0 0-.006 1.954.532.532 0 0 0 1.035-.243 3.195 3.195 0 0 1 2.375-3.837 3.194 3.194 0 0 1 3.836 2.375.533.533 0 0 0 1.036-.244 4.23 4.23 0 0 0-1.902-2.643 4.27 4.27 0 0 0-1.265-.522 5.054 5.054 0 0 1 5.042-4.851 5.053 5.053 0 0 1 5.04 4.825 4.258 4.258 0 0 0-3.711 4.215.532.532 0 1 0 1.064 0c0-1.76 1.431-3.191 3.191-3.191s3.215 1.431 3.215 3.191v1.595a.532.532 0 1 0 1.064 0v-1.595c-.001-2.169-1.658-3.961-3.759-4.219z"/><path fill="#abc5d3" style="fill:var(--color7,#abc5d3)" d="m17.265 25.877-1.595 1.595a.531.531 0 1 0 .752.752l1.595-1.595a.531.531 0 1 0-.752-.752zM14.074 29.068l-1.595 1.595a.531.531 0 1 0 .752.752l1.595-1.595a.531.531 0 1 0-.752-.752z"/><path fill="#fff" style="fill:var(--color8,#fff)" d="M25.461 22.687a.531.531 0 0 0-.752 0l-1.595 1.595a.531.531 0 1 0 .752.752l1.595-1.595a.531.531 0 0 0 0-.752zM21.519 25.877l-1.595 1.595a.531.531 0 1 0 .752.752l1.595-1.595a.531.531 0 1 0-.752-.752zM16.953 22.687a.531.531 0 0 0-.752 0l-1.595 1.595a.531.531 0 1 0 .752.752l1.595-1.595a.531.531 0 0 0 0-.752zM21.207 22.687a.531.531 0 0 0-.752 0l-1.595 1.595a.531.531 0 1 0 .752.752l1.595-1.595a.531.531 0 0 0 0-.752z"/><path fill="#abc5d3" style="fill:var(--color7,#abc5d3)" d="M13.762 25.877a.531.531 0 0 0-.752 0l-1.595 1.595a.531.531 0 1 0 .752.752l1.595-1.595a.531.531 0 0 0 0-.752z"/></symbol><symbol id="icon-10n" viewBox="0 0 32 32"><path fill="#fbd490" style="fill:var(--color6,#fbd490)" d="M6.027 14.826c.599 0 1.176.097 1.718.271a3.734 3.734 0 0 1 4.773-4.363l.006.002a3.725 3.725 0 0 1 3.916-2.329c-.004-.083-.012-.164-.012-.247 0-1.29.44-2.473 1.172-3.42a9.847 9.847 0 0 0-6.507-3.206c-.023 4.694-3.833 8.493-8.532 8.493-.688 0-1.354-.09-1.996-.244a9.881 9.881 0 0 0-.138 1.578 9.81 9.81 0 0 0 1.518 5.241 5.578 5.578 0 0 1 4.082-1.775z"/><path fill="#d0e8f9" style="fill:var(--color4,#d0e8f9)" d="M31.987 11.801h-.043c.019.162.031.326.031.493a.532.532 0 1 1-1.066 0c0-1.765-1.435-3.2-3.2-3.2s-3.2 1.435-3.2 3.2a.532.532 0 1 1-1.066 0 4.27 4.27 0 0 1 3.721-4.228c-.121-2.687-2.338-4.839-5.055-4.839a5.067 5.067 0 0 0-5.056 4.865 4.241 4.241 0 0 1 3.175 3.174.534.534 0 0 1-1.039.245 3.203 3.203 0 0 0-3.847-2.382 3.203 3.203 0 0 0-2.382 3.848.534.534 0 0 1-1.038.244 4.235 4.235 0 0 1 .006-1.959 3.195 3.195 0 0 0-3.556 3.951c.001.006.004.012.004.018a3.179 3.179 0 0 0 1.059 1.668.534.534 0 0 1-.678.823 4.23 4.23 0 0 1-1.358-2.016 5.04 5.04 0 0 0-5.594 2.273c-.702 1.156-.913 2.517-.592 3.832s1.134 2.426 2.291 3.129a.533.533 0 0 1-.277.989.52.52 0 0 1-.209-.049 6.102 6.102 0 0 0 2.85.85l4.378.002a6.943 6.943 0 0 0 6.288-4.262 6.944 6.944 0 0 0 6.4 4.266c4.999 0 9.066-4.067 9.066-9.066v-5.333l-.013-.534z"/><path fill="#abcadd" style="fill:var(--color5,#abcadd)" d="M28.231 8.103c-.123-3.274-2.818-5.902-6.121-5.902-3.276 0-5.952 2.583-6.117 5.818a4.254 4.254 0 0 0-3.683 2.272 4.238 4.238 0 0 0-4.133 1.462 4.236 4.236 0 0 0-.965 2.858 6.106 6.106 0 0 0-6.316 2.85C.045 18.861-.21 20.508.179 22.1s1.373 2.936 2.773 3.788a.532.532 0 1 0 .554-.911c-1.157-.703-1.97-1.814-2.291-3.129s-.11-2.676.592-3.832a5.042 5.042 0 0 1 5.594-2.273 4.23 4.23 0 0 0 1.358 2.016.531.531 0 0 0 .751-.072.534.534 0 0 0-.073-.751 3.18 3.18 0 0 1-1.059-1.668c-.001-.006-.004-.012-.004-.018a3.197 3.197 0 0 1 .627-2.819 3.187 3.187 0 0 1 2.929-1.132 4.222 4.222 0 0 0-.006 1.959.533.533 0 0 0 1.038-.244 3.204 3.204 0 0 1 2.382-3.848 3.203 3.203 0 0 1 3.847 2.382.537.537 0 0 0 .642.397.535.535 0 0 0 .397-.642 4.244 4.244 0 0 0-3.175-3.174 5.069 5.069 0 0 1 5.056-4.865 5.068 5.068 0 0 1 5.055 4.839 4.27 4.27 0 0 0-3.721 4.228.532.532 0 1 0 1.066 0c0-1.765 1.435-3.2 3.2-3.2s3.224 1.435 3.224 3.2v1.6a.533.533 0 0 0 1.066 0v-1.6C32 10.156 30.338 8.358 28.231 8.1z"/><path fill="#fff" style="fill:var(--color8,#fff)" d="M25.442 21.557a.532.532 0 0 0-.754 0l-1.6 1.6a.532.532 0 0 0 .377.91.532.532 0 0 0 .377-.156l1.6-1.6a.534.534 0 0 0 0-.754zM21.489 24.757l-1.6 1.6a.532.532 0 0 0 .377.91.532.532 0 0 0 .377-.156l1.6-1.6a.533.533 0 1 0-.754-.754zM16.155 21.557l-1.6 1.6a.532.532 0 0 0 .377.91.532.532 0 0 0 .377-.156l1.6-1.6a.533.533 0 1 0-.754-.754zM21.176 21.557a.532.532 0 0 0-.754 0l-1.6 1.6a.532.532 0 0 0 .377.91.532.532 0 0 0 .377-.156l1.6-1.6a.532.532 0 0 0 0-.754z"/><path fill="#abc5d3" style="fill:var(--color7,#abc5d3)" d="M17.976 24.757a.532.532 0 0 0-.754 0l-1.6 1.6a.532.532 0 0 0 .377.91.532.532 0 0 0 .377-.156l1.6-1.6a.532.532 0 0 0 0-.754zM14.022 27.956l-1.6 1.6a.532.532 0 0 0 .377.91.532.532 0 0 0 .377-.156l1.6-1.6a.533.533 0 1 0-.754-.754zM13.71 24.757a.532.532 0 0 0-.754 0l-1.6 1.6a.532.532 0 0 0 .377.91.532.532 0 0 0 .377-.156l1.6-1.6a.532.532 0 0 0 0-.754z"/></symbol><symbol id="icon-11d" viewBox="0 0 32 32"><path fill="#d0e8f9" style="fill:var(--color4,#d0e8f9)" d="M31.987 12.267h-.043c.019.162.031.326.031.493a.532.532 0 1 1-1.066 0c0-1.765-1.435-3.2-3.2-3.2s-3.2 1.435-3.2 3.2a.532.532 0 1 1-1.066 0 4.27 4.27 0 0 1 3.721-4.228c-.121-2.687-2.338-4.839-5.055-4.839a5.067 5.067 0 0 0-5.056 4.865 4.241 4.241 0 0 1 3.175 3.174.534.534 0 0 1-1.039.245 3.203 3.203 0 0 0-3.847-2.382 3.203 3.203 0 0 0-2.382 3.848.534.534 0 0 1-1.038.244 4.235 4.235 0 0 1 .006-1.959 3.195 3.195 0 0 0-3.556 3.951c.001.006.004.012.004.018a3.179 3.179 0 0 0 1.059 1.668.534.534 0 0 1-.678.823 4.23 4.23 0 0 1-1.358-2.016 5.04 5.04 0 0 0-5.594 2.273c-.702 1.156-.913 2.517-.592 3.832s1.134 2.426 2.291 3.129a.533.533 0 0 1-.277.989.52.52 0 0 1-.209-.049 6.102 6.102 0 0 0 2.85.85l4.378.002a6.943 6.943 0 0 0 6.288-4.262 6.944 6.944 0 0 0 6.4 4.266c4.999 0 9.066-4.067 9.066-9.066v-5.333l-.013-.534z"/><path fill="#abcadd" style="fill:var(--color5,#abcadd)" d="M28.231 8.569c-.123-3.274-2.818-5.902-6.121-5.902-3.276 0-5.952 2.583-6.117 5.818a4.254 4.254 0 0 0-3.683 2.272 4.238 4.238 0 0 0-4.133 1.462 4.236 4.236 0 0 0-.965 2.858 6.106 6.106 0 0 0-6.316 2.85c-.851 1.4-1.106 3.047-.717 4.639s1.373 2.936 2.773 3.788a.532.532 0 1 0 .554-.911c-1.157-.703-1.97-1.814-2.291-3.129s-.11-2.676.592-3.832a5.042 5.042 0 0 1 5.594-2.273 4.226 4.226 0 0 0 1.358 2.016.531.531 0 0 0 .751-.072.534.534 0 0 0-.073-.751 3.18 3.18 0 0 1-1.059-1.668c-.001-.006-.004-.012-.004-.018a3.197 3.197 0 0 1 .627-2.819 3.187 3.187 0 0 1 2.929-1.132 4.222 4.222 0 0 0-.006 1.959.533.533 0 0 0 1.038-.244 3.204 3.204 0 0 1 2.382-3.848 3.203 3.203 0 0 1 3.847 2.382.537.537 0 0 0 .642.397.535.535 0 0 0 .397-.642 4.244 4.244 0 0 0-3.175-3.174 5.069 5.069 0 0 1 5.056-4.865 5.068 5.068 0 0 1 5.055 4.839 4.27 4.27 0 0 0-3.721 4.228.532.532 0 1 0 1.066 0c0-1.765 1.435-3.2 3.2-3.2s3.224 1.435 3.224 3.2v1.6a.533.533 0 0 0 1.066 0v-1.6c-.001-2.175-1.663-3.973-3.77-4.231z"/><path fill="#abcadd" style="fill:var(--color5,#abcadd)" d="M25.6 19.733a.533.533 0 0 0 .533-.533v-.267c0-1.323 1.077-2.4 2.4-2.4s2.4 1.077 2.4 2.4a.533.533 0 1 0 1.066 0 3.47 3.47 0 0 0-3.466-3.466 3.481 3.481 0 0 0-3.466 3.2v.533c0 .294.239.533.533.533z"/><path fill="#abc5d3" style="fill:var(--color7,#abc5d3)" d="M13.826 26.996a.532.532 0 0 0-.493-.33h-1.912l4.423-4.423a.533.533 0 1 0-.754-.754l-5.333 5.333a.532.532 0 0 0 .377.911h1.912l-2.823 2.823a.532.532 0 0 0 .377.91.532.532 0 0 0 .377-.156l3.733-3.733a.532.532 0 0 0 .116-.581zM22.244 19.356a.532.532 0 0 0-.754 0l-5.333 5.333a.532.532 0 0 0 .377.911h1.912l-2.823 2.823a.532.532 0 0 0 .377.91.532.532 0 0 0 .377-.156l3.733-3.733a.532.532 0 0 0-.377-.911h-1.912l4.423-4.423a.532.532 0 0 0 0-.754z"/></symbol><symbol id="icon-11n" viewBox="0 0 32 32"><path fill="#d0e8f9" style="fill:var(--color4,#d0e8f9)" d="M31.987 12.267h-.043c.019.162.031.326.031.493a.532.532 0 1 1-1.066 0c0-1.765-1.435-3.2-3.2-3.2s-3.2 1.435-3.2 3.2a.532.532 0 1 1-1.066 0 4.27 4.27 0 0 1 3.721-4.228c-.121-2.687-2.338-4.839-5.055-4.839a5.067 5.067 0 0 0-5.056 4.865 4.241 4.241 0 0 1 3.175 3.174.534.534 0 0 1-1.039.245 3.203 3.203 0 0 0-3.847-2.382 3.203 3.203 0 0 0-2.382 3.848.534.534 0 0 1-1.038.244 4.235 4.235 0 0 1 .006-1.959 3.195 3.195 0 0 0-3.556 3.951c.001.006.004.012.004.018a3.179 3.179 0 0 0 1.059 1.668.534.534 0 0 1-.678.823 4.23 4.23 0 0 1-1.358-2.016 5.04 5.04 0 0 0-5.594 2.273c-.702 1.156-.913 2.517-.592 3.832s1.134 2.426 2.291 3.129a.533.533 0 0 1-.277.989.52.52 0 0 1-.209-.049 6.102 6.102 0 0 0 2.85.85l4.378.002a6.943 6.943 0 0 0 6.288-4.262 6.944 6.944 0 0 0 6.4 4.266c4.999 0 9.066-4.067 9.066-9.066v-5.333l-.013-.534z"/><path fill="#abcadd" style="fill:var(--color5,#abcadd)" d="M28.231 8.569c-.123-3.274-2.818-5.902-6.121-5.902-3.276 0-5.952 2.583-6.117 5.818a4.254 4.254 0 0 0-3.683 2.272 4.238 4.238 0 0 0-4.133 1.462 4.236 4.236 0 0 0-.965 2.858 6.106 6.106 0 0 0-6.316 2.85c-.851 1.4-1.106 3.047-.717 4.639s1.373 2.936 2.773 3.788a.532.532 0 1 0 .554-.911c-1.157-.703-1.97-1.814-2.291-3.129s-.11-2.676.592-3.832a5.042 5.042 0 0 1 5.594-2.273 4.226 4.226 0 0 0 1.358 2.016.531.531 0 0 0 .751-.072.534.534 0 0 0-.073-.751 3.18 3.18 0 0 1-1.059-1.668c-.001-.006-.004-.012-.004-.018a3.197 3.197 0 0 1 .627-2.819 3.187 3.187 0 0 1 2.929-1.132 4.222 4.222 0 0 0-.006 1.959.533.533 0 0 0 1.038-.244 3.204 3.204 0 0 1 2.382-3.848 3.203 3.203 0 0 1 3.847 2.382.537.537 0 0 0 .642.397.535.535 0 0 0 .397-.642 4.244 4.244 0 0 0-3.175-3.174 5.069 5.069 0 0 1 5.056-4.865 5.068 5.068 0 0 1 5.055 4.839 4.27 4.27 0 0 0-3.721 4.228.532.532 0 1 0 1.066 0c0-1.765 1.435-3.2 3.2-3.2s3.224 1.435 3.224 3.2v1.6a.533.533 0 0 0 1.066 0v-1.6c-.001-2.175-1.663-3.973-3.77-4.231z"/><path fill="#abcadd" style="fill:var(--color5,#abcadd)" d="M25.6 19.733a.533.533 0 0 0 .533-.533v-.267c0-1.323 1.077-2.4 2.4-2.4s2.4 1.077 2.4 2.4a.533.533 0 1 0 1.066 0 3.47 3.47 0 0 0-3.466-3.466 3.481 3.481 0 0 0-3.466 3.2v.533c0 .294.239.533.533.533z"/><path fill="#abc5d3" style="fill:var(--color7,#abc5d3)" d="M13.826 26.996a.532.532 0 0 0-.493-.33h-1.912l4.423-4.423a.533.533 0 1 0-.754-.754l-5.333 5.333a.532.532 0 0 0 .377.911h1.912l-2.823 2.823a.532.532 0 0 0 .377.91.532.532 0 0 0 .377-.156l3.733-3.733a.532.532 0 0 0 .116-.581zM22.244 19.356a.532.532 0 0 0-.754 0l-5.333 5.333a.532.532 0 0 0 .377.911h1.912l-2.823 2.823a.532.532 0 0 0 .377.91.532.532 0 0 0 .377-.156l3.733-3.733a.532.532 0 0 0-.377-.911h-1.912l4.423-4.423a.532.532 0 0 0 0-.754z"/></symbol><symbol id="icon-13d" viewBox="0 0 32 32"><path fill="#f0c419" style="fill:var(--color1,#f0c419)" d="M3.265 11.588a.532.532 0 0 0-.532-.532H.532a.532.532 0 1 0 0 1.064h2.201a.532.532 0 0 0 .532-.532zM11.167.421a.532.532 0 0 0-.532.532v2.2a.532.532 0 1 0 1.064 0v-2.2a.532.532 0 0 0-.532-.532zM3.475 3.144a.531.531 0 1 0-.752.752L4.827 6a.53.53 0 0 0 .752 0 .531.531 0 0 0 0-.752L3.475 3.144zM19.612 3.144a.531.531 0 0 0-.752 0l-2.104 2.104a.531.531 0 1 0 .752.752l2.104-2.104a.531.531 0 0 0 0-.752zM7.931 2.603a.531.531 0 1 0-.98.415l.43 1.013a.531.531 0 1 0 .98-.416l-.43-1.013zM14.939 2.254a.532.532 0 0 0-.692.294l-.412 1.02a.531.531 0 1 0 .986.398l.412-1.02a.532.532 0 0 0-.294-.692zM3.195 14.395l-1.012.43a.531.531 0 1 0 .416.978l1.012-.43a.531.531 0 1 0-.416-.979zM2.127 8.509l1.02.412a.532.532 0 0 0 .398-.985l-1.02-.412a.533.533 0 0 0-.398.986z"/><path fill="#ede21b" style="fill:var(--color2,#ede21b)" d="M6.81 17.474a5.67 5.67 0 0 1 1.11.233 3.714 3.714 0 0 1 .758-3.168 3.724 3.724 0 0 1 4.001-1.183l.006.002a3.716 3.716 0 0 1 3.905-2.323c-.004-.082-.012-.163-.012-.247a5.55 5.55 0 0 1 .868-2.981 7.325 7.325 0 0 0-6.278-3.556 7.335 7.335 0 0 0-7.335 7.335 7.306 7.306 0 0 0 2.977 5.886z"/><path fill="#d0e8f9" style="fill:var(--color4,#d0e8f9)" d="M31.987 14.546h-.043c.019.162.031.325.031.492a.532.532 0 1 1-1.064 0c0-1.76-1.431-3.191-3.191-3.191s-3.191 1.431-3.191 3.191a.532.532 0 1 1-1.064 0 4.257 4.257 0 0 1 3.711-4.215 5.054 5.054 0 0 0-5.04-4.825 5.054 5.054 0 0 0-5.042 4.851 4.27 4.27 0 0 1 1.265.522 4.23 4.23 0 0 1 1.902 2.643.533.533 0 0 1-1.036.244 3.194 3.194 0 0 0-3.836-2.375 3.193 3.193 0 0 0-2.375 3.837.531.531 0 1 1-1.035.243 4.227 4.227 0 0 1 .006-1.954 3.178 3.178 0 0 0-2.921 1.128 3.186 3.186 0 0 0-.625 2.81c.001.006.004.012.004.018a3.172 3.172 0 0 0 1.056 1.663.533.533 0 0 1-.676.822 4.227 4.227 0 0 1-1.354-2.011 5.025 5.025 0 0 0-5.578 2.266c-.7 1.153-.91 2.51-.59 3.821s1.131 2.419 2.284 3.12a.532.532 0 0 1-.277.986.526.526 0 0 1-.208-.048c.84.498 1.807.802 2.842.847l4.365.002a6.923 6.923 0 0 0 6.27-4.25 6.924 6.924 0 0 0 6.381 4.254c4.985 0 9.04-4.055 9.04-9.04v-5.318l-.013-.532z"/><path fill="#abcadd" style="fill:var(--color5,#abcadd)" d="M28.241 10.859c-.122-3.265-2.809-5.885-6.104-5.885-3.266 0-5.935 2.576-6.099 5.802a4.244 4.244 0 0 0-3.672 2.266A4.224 4.224 0 0 0 8.245 14.5a4.227 4.227 0 0 0-.963 2.85 6.088 6.088 0 0 0-6.298 2.842c-.849 1.396-1.102 3.039-.715 4.625s1.369 2.928 2.765 3.777a.532.532 0 1 0 .553-.908c-1.153-.701-1.964-1.809-2.284-3.12s-.11-2.668.59-3.821a5.027 5.027 0 0 1 5.578-2.266 4.227 4.227 0 0 0 1.354 2.011.533.533 0 0 0 .676-.822 3.172 3.172 0 0 1-1.056-1.663c-.001-.006-.004-.012-.004-.018a3.186 3.186 0 0 1 .625-2.81 3.178 3.178 0 0 1 2.921-1.128 4.214 4.214 0 0 0-.006 1.954.532.532 0 0 0 1.035-.243 3.195 3.195 0 0 1 2.375-3.837 3.194 3.194 0 0 1 3.836 2.375.533.533 0 0 0 1.036-.244 4.23 4.23 0 0 0-1.902-2.643 4.27 4.27 0 0 0-1.265-.522 5.054 5.054 0 0 1 5.042-4.851 5.053 5.053 0 0 1 5.04 4.825 4.258 4.258 0 0 0-3.711 4.215.532.532 0 1 0 1.064 0c0-1.76 1.431-3.191 3.191-3.191s3.215 1.431 3.215 3.191v1.595a.532.532 0 1 0 1.064 0v-1.595c-.001-2.169-1.658-3.961-3.759-4.219z"/><path fill="#fff" style="fill:var(--color8,#fff)" d="m30.846 22.328-1.505-.869 1.505-.869a.53.53 0 1 0-.531-.921l-1.505.869V18.8a.532.532 0 1 0-1.064 0v1.738l-1.505-.869a.53.53 0 1 0-.531.921l1.505.869-1.505.869a.53.53 0 1 0 .531.921l1.505-.869v1.738a.532.532 0 1 0 1.064 0V22.38l1.505.869a.532.532 0 0 0 .531-.921zM19.874 19.864a.531.531 0 0 0-.726-.195l-1.505.869V18.8a.532.532 0 1 0-1.064 0v1.738l-1.505-.869a.53.53 0 1 0-.531.921l1.505.869-1.505.869a.53.53 0 1 0 .531.921l1.505-.869v1.738a.532.532 0 1 0 1.064 0V22.38l1.505.869a.532.532 0 0 0 .531-.921l-1.505-.869 1.505-.869a.533.533 0 0 0 .195-.726z"/><path fill="#abc5d3" style="fill:var(--color7,#abc5d3)" d="M25.723 26.793a.531.531 0 0 0-.726-.195l-1.505.869v-1.738a.532.532 0 1 0-1.064 0v1.738l-1.505-.869a.53.53 0 1 0-.531.921l1.505.869-1.505.869a.53.53 0 1 0 .531.921l1.505-.869v1.738a.532.532 0 1 0 1.064 0v-1.738l1.505.869a.532.532 0 0 0 .531-.921l-1.505-.869 1.505-.869a.533.533 0 0 0 .195-.726z"/></symbol><symbol id="icon-13n" viewBox="0 0 32 32"><path fill="#fbd490" style="fill:var(--color6,#fbd490)" d="M6.027 14.551c.599 0 1.176.097 1.718.271a3.734 3.734 0 0 1 4.773-4.363l.006.002a3.725 3.725 0 0 1 3.916-2.329c-.004-.083-.012-.164-.012-.247 0-1.29.44-2.473 1.172-3.42a9.847 9.847 0 0 0-6.507-3.206 8.531 8.531 0 0 1-8.531 8.492c-.688 0-1.354-.09-1.996-.244a9.881 9.881 0 0 0-.138 1.578 9.81 9.81 0 0 0 1.518 5.241 5.577 5.577 0 0 1 4.081-1.774z"/><path fill="#d0e8f9" style="fill:var(--color4,#d0e8f9)" d="M31.987 11.526h-.043c.019.162.031.326.031.493a.532.532 0 1 1-1.066 0c0-1.765-1.435-3.2-3.2-3.2s-3.2 1.435-3.2 3.2a.532.532 0 1 1-1.066 0 4.27 4.27 0 0 1 3.721-4.228c-.121-2.687-2.338-4.839-5.055-4.839a5.067 5.067 0 0 0-5.056 4.865 4.241 4.241 0 0 1 3.175 3.174.534.534 0 0 1-1.039.245 3.203 3.203 0 0 0-3.847-2.382 3.203 3.203 0 0 0-2.382 3.848.534.534 0 0 1-1.038.244 4.235 4.235 0 0 1 .006-1.959 3.195 3.195 0 0 0-3.556 3.951c.001.006.004.012.004.018a3.179 3.179 0 0 0 1.059 1.668.534.534 0 0 1-.678.823 4.23 4.23 0 0 1-1.358-2.016 5.04 5.04 0 0 0-5.594 2.273c-.702 1.156-.913 2.517-.592 3.832s1.134 2.426 2.291 3.129a.533.533 0 0 1-.277.989.52.52 0 0 1-.209-.049 6.102 6.102 0 0 0 2.85.85l4.378.002a6.943 6.943 0 0 0 6.288-4.262 6.944 6.944 0 0 0 6.4 4.266c4.999 0 9.066-4.067 9.066-9.066v-5.333l-.013-.534z"/><path fill="#abcadd" style="fill:var(--color5,#abcadd)" d="M28.231 7.828c-.123-3.274-2.818-5.902-6.121-5.902-3.276 0-5.952 2.583-6.117 5.818a4.254 4.254 0 0 0-3.683 2.272 4.238 4.238 0 0 0-4.133 1.462 4.234 4.234 0 0 0-.965 2.858 6.106 6.106 0 0 0-6.316 2.85c-.851 1.4-1.106 3.047-.717 4.639s1.373 2.936 2.773 3.788a.532.532 0 1 0 .554-.911c-1.157-.703-1.97-1.814-2.291-3.129s-.11-2.676.592-3.832a5.042 5.042 0 0 1 5.594-2.273 4.23 4.23 0 0 0 1.358 2.016.531.531 0 0 0 .751-.072.534.534 0 0 0-.073-.751 3.18 3.18 0 0 1-1.059-1.668c-.001-.006-.004-.012-.004-.018a3.197 3.197 0 0 1 .627-2.819 3.187 3.187 0 0 1 2.929-1.132 4.222 4.222 0 0 0-.006 1.959.533.533 0 0 0 1.038-.244 3.204 3.204 0 0 1 2.382-3.848 3.203 3.203 0 0 1 3.847 2.382.537.537 0 0 0 .642.397.535.535 0 0 0 .397-.642 4.244 4.244 0 0 0-3.175-3.174 5.069 5.069 0 0 1 5.056-4.865 5.068 5.068 0 0 1 5.055 4.839 4.27 4.27 0 0 0-3.721 4.228.532.532 0 1 0 1.066 0c0-1.765 1.435-3.2 3.2-3.2s3.224 1.435 3.224 3.2v1.6a.533.533 0 0 0 1.066 0v-1.6c-.001-2.175-1.663-3.972-3.77-4.231z"/><path fill="#fff" style="fill:var(--color8,#fff)" d="m26.4 21.463-1.509-.871 1.509-.871a.533.533 0 1 0-.534-.924l-1.509.871v-1.743a.533.533 0 1 0-1.066 0v1.743l-1.509-.871a.533.533 0 1 0-.534.924l1.509.871-1.509.871a.534.534 0 0 0 .533.925l1.509-.871v1.743a.533.533 0 1 0 1.066 0v-1.743l1.509.871a.53.53 0 0 0 .728-.196.533.533 0 0 0-.195-.729zM15.396 18.992a.533.533 0 0 0-.729-.195l-1.509.871v-1.743a.533.533 0 0 0-1.066 0v1.743l-1.509-.871a.533.533 0 1 0-.534.924l1.509.871-1.509.871a.534.534 0 0 0 .533.925l1.509-.871v1.743a.533.533 0 0 0 1.066 0v-1.743l1.509.871a.53.53 0 0 0 .728-.196.534.534 0 0 0-.195-.729l-1.509-.871 1.509-.871a.534.534 0 0 0 .195-.729z"/><path fill="#bdc3c7" style="fill:var(--color3,#bdc3c7)" d="M21.262 25.942a.533.533 0 0 0-.729-.195l-1.509.871v-1.743a.533.533 0 0 0-1.066 0v1.743l-1.509-.871a.533.533 0 1 0-.534.924l1.509.871-1.509.871a.534.534 0 0 0 .533.925l1.509-.871v1.743a.533.533 0 0 0 1.066 0v-1.743l1.509.871a.53.53 0 0 0 .728-.196.534.534 0 0 0-.195-.729l-1.509-.871 1.509-.871a.534.534 0 0 0 .195-.729z"/></symbol><symbol id="icon-50d" viewBox="0 0 32 32"><path fill="#abcadd" style="fill:var(--color5,#abcadd)" d="M31.759 11.156c-.235-.195-2.338-1.915-3.816-1.915-.873 0-1.545.544-2.143 1.028-.464.37-.9.726-1.303.726-.363 0-.779-.343-1.223-.705-.598-.49-1.276-1.048-2.163-1.048-.88 0-1.538.551-2.123 1.035-.45.376-.867.726-1.263.726-.41 0-.846-.356-1.31-.739-.578-.477-1.236-1.014-2.076-1.014-.873 0-1.545.544-2.143 1.028-.464.37-.9.726-1.303.726-.396 0-.82-.356-1.263-.726-.585-.484-1.243-1.035-2.123-1.035s-1.538.551-2.123 1.035c-.45.376-.867.726-1.263.726-.712 0-2.197-.941-3.023-1.606a.673.673 0 1 0-.846 1.048c.242.195 2.398 1.908 3.87 1.908.88 0 1.538-.551 2.123-1.035.45-.376.867-.726 1.263-.726s.82.356 1.263.726c.585.484 1.243 1.035 2.123 1.035.873 0 1.545-.544 2.143-1.028.464-.37.9-.726 1.303-.726.363 0 .779.343 1.223.705.598.49 1.276 1.048 2.163 1.048.88 0 1.538-.551 2.123-1.035.45-.376.867-.726 1.263-.726.41 0 .846.356 1.31.739.578.477 1.236 1.014 2.076 1.014.873 0 1.545-.544 2.143-1.028.464-.37.9-.726 1.303-.726.705 0 2.15.934 2.949 1.599a.688.688 0 0 0 .43.155.69.69 0 0 0 .524-.242.677.677 0 0 0-.087-.947zM.251 5.237c.242.195 2.398 1.908 3.87 1.908.88 0 1.538-.551 2.123-1.035.45-.376.867-.726 1.263-.726s.82.356 1.263.726c.585.484 1.243 1.035 2.123 1.035.873 0 1.545-.544 2.143-1.028.464-.37.9-.726 1.303-.726.363 0 .779.343 1.223.705.598.49 1.276 1.048 2.163 1.048.88 0 1.538-.551 2.123-1.035.45-.376.867-.726 1.263-.726.41 0 .846.356 1.31.739.578.477 1.236 1.014 2.076 1.014.873 0 1.545-.544 2.143-1.028.464-.37.9-.726 1.303-.726.705 0 2.15.934 2.949 1.599a.688.688 0 0 0 .43.155.69.69 0 0 0 .524-.242.677.677 0 0 0-.087-.947c-.235-.202-2.338-1.915-3.816-1.915-.873 0-1.545.544-2.143 1.028-.464.37-.9.726-1.303.726-.363 0-.779-.343-1.223-.705-.598-.49-1.276-1.048-2.163-1.048-.88 0-1.538.551-2.123 1.035-.45.376-.867.726-1.263.726-.41 0-.846-.356-1.31-.739-.578-.477-1.236-1.014-2.076-1.014-.873 0-1.545.544-2.143 1.028-.464.37-.9.726-1.303.726-.396 0-.82-.356-1.263-.726-.585-.484-1.243-1.035-2.123-1.035s-1.538.551-2.123 1.035c-.45.376-.867.726-1.263.726-.712 0-2.197-.941-3.023-1.606a.673.673 0 1 0-.846 1.048zM31.759 21.563c-.235-.195-2.338-1.915-3.816-1.915-.873 0-1.545.544-2.143 1.028-.464.369-.9.726-1.303.726-.363 0-.779-.343-1.223-.705-.598-.49-1.276-1.048-2.163-1.048-.88 0-1.538.551-2.123 1.035-.45.376-.867.726-1.263.726-.41 0-.846-.356-1.31-.739-.578-.477-1.236-1.014-2.076-1.014-.873 0-1.545.544-2.143 1.028-.464.369-.9.726-1.303.726-.396 0-.82-.356-1.263-.726-.585-.484-1.243-1.035-2.123-1.035s-1.538.551-2.123 1.035c-.45.376-.867.726-1.263.726-.712 0-2.197-.941-3.023-1.606a.673.673 0 1 0-.846 1.048c.242.195 2.398 1.908 3.87 1.908.88 0 1.538-.551 2.123-1.035.45-.376.867-.726 1.263-.726s.82.356 1.263.726c.585.484 1.243 1.035 2.123 1.035.873 0 1.545-.544 2.143-1.028.464-.369.9-.726 1.303-.726.363 0 .779.343 1.223.705.598.49 1.276 1.048 2.163 1.048.88 0 1.538-.551 2.123-1.035.45-.376.867-.726 1.263-.726.41 0 .846.356 1.31.739.578.477 1.236 1.014 2.076 1.014.873 0 1.545-.544 2.143-1.028.464-.369.9-.726 1.303-.726.705 0 2.15.934 2.949 1.599a.688.688 0 0 0 .43.155.69.69 0 0 0 .524-.242.677.677 0 0 0-.087-.947zM31.759 16.363c-.235-.195-2.338-1.915-3.816-1.915-.873 0-1.545.544-2.143 1.028-.464.37-.9.726-1.303.726-.363 0-.779-.343-1.223-.705-.598-.49-1.276-1.048-2.163-1.048-.88 0-1.538.551-2.123 1.035-.45.376-.867.726-1.263.726-.41 0-.846-.356-1.31-.739-.578-.477-1.236-1.014-2.076-1.014-.873 0-1.545.544-2.143 1.028-.464.37-.9.726-1.303.726-.396 0-.82-.356-1.263-.726-.585-.484-1.243-1.035-2.123-1.035s-1.538.551-2.123 1.035c-.45.376-.867.726-1.263.726-.712 0-2.197-.941-3.023-1.606a.673.673 0 1 0-.846 1.048c.242.195 2.398 1.908 3.87 1.908.88 0 1.538-.551 2.123-1.035.45-.376.867-.726 1.263-.726s.82.356 1.263.726c.585.484 1.243 1.035 2.123 1.035.873 0 1.545-.544 2.143-1.028.464-.369.9-.726 1.303-.726.363 0 .779.343 1.223.705.598.49 1.276 1.048 2.163 1.048.88 0 1.538-.551 2.123-1.035.45-.376.867-.726 1.263-.726.41 0 .846.356 1.31.739.578.477 1.236 1.014 2.076 1.014.873 0 1.545-.544 2.143-1.028.464-.369.9-.726 1.303-.726.705 0 2.15.934 2.949 1.599a.688.688 0 0 0 .43.155.71.71 0 0 0 .524-.242.677.677 0 0 0-.087-.947zM31.759 26.769c-.235-.202-2.338-1.915-3.816-1.915-.873 0-1.545.544-2.143 1.028-.464.369-.9.726-1.303.726-.363 0-.779-.343-1.223-.705-.598-.49-1.276-1.048-2.163-1.048-.88 0-1.538.551-2.123 1.035-.45.376-.867.726-1.263.726-.41 0-.846-.356-1.31-.739-.578-.477-1.236-1.014-2.076-1.014-.873 0-1.545.544-2.143 1.028-.464.369-.9.726-1.303.726-.396 0-.82-.356-1.263-.726-.585-.484-1.243-1.035-2.123-1.035s-1.538.551-2.123 1.035c-.45.376-.867.726-1.263.726-.712 0-2.197-.941-3.023-1.606a.673.673 0 1 0-.846 1.048c.242.195 2.398 1.908 3.87 1.908.88 0 1.538-.551 2.123-1.035.45-.376.867-.726 1.263-.726s.82.356 1.263.726c.585.484 1.243 1.035 2.123 1.035.873 0 1.545-.544 2.143-1.028.464-.369.9-.726 1.303-.726.363 0 .779.343 1.223.705.598.49 1.276 1.048 2.163 1.048.88 0 1.538-.551 2.123-1.035.45-.376.867-.726 1.263-.726.41 0 .846.356 1.31.739.578.477 1.236 1.014 2.076 1.014.873 0 1.545-.544 2.143-1.028.464-.369.9-.726 1.303-.726.705 0 2.15.934 2.949 1.599a.688.688 0 0 0 .43.155.69.69 0 0 0 .524-.242.677.677 0 0 0-.087-.947z"/></symbol><symbol id="icon-50n" viewBox="0 0 32 32"><path fill="#abcadd" style="fill:var(--color5,#abcadd)" d="M31.759 11.156c-.235-.195-2.338-1.915-3.816-1.915-.873 0-1.545.544-2.143 1.028-.464.37-.9.726-1.303.726-.363 0-.779-.343-1.223-.705-.598-.49-1.276-1.048-2.163-1.048-.88 0-1.538.551-2.123 1.035-.45.376-.867.726-1.263.726-.41 0-.846-.356-1.31-.739-.578-.477-1.236-1.014-2.076-1.014-.873 0-1.545.544-2.143 1.028-.464.37-.9.726-1.303.726-.396 0-.82-.356-1.263-.726-.585-.484-1.243-1.035-2.123-1.035s-1.538.551-2.123 1.035c-.45.376-.867.726-1.263.726-.712 0-2.197-.941-3.023-1.606a.673.673 0 1 0-.846 1.048c.242.195 2.398 1.908 3.87 1.908.88 0 1.538-.551 2.123-1.035.45-.376.867-.726 1.263-.726s.82.356 1.263.726c.585.484 1.243 1.035 2.123 1.035.873 0 1.545-.544 2.143-1.028.464-.37.9-.726 1.303-.726.363 0 .779.343 1.223.705.598.49 1.276 1.048 2.163 1.048.88 0 1.538-.551 2.123-1.035.45-.376.867-.726 1.263-.726.41 0 .846.356 1.31.739.578.477 1.236 1.014 2.076 1.014.873 0 1.545-.544 2.143-1.028.464-.37.9-.726 1.303-.726.705 0 2.15.934 2.949 1.599a.688.688 0 0 0 .43.155.69.69 0 0 0 .524-.242.677.677 0 0 0-.087-.947zM.251 5.237c.242.195 2.398 1.908 3.87 1.908.88 0 1.538-.551 2.123-1.035.45-.376.867-.726 1.263-.726s.82.356 1.263.726c.585.484 1.243 1.035 2.123 1.035.873 0 1.545-.544 2.143-1.028.464-.37.9-.726 1.303-.726.363 0 .779.343 1.223.705.598.49 1.276 1.048 2.163 1.048.88 0 1.538-.551 2.123-1.035.45-.376.867-.726 1.263-.726.41 0 .846.356 1.31.739.578.477 1.236 1.014 2.076 1.014.873 0 1.545-.544 2.143-1.028.464-.37.9-.726 1.303-.726.705 0 2.15.934 2.949 1.599a.688.688 0 0 0 .43.155.69.69 0 0 0 .524-.242.677.677 0 0 0-.087-.947c-.235-.202-2.338-1.915-3.816-1.915-.873 0-1.545.544-2.143 1.028-.464.37-.9.726-1.303.726-.363 0-.779-.343-1.223-.705-.598-.49-1.276-1.048-2.163-1.048-.88 0-1.538.551-2.123 1.035-.45.376-.867.726-1.263.726-.41 0-.846-.356-1.31-.739-.578-.477-1.236-1.014-2.076-1.014-.873 0-1.545.544-2.143 1.028-.464.37-.9.726-1.303.726-.396 0-.82-.356-1.263-.726-.585-.484-1.243-1.035-2.123-1.035s-1.538.551-2.123 1.035c-.45.376-.867.726-1.263.726-.712 0-2.197-.941-3.023-1.606a.673.673 0 1 0-.846 1.048zM31.759 21.563c-.235-.195-2.338-1.915-3.816-1.915-.873 0-1.545.544-2.143 1.028-.464.369-.9.726-1.303.726-.363 0-.779-.343-1.223-.705-.598-.49-1.276-1.048-2.163-1.048-.88 0-1.538.551-2.123 1.035-.45.376-.867.726-1.263.726-.41 0-.846-.356-1.31-.739-.578-.477-1.236-1.014-2.076-1.014-.873 0-1.545.544-2.143 1.028-.464.369-.9.726-1.303.726-.396 0-.82-.356-1.263-.726-.585-.484-1.243-1.035-2.123-1.035s-1.538.551-2.123 1.035c-.45.376-.867.726-1.263.726-.712 0-2.197-.941-3.023-1.606a.673.673 0 1 0-.846 1.048c.242.195 2.398 1.908 3.87 1.908.88 0 1.538-.551 2.123-1.035.45-.376.867-.726 1.263-.726s.82.356 1.263.726c.585.484 1.243 1.035 2.123 1.035.873 0 1.545-.544 2.143-1.028.464-.369.9-.726 1.303-.726.363 0 .779.343 1.223.705.598.49 1.276 1.048 2.163 1.048.88 0 1.538-.551 2.123-1.035.45-.376.867-.726 1.263-.726.41 0 .846.356 1.31.739.578.477 1.236 1.014 2.076 1.014.873 0 1.545-.544 2.143-1.028.464-.369.9-.726 1.303-.726.705 0 2.15.934 2.949 1.599a.688.688 0 0 0 .43.155.69.69 0 0 0 .524-.242.677.677 0 0 0-.087-.947zM31.759 16.363c-.235-.195-2.338-1.915-3.816-1.915-.873 0-1.545.544-2.143 1.028-.464.37-.9.726-1.303.726-.363 0-.779-.343-1.223-.705-.598-.49-1.276-1.048-2.163-1.048-.88 0-1.538.551-2.123 1.035-.45.376-.867.726-1.263.726-.41 0-.846-.356-1.31-.739-.578-.477-1.236-1.014-2.076-1.014-.873 0-1.545.544-2.143 1.028-.464.37-.9.726-1.303.726-.396 0-.82-.356-1.263-.726-.585-.484-1.243-1.035-2.123-1.035s-1.538.551-2.123 1.035c-.45.376-.867.726-1.263.726-.712 0-2.197-.941-3.023-1.606a.673.673 0 1 0-.846 1.048c.242.195 2.398 1.908 3.87 1.908.88 0 1.538-.551 2.123-1.035.45-.376.867-.726 1.263-.726s.82.356 1.263.726c.585.484 1.243 1.035 2.123 1.035.873 0 1.545-.544 2.143-1.028.464-.369.9-.726 1.303-.726.363 0 .779.343 1.223.705.598.49 1.276 1.048 2.163 1.048.88 0 1.538-.551 2.123-1.035.45-.376.867-.726 1.263-.726.41 0 .846.356 1.31.739.578.477 1.236 1.014 2.076 1.014.873 0 1.545-.544 2.143-1.028.464-.369.9-.726 1.303-.726.705 0 2.15.934 2.949 1.599a.688.688 0 0 0 .43.155.71.71 0 0 0 .524-.242.677.677 0 0 0-.087-.947zM31.759 26.769c-.235-.202-2.338-1.915-3.816-1.915-.873 0-1.545.544-2.143 1.028-.464.369-.9.726-1.303.726-.363 0-.779-.343-1.223-.705-.598-.49-1.276-1.048-2.163-1.048-.88 0-1.538.551-2.123 1.035-.45.376-.867.726-1.263.726-.41 0-.846-.356-1.31-.739-.578-.477-1.236-1.014-2.076-1.014-.873 0-1.545.544-2.143 1.028-.464.369-.9.726-1.303.726-.396 0-.82-.356-1.263-.726-.585-.484-1.243-1.035-2.123-1.035s-1.538.551-2.123 1.035c-.45.376-.867.726-1.263.726-.712 0-2.197-.941-3.023-1.606a.673.673 0 1 0-.846 1.048c.242.195 2.398 1.908 3.87 1.908.88 0 1.538-.551 2.123-1.035.45-.376.867-.726 1.263-.726s.82.356 1.263.726c.585.484 1.243 1.035 2.123 1.035.873 0 1.545-.544 2.143-1.028.464-.369.9-.726 1.303-.726.363 0 .779.343 1.223.705.598.49 1.276 1.048 2.163 1.048.88 0 1.538-.551 2.123-1.035.45-.376.867-.726 1.263-.726.41 0 .846.356 1.31.739.578.477 1.236 1.014 2.076 1.014.873 0 1.545-.544 2.143-1.028.464-.369.9-.726 1.303-.726.705 0 2.15.934 2.949 1.599a.688.688 0 0 0 .43.155.69.69 0 0 0 .524-.242.677.677 0 0 0-.087-.947z"/></symbol><symbol id="icon-search" viewBox="0 0 32 32"><path d="m31.008 27.231-7.58-6.447c-.784-.705-1.622-1.029-2.299-.998a11.954 11.954 0 0 0 2.87-7.787c0-6.627-5.373-12-12-12s-12 5.373-12 12 5.373 12 12 12c2.972 0 5.691-1.081 7.787-2.87-.031.677.293 1.515.998 2.299l6.447 7.58c1.104 1.226 2.907 1.33 4.007.23s.997-2.903-.23-4.007zM12 20a8 8 0 1 1 0-16 8 8 0 0 1 0 16z"/></symbol></defs></svg>