<svg aria-hidden="true" style="width:0;height:0;position:absolute;overflow:hidden" xmlns="http://www.w3.org/2000/svg"><defs><symbol id="icon-Grouprise"><path d="M16 5.103c.518 0 .938-.42.938-.938V.937a.938.938 0 0 0-1.876 0v3.228c0 .518.42.938.938.938zM31.063 15.063h-3.228a.938.938 0 0 0 0 1.876h3.228a.938.938 0 0 0 0-1.876zM5.103 16a.938.938 0 0 0-.938-.938H.937a.938.938 0 0 0 0 1.876h3.228c.518 0 .938-.42.938-.938zM24.368 8.569c.24 0 .48-.092.663-.275l2.282-2.282a.938.938 0 0 0-1.326-1.326l-2.282 2.282a.938.938 0 0 0 .663 1.601zM25.031 23.705a.938.938 0 0 0-1.326 1.326l2.282 2.282a.935.935 0 0 0 1.326 0 .938.938 0 0 0 0-1.326l-2.282-2.282zM6.969 23.705l-2.282 2.282a.938.938 0 0 0 1.326 1.326l2.282-2.282a.938.938 0 0 0-1.326-1.326zM6.969 8.294a.935.935 0 0 0 1.326 0 .938.938 0 0 0 0-1.326L6.013 4.686a.938.938 0 0 0-1.326 1.326l2.282 2.282zM20.182 5.937a.938.938 0 0 0 1.225-.506l1.239-2.981a.938.938 0 0 0-1.731-.72l-1.239 2.981a.937.937 0 0 0 .506 1.225zM30.269 20.915l-2.981-1.239a.938.938 0 0 0-.72 1.732l2.98 1.239a.936.936 0 0 0 1.226-.506.938.938 0 0 0-.506-1.226zM11.818 26.063a.938.938 0 0 0-1.226.506l-1.239 2.98a.938.938 0 0 0 1.731.72l1.239-2.981a.937.937 0 0 0-.506-1.225zM1.731 11.085l2.981 1.239a.938.938 0 0 0 .719-1.732L2.45 9.353a.938.938 0 0 0-.72 1.732zM26.073 11.841a.937.937 0 0 0 1.224.509l2.983-1.232a.938.938 0 0 0-.715-1.733l-2.983 1.232a.938.938 0 0 0-.509 1.224zM21.383 26.582a.938.938 0 0 0-1.733.715l1.232 2.983a.937.937 0 1 0 1.733-.715l-1.232-2.983zM5.927 20.159a.938.938 0 0 0-1.224-.509L1.72 20.882a.938.938 0 0 0 .715 1.733l2.983-1.232a.938.938 0 0 0 .509-1.224zM10.617 5.419a.937.937 0 1 0 1.733-.715l-1.232-2.983a.938.938 0 0 0-1.733.715l1.232 2.983z"/><path d="M16.938 24.637c4.351-.469 7.75-4.163 7.75-8.637 0-4.79-3.897-8.688-8.688-8.688S7.312 11.209 7.312 16c0 4.474 3.399 8.168 7.75 8.637v6.426a.938.938 0 0 0 1.876 0v-6.426zM9.187 16c0-3.756 3.056-6.813 6.813-6.813s6.813 3.056 6.813 6.813c0 3.438-2.561 6.289-5.875 6.748V19.17l.212.212a.938.938 0 0 0 1.326-1.326l-1.817-1.817a.937.937 0 0 0-1.316-.009l-1.875 1.822a.938.938 0 0 0 1.307 1.345l.289-.281v3.633c-3.314-.458-5.875-3.309-5.875-6.748z"/></symbol><symbol id="icon-Groupset"><path d="M16 5.103c.518 0 .938-.42.938-.938V.937a.938.938 0 0 0-1.876 0v3.228c0 .518.42.938.938.938zM31.063 15.063h-3.228a.938.938 0 0 0 0 1.876h3.228a.938.938 0 0 0 0-1.876zM5.103 16a.938.938 0 0 0-.938-.938H.937a.938.938 0 0 0 0 1.876h3.228c.518 0 .938-.42.938-.938zM24.368 8.569c.24 0 .48-.092.663-.275l2.282-2.282a.938.938 0 0 0-1.326-1.326l-2.282 2.282a.938.938 0 0 0 .663 1.601zM25.031 23.705a.938.938 0 0 0-1.326 1.326l2.282 2.282a.935.935 0 0 0 1.326 0 .938.938 0 0 0 0-1.326l-2.282-2.282zM6.969 23.705l-2.282 2.282a.938.938 0 0 0 1.326 1.326l2.282-2.282a.938.938 0 0 0-1.326-1.326zM6.969 8.294a.935.935 0 0 0 1.326 0 .938.938 0 0 0 0-1.326L6.013 4.686a.938.938 0 0 0-1.326 1.326l2.282 2.282zM20.182 5.937a.938.938 0 0 0 1.225-.506l1.239-2.981a.938.938 0 0 0-1.731-.72l-1.239 2.981a.937.937 0 0 0 .506 1.225zM30.269 20.915l-2.98-1.239a.938.938 0 0 0-.72 1.732l2.98 1.239a.935.935 0 0 0 1.225-.506.938.938 0 0 0-.506-1.226zM11.818 26.063a.938.938 0 0 0-1.226.506l-1.239 2.98a.938.938 0 0 0 1.732.72l1.239-2.98a.938.938 0 0 0-.506-1.226zM1.731 11.085l2.981 1.239a.938.938 0 0 0 .719-1.732L2.45 9.353a.938.938 0 0 0-.72 1.732zM26.073 11.841a.937.937 0 0 0 1.224.509l2.983-1.232a.938.938 0 0 0-.715-1.733l-2.983 1.232a.938.938 0 0 0-.509 1.224zM21.383 26.582a.938.938 0 0 0-1.733.715l1.232 2.983a.939.939 0 0 0 1.224.509.938.938 0 0 0 .509-1.224l-1.232-2.983zM5.927 20.158a.938.938 0 0 0-1.224-.509L1.72 20.881a.938.938 0 0 0 .715 1.733l2.983-1.232a.938.938 0 0 0 .509-1.224zM10.617 5.419a.937.937 0 1 0 1.733-.715l-1.232-2.983a.938.938 0 0 0-1.733.715l1.232 2.983z"/><path d="m17.15 28.582-.212.212v-4.158c4.351-.469 7.75-4.163 7.75-8.637 0-4.79-3.897-8.688-8.688-8.688s-8.688 3.897-8.688 8.688c0 4.474 3.399 8.168 7.75 8.637v4.213l-.289-.281a.938.938 0 0 0-1.307 1.345l1.875 1.822a.934.934 0 0 0 1.316-.01l1.817-1.817a.938.938 0 0 0-1.326-1.326zM9.187 16c0-3.756 3.056-6.813 6.813-6.813s6.813 3.056 6.813 6.813c0 3.438-2.561 6.289-5.875 6.748v-2.225a.938.938 0 0 0-1.876 0v2.225C11.748 22.29 9.187 19.439 9.187 16z"/></symbol><symbol id="icon-Group" viewBox="0 0 41 32"><path fill="#eee1dc" style="fill:var(--color1,#eee1dc)" d="M34.855 22.43c-4.3 0-14.279-3.141-18.704-7.058-1.632-1.444-2.46-2.932-2.46-4.422a6.002 6.002 0 0 1 7.658-5.761 5.99 5.99 0 0 1 5.67-4.037 6.018 6.018 0 0 1 5.202 3.014 6.001 6.001 0 0 1 6.395 7.122 6.031 6.031 0 0 1 2.865 5.112 5.665 5.665 0 0 1-1.785 4.14c-1.05.998-2.493 1.654-4.063 1.846a6.556 6.556 0 0 1-.778.042z"/><path fill="#e0d2cd" style="fill:var(--color2,#e0d2cd)" d="M38.617 11.289a6.002 6.002 0 0 0-6.395-7.122 6.025 6.025 0 0 0-4.635-2.987v19.863c2.857.873 5.528 1.387 7.268 1.387.285 0 .546-.014.778-.042 1.57-.192 3.013-.848 4.063-1.846a5.667 5.667 0 0 0 1.785-4.14 6.03 6.03 0 0 0-2.865-5.112z"/><path fill="#fff4f4" style="fill:var(--color3,#fff4f4)" d="M17.268 30.848a6.094 6.094 0 0 1-3.815-1.346 6.108 6.108 0 0 1-1.392-1.599 5.09 5.09 0 0 1-2.647.747 5.098 5.098 0 0 1-4.856-3.591A5.083 5.083 0 0 1 0 20.008a5.084 5.084 0 0 1 4.573-5.053 5.069 5.069 0 0 1 1.391-2.188 5.063 5.063 0 0 1 3.451-1.352c.934 0 1.842.261 2.626.735a6.09 6.09 0 0 1 1.396-1.62c1.079-.877 2.44-1.361 3.832-1.361a6.086 6.086 0 0 1 5.228 2.981 5.064 5.064 0 0 1 6.077.617 5.066 5.066 0 0 1 1.391 2.189 5.08 5.08 0 0 1 2.856 8.858 5.086 5.086 0 0 1-2.842 1.246 5.098 5.098 0 0 1-4.856 3.591 5.093 5.093 0 0 1-2.647-.747 6.108 6.108 0 0 1-1.392 1.599 6.094 6.094 0 0 1-3.815 1.346z"/><path fill="#f6efea" style="fill:var(--color4,#f6efea)" d="M32.818 16.201a5.083 5.083 0 0 0-2.855-1.246 5.066 5.066 0 0 0-1.391-2.189 5.062 5.062 0 0 0-3.45-1.352c-.934 0-1.842.261-2.626.735a6.09 6.09 0 0 0-1.396-1.62 6.094 6.094 0 0 0-3.832-1.361v21.68a6.096 6.096 0 0 0 3.815-1.346 6.108 6.108 0 0 0 1.392-1.599 5.09 5.09 0 0 0 2.647.747 5.098 5.098 0 0 0 4.856-3.591 5.083 5.083 0 0 0 4.558-5.051 5.08 5.08 0 0 0-1.717-3.807z"/></symbol></defs></svg>