<svg width="20" height="18" fill="none" xmlns="http://www.w3.org/2000/svg"><path d="M15.822.652c-.947 0-1.876.327-2.615.92a.586.586 0 1 0 .733.914 3.016 3.016 0 0 1 1.882-.662 3.01 3.01 0 0 1 3.006 3.006 3.01 3.01 0 0 1-3.006 3.006H4.805a.586.586 0 0 0 0 1.171h11.017A4.182 4.182 0 0 0 20 4.83 4.182 4.182 0 0 0 15.822.652Z" fill="#fff" fill-opacity=".54"/><path d="M3.682 6.668h6.26a.586.586 0 0 0 0-1.172h-6.26a.586.586 0 0 0 0 1.172ZM9.777 10.183H.586a.586.586 0 0 0 0 1.172h9.191a2.413 2.413 0 0 1 2.41 2.41 2.413 2.413 0 0 1-3.919 1.88.586.586 0 0 0-.733.914c.633.509 1.43.789 2.242.789a3.586 3.586 0 0 0 3.583-3.582 3.586 3.586 0 0 0-3.583-3.583ZM.586 6.668h.79a.586.586 0 0 0 0-1.172h-.79a.586.586 0 0 0 0 1.172Z" fill="#fff" fill-opacity=".54"/><path d="M7.656 13.102a.586.586 0 0 0-.586-.586H3.555a.586.586 0 0 0 0 1.171H7.07a.586.586 0 0 0 .586-.585Z" fill="#fff" fill-opacity=".54"/></svg>