<svg width="18" height="20" viewBox="0 0 18 20" fill="none" xmlns="http://www.w3.org/2000/svg">
<path d="M10.5554 2.57531C10.6844 2.33094 10.7578 2.05285 10.7578 1.75781C10.7578 0.788555 9.96921 0 8.99995 0C8.0307 0 7.24214 0.788555 7.24214 1.75781C7.24214 2.05285 7.31554 2.33094 7.44453 2.57531C3.34179 3.31164 0.218628 6.9073 0.218628 11.2187C0.218628 16.0607 4.15792 20 8.99995 20C13.842 20 17.7813 16.0607 17.7813 11.2187C17.7813 6.9073 14.6581 3.31168 10.5554 2.57531V2.57531ZM8.99995 1.17188C9.32304 1.17188 9.58589 1.43473 9.58589 1.75781C9.58589 2.0809 9.32304 2.34375 8.99995 2.34375C8.67687 2.34375 8.41402 2.0809 8.41402 1.75781C8.41402 1.43473 8.67687 1.17188 8.99995 1.17188ZM8.99995 18.8281C4.8041 18.8281 1.3905 15.4145 1.3905 11.2187C1.3905 7.02281 4.8041 3.60922 8.99995 3.60922C13.1958 3.60922 16.6094 7.02281 16.6094 11.2187C16.6094 15.4145 13.1958 18.8281 8.99995 18.8281Z" fill="white" fill-opacity="0.54"/>
<path d="M13.5825 6.68113C13.5743 6.67184 13.5663 6.66234 13.5574 6.65344C13.548 6.64402 13.538 6.63563 13.5282 6.62699C12.3621 5.47688 10.7621 4.76562 8.99992 4.76562C7.23019 4.76562 5.62476 5.48188 4.45777 6.63953C4.45269 6.64426 4.44734 6.64848 4.44242 6.65344C4.43828 6.65758 4.4348 6.66207 4.43082 6.66625C3.26723 7.83406 2.54688 9.44379 2.54688 11.2187C2.54688 11.5423 2.80922 11.8046 3.13281 11.8046H3.79687C4.12047 11.8046 4.38281 11.5423 4.38281 11.2187C4.38281 10.8951 4.12047 10.6327 3.79687 10.6327H3.75145C3.86453 9.61309 4.26898 8.68016 4.87957 7.91922L4.91199 7.95164C5.02641 8.06605 5.17637 8.12328 5.32629 8.12328C5.47621 8.12328 5.62621 8.06609 5.74059 7.95164C5.96941 7.72281 5.96941 7.35184 5.74059 7.12301L5.70902 7.09145C6.46844 6.48469 7.39816 6.08289 8.41398 5.97023V6.01562C8.41398 6.33922 8.67633 6.60156 8.99992 6.60156C9.32351 6.60156 9.58586 6.33922 9.58586 6.01562V5.97023C10.6013 6.08297 11.5309 6.48496 12.2904 7.09184L12.2593 7.12297C12.0304 7.3518 12.0304 7.72277 12.2593 7.9516C12.3737 8.06602 12.5236 8.12324 12.6736 8.12324C12.8235 8.12324 12.9735 8.06605 13.0879 7.9516L13.1198 7.91961C13.729 8.67863 14.1331 9.60867 14.2475 10.625H14.1952C13.8716 10.625 13.6093 10.8873 13.6093 11.2109C13.6093 11.5345 13.8716 11.7969 14.1952 11.7969C14.1952 11.7969 14.8675 11.7968 14.8678 11.7968C15.1914 11.7964 15.4534 11.5337 15.453 11.2101C15.4506 9.44629 14.736 7.84598 13.5825 6.68113V6.68113Z" fill="white" fill-opacity="0.54"/>
<path d="M11.6571 8.56151C11.4283 8.33269 11.0573 8.33269 10.8285 8.56151L8.38164 11.0084C8.11074 10.8789 7.80836 10.8192 7.50207 10.8407C7.17925 10.8632 6.93582 11.1432 6.95836 11.466C6.9809 11.7888 7.26058 12.0324 7.58367 12.0097C7.75293 11.9978 7.91879 12.0599 8.03875 12.1799C8.15687 12.298 8.21906 12.4614 8.20937 12.6282C8.19062 12.9512 8.4373 13.2283 8.76035 13.2471C8.77191 13.2478 8.78339 13.2481 8.79484 13.2481C9.10289 13.248 9.36117 13.0076 9.37925 12.6961C9.3966 12.3972 9.33644 12.1021 9.21007 11.8373L11.6571 9.39019C11.8859 9.16132 11.8859 8.79034 11.6571 8.56151V8.56151Z" fill="white" fill-opacity="0.54"/>
<path d="M12.3594 15.4297H5.64062C5.31703 15.4297 5.05469 15.692 5.05469 16.0156C5.05469 16.3392 5.31703 16.6016 5.64062 16.6016H12.3594C12.683 16.6016 12.9453 16.3392 12.9453 16.0156C12.9453 15.692 12.683 15.4297 12.3594 15.4297Z" fill="white" fill-opacity="0.54"/>
</svg>
