<svg width="20" height="20" viewBox="0 0 20 20" fill="none" xmlns="http://www.w3.org/2000/svg">
<path fill-rule="evenodd" clip-rule="evenodd" d="M17.8877 5.87409C17.5148 5.23588 17.1162 4.63252 16.7652 4.17506C16.2479 3.50068 15.9424 3.26165 15.5976 3.26165C15.2708 3.26165 15.005 3.49056 14.7065 3.83427C14.4867 4.08736 14.2247 4.4383 13.9488 4.849C13.5536 5.43756 13.174 6.07944 12.8495 6.70225C12.5018 6.03577 12.1768 5.46139 11.9366 5.05018C11.1847 3.76353 10.3829 2.54946 9.67875 1.63153C8.52394 0.126094 8.08976 0 7.77347 0C7.45718 0 7.02299 0.126094 5.86811 1.63157C5.16396 2.5495 4.36212 3.76357 3.61032 5.05022C2.70684 6.59635 0.605469 10.4497 0.605469 12.832C0.605469 16.7845 3.82103 20 7.77347 20C11.4819 20 14.5415 17.1692 14.9052 13.5551C15.1325 13.597 15.3638 13.6189 15.5976 13.6189C17.6913 13.6189 19.3946 11.9156 19.3946 9.82191C19.3946 8.63074 18.4505 6.83718 17.8877 5.87409ZM7.77347 18.8281C4.4672 18.8281 1.77735 16.1383 1.77735 12.832C1.77735 11.4363 2.77708 8.85824 4.45166 5.93592C5.94639 3.32751 7.27905 1.65028 7.77347 1.23668C8.26788 1.65028 9.60051 3.32747 11.0952 5.93592C12.7698 8.85828 13.7696 11.4363 13.7696 12.832C13.7696 16.1383 11.0797 18.8281 7.77347 18.8281ZM15.5976 12.447C15.3657 12.447 15.1374 12.4166 14.9164 12.3574C14.7873 11.0661 14.1754 9.46101 13.5067 8.02948C14.1582 6.5744 15.1249 5.14057 15.5971 4.59349C15.8953 4.93717 16.4234 5.66143 17.0108 6.69995C17.7697 8.04167 18.2227 9.20875 18.2227 9.82191C18.2227 11.2693 17.0451 12.447 15.5976 12.447Z" fill="white" fill-opacity="0.54"/>
<path fill-rule="evenodd" clip-rule="evenodd" d="M9.38217 10.0454C9.1019 9.88353 8.74358 9.97966 8.58178 10.2599L5.9503 14.8178C5.7885 15.0981 5.88452 15.4564 6.16475 15.6182C6.25702 15.6715 6.35776 15.6968 6.45718 15.6968C6.65968 15.6968 6.85663 15.5917 6.96514 15.4037L9.59663 10.8458C9.75842 10.5656 9.66241 10.2072 9.38217 10.0454Z" fill="white" fill-opacity="0.54"/>
<path fill-rule="evenodd" clip-rule="evenodd" d="M6.30859 11.2109C6.30859 10.8882 6.04539 10.625 5.72266 10.625C5.39992 10.625 5.13672 10.8882 5.13672 11.2109C5.13672 11.5337 5.39996 11.7969 5.72266 11.7969C6.04535 11.7969 6.30859 11.5337 6.30859 11.2109Z" fill="white" fill-opacity="0.54"/>
<path fill-rule="evenodd" clip-rule="evenodd" d="M9.62902 13.9453C9.30629 13.9453 9.04309 14.2085 9.04309 14.5312C9.04309 14.854 9.30633 15.1172 9.62902 15.1172C9.95176 15.1172 10.215 14.8539 10.215 14.5312C10.215 14.2085 9.95172 13.9453 9.62902 13.9453Z" fill="white" fill-opacity="0.54"/>
</svg>
