<svg width="20" height="18" viewBox="0 0 20 18" fill="none" xmlns="http://www.w3.org/2000/svg">
<path d="M15.8222 0.6521C14.8746 0.6521 13.9458 0.978818 13.2069 1.57206C12.9545 1.77468 12.9142 2.14343 13.1168 2.39577C13.3194 2.64808 13.6882 2.68847 13.9405 2.48585C14.4722 2.05901 15.1404 1.82397 15.8222 1.82397C17.4797 1.82397 18.8281 3.17237 18.8281 4.8298C18.8281 6.48722 17.4796 7.83562 15.8222 7.83562H4.80457C4.48097 7.83562 4.21863 8.09796 4.21863 8.42155C4.21863 8.74515 4.48097 9.00749 4.80457 9.00749H15.8222C18.1258 9.00749 19.9999 7.13339 19.9999 4.8298C19.9999 2.5262 18.1258 0.6521 15.8222 0.6521Z" fill="white" fill-opacity="0.54"/>
<path d="M3.68213 6.66772H9.94139C10.265 6.66772 10.5273 6.40538 10.5273 6.08179C10.5273 5.75819 10.265 5.49585 9.94139 5.49585H3.68213C3.35854 5.49585 3.09619 5.75819 3.09619 6.08179C3.09619 6.40538 3.35854 6.66772 3.68213 6.66772Z" fill="white" fill-opacity="0.54"/>
<path d="M9.77715 10.1833H0.585938C0.262344 10.1833 0 10.4457 0 10.7693C0 11.0929 0.262344 11.3552 0.585938 11.3552H9.77715C11.1062 11.3552 12.1876 12.4365 12.1876 13.7656C12.1876 15.0947 11.1062 16.176 9.77715 16.176C9.23039 16.176 8.69453 15.9875 8.26816 15.6452C8.01586 15.4426 7.64707 15.483 7.44445 15.7353C7.24184 15.9876 7.28219 16.3564 7.53453 16.559C8.16816 17.0677 8.96461 17.3478 9.77715 17.3478C11.7524 17.3478 13.3595 15.7408 13.3595 13.7656C13.3595 11.7903 11.7524 10.1833 9.77715 10.1833Z" fill="white" fill-opacity="0.54"/>
<path d="M0.585938 6.66772H1.37637C1.69996 6.66772 1.9623 6.40538 1.9623 6.08179C1.9623 5.75819 1.69996 5.49585 1.37637 5.49585H0.585938C0.262344 5.49585 0 5.75819 0 6.08179C0 6.40538 0.262344 6.66772 0.585938 6.66772Z" fill="white" fill-opacity="0.54"/>
<path d="M7.65625 13.1016C7.65625 12.778 7.39391 12.5156 7.07031 12.5156H3.55469C3.23109 12.5156 2.96875 12.778 2.96875 13.1016C2.96875 13.4252 3.23109 13.6875 3.55469 13.6875H7.07031C7.39395 13.6875 7.65625 13.4252 7.65625 13.1016Z" fill="white" fill-opacity="0.54"/>
</svg>
