<svg aria-hidden="true" style="position: absolute; width: 0; height: 0; overflow: hidden;" version="1.1" xmlns="http://www.w3.org/2000/svg" xmlns:xlink="http://www.w3.org/1999/xlink">
<defs>
<symbol id="icon-Grouprise" >
<path d="M16 5.103c0.518 0 0.938-0.42 0.938-0.938v-3.228c0-0.518-0.42-0.938-0.938-0.938s-0.938 0.42-0.938 0.938v3.228c0 0.518 0.42 0.938 0.938 0.938z"></path>
<path d="M31.063 15.063h-3.228c-0.518 0-0.938 0.42-0.938 0.938s0.42 0.938 0.938 0.938h3.228c0.518 0 0.938-0.42 0.938-0.938s-0.42-0.938-0.938-0.938z"></path>
<path d="M5.103 16c0-0.518-0.42-0.938-0.938-0.938h-3.228c-0.518 0-0.938 0.42-0.938 0.938s0.42 0.938 0.938 0.938h3.228c0.518 0 0.938-0.42 0.938-0.938z"></path>
<path d="M24.368 8.569c0.24 0 0.48-0.092 0.663-0.275l2.282-2.282c0.366-0.366 0.366-0.96 0-1.326s-0.96-0.366-1.326 0l-2.282 2.282c-0.366 0.366-0.366 0.96 0 1.326 0.183 0.183 0.423 0.275 0.663 0.275z"></path>
<path d="M25.031 23.705c-0.366-0.366-0.96-0.366-1.326 0s-0.366 0.96 0 1.326l2.282 2.282c0.183 0.183 0.423 0.275 0.663 0.275s0.48-0.092 0.663-0.275c0.366-0.366 0.366-0.96 0-1.326l-2.282-2.282z"></path>
<path d="M6.969 23.705l-2.282 2.282c-0.366 0.366-0.366 0.96 0 1.326 0.183 0.183 0.423 0.275 0.663 0.275s0.48-0.092 0.663-0.275l2.282-2.282c0.366-0.366 0.366-0.96 0-1.326s-0.96-0.366-1.326 0z"></path>
<path d="M6.969 8.294c0.183 0.183 0.423 0.275 0.663 0.275s0.48-0.092 0.663-0.275c0.366-0.366 0.366-0.96 0-1.326l-2.282-2.282c-0.366-0.366-0.96-0.366-1.326 0s-0.366 0.96 0 1.326l2.282 2.282z"></path>
<path d="M20.182 5.937c0.118 0.049 0.239 0.072 0.359 0.072 0.367 0 0.716-0.217 0.866-0.578l1.239-2.981c0.199-0.478-0.028-1.027-0.506-1.226s-1.027 0.028-1.225 0.506l-1.239 2.981c-0.199 0.478 0.028 1.027 0.506 1.225z"></path>
<path d="M30.269 20.915l-2.981-1.239c-0.478-0.199-1.027 0.028-1.226 0.506s0.028 1.027 0.506 1.226l2.98 1.239c0.118 0.049 0.24 0.072 0.36 0.072 0.367 0 0.716-0.217 0.866-0.578 0.199-0.478-0.028-1.027-0.506-1.226z"></path>
<path d="M11.818 26.063c-0.478-0.199-1.027 0.028-1.226 0.506l-1.239 2.98c-0.199 0.478 0.028 1.027 0.506 1.226 0.118 0.049 0.239 0.072 0.359 0.072 0.367 0 0.716-0.218 0.866-0.578l1.239-2.981c0.199-0.478-0.028-1.027-0.506-1.225z"></path>
<path d="M1.731 11.085l2.981 1.239c0.118 0.049 0.239 0.072 0.359 0.072 0.367 0 0.716-0.217 0.866-0.578 0.199-0.478-0.028-1.027-0.506-1.226l-2.981-1.239c-0.478-0.199-1.027 0.028-1.226 0.506s0.028 1.027 0.506 1.226z"></path>
<path d="M26.073 11.841c0.149 0.362 0.499 0.58 0.867 0.58 0.119 0 0.24-0.023 0.357-0.071l2.983-1.232c0.479-0.198 0.706-0.746 0.509-1.224s-0.746-0.706-1.224-0.509l-2.983 1.232c-0.479 0.198-0.706 0.746-0.509 1.224z"></path>
<path d="M21.383 26.582c-0.198-0.479-0.746-0.706-1.224-0.509s-0.706 0.746-0.509 1.224l1.232 2.983c0.149 0.362 0.499 0.58 0.867 0.58 0.119 0 0.24-0.023 0.357-0.071 0.479-0.198 0.706-0.746 0.509-1.224l-1.232-2.983z"></path>
<path d="M5.927 20.159c-0.198-0.479-0.746-0.706-1.224-0.509l-2.983 1.232c-0.479 0.198-0.706 0.746-0.509 1.224 0.149 0.362 0.499 0.58 0.867 0.58 0.119 0 0.24-0.023 0.357-0.071l2.983-1.232c0.479-0.198 0.706-0.746 0.509-1.224z"></path>
<path d="M10.617 5.419c0.149 0.362 0.499 0.58 0.867 0.58 0.119 0 0.24-0.023 0.357-0.071 0.479-0.198 0.706-0.746 0.509-1.224l-1.232-2.983c-0.198-0.479-0.746-0.706-1.224-0.509s-0.706 0.746-0.509 1.224l1.232 2.983z"></path>
<path d="M16.938 24.637c4.351-0.469 7.75-4.163 7.75-8.637 0-4.79-3.897-8.688-8.688-8.688s-8.688 3.897-8.688 8.688c0 4.474 3.399 8.168 7.75 8.637v6.426c0 0.518 0.42 0.938 0.938 0.938s0.938-0.42 0.938-0.938v-6.426zM9.187 16c0-3.756 3.056-6.813 6.813-6.813s6.813 3.056 6.813 6.813c0 3.438-2.561 6.289-5.875 6.748v-3.578l0.212 0.212c0.366 0.366 0.96 0.366 1.326 0s0.366-0.96 0-1.326l-1.817-1.817c-0.363-0.362-0.949-0.367-1.316-0.009l-1.875 1.822c-0.371 0.361-0.38 0.954-0.019 1.326 0.184 0.189 0.428 0.284 0.673 0.284 0.235 0 0.471-0.088 0.653-0.265l0.289-0.281v3.633c-3.314-0.458-5.875-3.309-5.875-6.748z"></path>
</symbol>
<symbol id="icon-Groupset" >
<path d="M16 5.103c0.518 0 0.938-0.42 0.938-0.938v-3.228c0-0.518-0.42-0.938-0.938-0.938s-0.938 0.42-0.938 0.938v3.228c0 0.518 0.42 0.938 0.938 0.938z"></path>
<path d="M31.063 15.063h-3.228c-0.518 0-0.938 0.42-0.938 0.938s0.42 0.938 0.938 0.938h3.228c0.518 0 0.938-0.42 0.938-0.938s-0.42-0.938-0.938-0.938z"></path>
<path d="M5.103 16c0-0.518-0.42-0.938-0.938-0.938h-3.228c-0.518 0-0.938 0.42-0.938 0.938s0.42 0.938 0.938 0.938h3.228c0.518 0 0.938-0.42 0.938-0.938z"></path>
<path d="M24.368 8.569c0.24 0 0.48-0.092 0.663-0.275l2.282-2.282c0.366-0.366 0.366-0.96 0-1.326s-0.96-0.366-1.326 0l-2.282 2.282c-0.366 0.366-0.366 0.96 0 1.326 0.183 0.183 0.423 0.275 0.663 0.275z"></path>
<path d="M25.031 23.705c-0.366-0.366-0.96-0.366-1.326 0s-0.366 0.96 0 1.326l2.282 2.282c0.183 0.183 0.423 0.275 0.663 0.275s0.48-0.092 0.663-0.275c0.366-0.366 0.366-0.96 0-1.326l-2.282-2.282z"></path>
<path d="M6.969 23.705l-2.282 2.282c-0.366 0.366-0.366 0.96 0 1.326 0.183 0.183 0.423 0.275 0.663 0.275s0.48-0.092 0.663-0.275l2.282-2.282c0.366-0.366 0.366-0.96 0-1.326s-0.96-0.366-1.326 0z"></path>
<path d="M6.969 8.294c0.183 0.183 0.423 0.275 0.663 0.275s0.48-0.092 0.663-0.275c0.366-0.366 0.366-0.96 0-1.326l-2.282-2.282c-0.366-0.366-0.96-0.366-1.326 0s-0.366 0.96 0 1.326l2.282 2.282z"></path>
<path d="M20.182 5.937c0.118 0.049 0.239 0.072 0.359 0.072 0.367 0 0.716-0.217 0.866-0.578l1.239-2.981c0.199-0.478-0.028-1.027-0.506-1.226s-1.027 0.028-1.225 0.506l-1.239 2.981c-0.199 0.478 0.028 1.027 0.506 1.225z"></path>
<path d="M30.269 20.915l-2.98-1.239c-0.478-0.199-1.027 0.028-1.226 0.506s0.028 1.027 0.506 1.226l2.98 1.239c0.118 0.049 0.24 0.072 0.359 0.072 0.367 0 0.716-0.217 0.866-0.578 0.199-0.478-0.028-1.027-0.506-1.226z"></path>
<path d="M11.818 26.063c-0.478-0.199-1.027 0.028-1.226 0.506l-1.239 2.98c-0.199 0.478 0.028 1.027 0.506 1.226 0.118 0.049 0.24 0.072 0.36 0.072 0.367 0 0.716-0.218 0.866-0.578l1.239-2.98c0.199-0.478-0.028-1.027-0.506-1.226z"></path>
<path d="M1.731 11.085l2.981 1.239c0.118 0.049 0.239 0.072 0.359 0.072 0.367 0 0.716-0.217 0.866-0.578 0.199-0.478-0.028-1.027-0.506-1.226l-2.981-1.239c-0.478-0.199-1.027 0.028-1.226 0.506s0.028 1.027 0.506 1.226z"></path>
<path d="M26.073 11.841c0.149 0.362 0.499 0.58 0.867 0.58 0.119 0 0.24-0.023 0.357-0.071l2.983-1.232c0.479-0.198 0.706-0.746 0.509-1.224s-0.746-0.706-1.224-0.509l-2.983 1.232c-0.479 0.198-0.706 0.746-0.509 1.224z"></path>
<path d="M21.383 26.582c-0.198-0.479-0.746-0.706-1.224-0.509s-0.706 0.746-0.509 1.224l1.232 2.983c0.149 0.361 0.499 0.58 0.867 0.58 0.119 0 0.24-0.023 0.357-0.071 0.479-0.198 0.706-0.746 0.509-1.224l-1.232-2.983z"></path>
<path d="M5.927 20.158c-0.198-0.479-0.746-0.706-1.224-0.509l-2.983 1.232c-0.479 0.198-0.706 0.746-0.509 1.224 0.149 0.362 0.499 0.58 0.867 0.58 0.119 0 0.24-0.023 0.357-0.071l2.983-1.232c0.479-0.198 0.706-0.746 0.509-1.224z"></path>
<path d="M10.617 5.419c0.149 0.362 0.499 0.58 0.867 0.58 0.119 0 0.24-0.023 0.357-0.071 0.479-0.198 0.706-0.746 0.509-1.224l-1.232-2.983c-0.198-0.479-0.746-0.706-1.224-0.509s-0.706 0.746-0.509 1.224l1.232 2.983z"></path>
<path d="M17.15 28.582l-0.212 0.212v-4.158c4.351-0.469 7.75-4.163 7.75-8.637 0-4.79-3.897-8.688-8.688-8.688s-8.688 3.897-8.688 8.688c0 4.474 3.399 8.168 7.75 8.637v4.213l-0.289-0.281c-0.371-0.361-0.965-0.352-1.326 0.019s-0.352 0.965 0.019 1.326l1.875 1.822c0.182 0.177 0.418 0.265 0.653 0.265 0.24 0 0.48-0.092 0.663-0.275l1.817-1.817c0.366-0.366 0.366-0.96 0-1.326s-0.96-0.366-1.326-0zM9.187 16c0-3.756 3.056-6.813 6.813-6.813s6.813 3.056 6.813 6.813c0 3.438-2.561 6.289-5.875 6.748v-2.225c0-0.518-0.42-0.938-0.938-0.938s-0.938 0.42-0.938 0.938v2.225c-3.314-0.458-5.875-3.309-5.875-6.748z"></path>
</symbol>
<symbol id="icon-Group" viewBox="0 0 41 32">
<path fill="#eee1dc" style="fill: var(--color1, #eee1dc)" d="M34.855 22.43c-4.3 0-14.279-3.141-18.704-7.058-1.632-1.444-2.46-2.932-2.46-4.422 0-3.306 2.69-5.995 5.995-5.995 0.567 0 1.126 0.079 1.663 0.234 0.812-2.361 3.049-4.037 5.67-4.037 2.166 0 4.147 1.178 5.202 3.014 0.169-0.014 0.339-0.022 0.51-0.022 3.306 0 5.995 2.689 5.995 5.995 0 0.389-0.037 0.773-0.11 1.149 1.749 1.077 2.865 3.013 2.865 5.112 0 1.575-0.634 3.046-1.785 4.14-1.050 0.998-2.493 1.654-4.063 1.846-0.232 0.028-0.493 0.042-0.778 0.042z"></path>
<path fill="#e0d2cd" style="fill: var(--color2, #e0d2cd)" d="M38.617 11.289c0.073-0.376 0.11-0.76 0.11-1.149 0-3.306-2.69-5.995-5.995-5.995-0.17 0-0.34 0.007-0.51 0.022-0.963-1.675-2.695-2.801-4.635-2.987v19.863c2.857 0.873 5.528 1.387 7.268 1.387 0.285 0 0.546-0.014 0.778-0.042 1.57-0.192 3.013-0.848 4.063-1.846 1.151-1.095 1.785-2.565 1.785-4.14 0-2.099-1.116-4.036-2.865-5.112z"></path>
<path fill="#fff4f4" style="fill: var(--color3, #fff4f4)" d="M17.268 30.848c-1.385 0-2.739-0.478-3.815-1.346-0.556-0.449-1.027-0.993-1.392-1.599-0.789 0.481-1.704 0.747-2.647 0.747-2.264 0-4.215-1.506-4.856-3.591-1.045-0.108-2.042-0.539-2.842-1.246-1.090-0.963-1.716-2.35-1.716-3.805 0-2.63 2.009-4.799 4.573-5.053 0.263-0.83 0.739-1.584 1.391-2.188 0.941-0.872 2.167-1.352 3.451-1.352 0.934 0 1.842 0.261 2.626 0.735 0.364-0.614 0.836-1.165 1.396-1.62 1.079-0.877 2.44-1.361 3.832-1.361s2.754 0.483 3.832 1.361c0.56 0.455 1.031 1.006 1.396 1.62 0.784-0.473 1.692-0.735 2.626-0.735 1.284 0 2.509 0.48 3.451 1.352 0.652 0.604 1.128 1.358 1.391 2.189 1.050 0.106 2.051 0.536 2.855 1.246 1.091 0.963 1.717 2.351 1.717 3.807s-0.625 2.842-1.716 3.805c-0.801 0.707-1.797 1.138-2.842 1.246-0.641 2.084-2.591 3.591-4.856 3.591-0.942 0-1.858-0.266-2.647-0.747-0.365 0.606-0.836 1.15-1.392 1.599-1.076 0.868-2.43 1.346-3.815 1.346z"></path>
<path fill="#f6efea" style="fill: var(--color4, #f6efea)" d="M32.818 16.201c-0.804-0.71-1.805-1.14-2.855-1.246-0.263-0.831-0.739-1.585-1.391-2.189-0.941-0.872-2.167-1.352-3.45-1.352-0.934 0-1.842 0.261-2.626 0.735-0.364-0.614-0.836-1.165-1.396-1.62-1.079-0.877-2.44-1.361-3.832-1.361v21.68c1.384 0 2.739-0.478 3.815-1.346 0.556-0.449 1.027-0.993 1.392-1.599 0.789 0.481 1.704 0.747 2.647 0.747 2.264 0 4.215-1.506 4.856-3.591 1.045-0.108 2.042-0.539 2.842-1.246 1.090-0.963 1.716-2.35 1.716-3.805 0-1.456-0.626-2.844-1.717-3.807z"></path>
</symbol>
</defs>
</svg>
