<svg aria-hidden="true" style="position: absolute; width: 0; height: 0; overflow: hidden;" version="1.1" xmlns="http://www.w3.org/2000/svg" xmlns:xlink="http://www.w3.org/1999/xlink">
<defs>
<symbol id="icon-01d" viewBox="0 0 32 32">
<path fill="#f0c419" style="fill: var(--color1, #f0c419)" d="M16 0c-0.294 0-0.533 0.239-0.533 0.533v3.2c0 0.294 0.239 0.533 0.533 0.533s0.533-0.239 0.533-0.533v-3.2c0-0.294-0.239-0.533-0.533-0.533z"></path>
<path fill="#f0c419" style="fill: var(--color1, #f0c419)" d="M16 27.733c-0.294 0-0.533 0.239-0.533 0.533v3.2c0 0.294 0.239 0.533 0.533 0.533s0.533-0.239 0.533-0.533v-3.2c0-0.294-0.239-0.533-0.533-0.533z"></path>
<path fill="#f0c419" style="fill: var(--color1, #f0c419)" d="M31.467 15.467h-3.2c-0.294 0-0.533 0.239-0.533 0.533s0.239 0.533 0.533 0.533h3.2c0.294 0 0.533-0.239 0.533-0.533s-0.239-0.533-0.533-0.533z"></path>
<path fill="#f0c419" style="fill: var(--color1, #f0c419)" d="M4.267 16c0-0.294-0.239-0.533-0.533-0.533h-3.2c-0.294 0-0.533 0.239-0.533 0.533s0.239 0.533 0.533 0.533h3.2c0.294 0 0.533-0.239 0.533-0.533z"></path>
<path fill="#f0c419" style="fill: var(--color1, #f0c419)" d="M24.674 7.859c0.137 0 0.273-0.052 0.377-0.156l3.059-3.059c0.209-0.209 0.209-0.546 0-0.754s-0.546-0.209-0.754 0l-3.059 3.059c-0.209 0.209-0.209 0.546 0 0.754 0.104 0.105 0.241 0.156 0.377 0.156z"></path>
<path fill="#f0c419" style="fill: var(--color1, #f0c419)" d="M6.949 24.297l-3.059 3.059c-0.209 0.209-0.209 0.546 0 0.754 0.104 0.104 0.241 0.156 0.377 0.156s0.273-0.052 0.377-0.156l3.059-3.059c0.209-0.209 0.209-0.546 0-0.754s-0.546-0.209-0.754 0z"></path>
<path fill="#f0c419" style="fill: var(--color1, #f0c419)" d="M25.051 24.297c-0.209-0.209-0.546-0.209-0.754 0s-0.209 0.546 0 0.754l3.059 3.059c0.104 0.104 0.241 0.156 0.377 0.156s0.273-0.052 0.377-0.156c0.209-0.209 0.209-0.546 0-0.754l-3.059-3.059z"></path>
<path fill="#f0c419" style="fill: var(--color1, #f0c419)" d="M4.644 3.89c-0.209-0.209-0.546-0.209-0.754 0s-0.209 0.546 0 0.754l3.059 3.059c0.104 0.104 0.241 0.156 0.377 0.156s0.273-0.052 0.377-0.156c0.209-0.209 0.209-0.546 0-0.754l-3.059-3.059z"></path>
<path fill="#f0c419" style="fill: var(--color1, #f0c419)" d="M26.801 11.415c0.086 0.203 0.284 0.325 0.491 0.325 0.069 0 0.14-0.014 0.208-0.043l1.473-0.625c0.271-0.115 0.398-0.428 0.283-0.699s-0.429-0.398-0.699-0.283l-1.473 0.625c-0.271 0.115-0.398 0.428-0.283 0.699z"></path>
<path fill="#f0c419" style="fill: var(--color1, #f0c419)" d="M5.199 20.585c-0.115-0.271-0.428-0.398-0.699-0.283l-1.473 0.625c-0.271 0.115-0.398 0.428-0.283 0.699 0.086 0.203 0.284 0.325 0.491 0.325 0.069 0 0.14-0.014 0.208-0.043l1.473-0.625c0.271-0.115 0.398-0.428 0.283-0.699z"></path>
<path fill="#f0c419" style="fill: var(--color1, #f0c419)" d="M29.057 20.7l-1.483-0.6c-0.273-0.11-0.584 0.022-0.694 0.295s0.022 0.584 0.295 0.694l1.484 0.599c0.066 0.026 0.133 0.039 0.199 0.039 0.211 0 0.411-0.126 0.495-0.334 0.11-0.273-0.022-0.583-0.295-0.694z"></path>
<path fill="#f0c419" style="fill: var(--color1, #f0c419)" d="M2.943 11.3l1.483 0.599c0.066 0.026 0.133 0.039 0.199 0.039 0.211 0 0.411-0.126 0.495-0.334 0.11-0.273-0.022-0.584-0.295-0.694l-1.484-0.599c-0.274-0.11-0.584 0.021-0.694 0.295-0.11 0.273 0.022 0.583 0.295 0.694z"></path>
<path fill="#f0c419" style="fill: var(--color1, #f0c419)" d="M21.284 27.083c-0.115-0.271-0.428-0.397-0.699-0.283s-0.398 0.428-0.283 0.699l0.625 1.473c0.086 0.203 0.284 0.325 0.491 0.325 0.069 0 0.14-0.014 0.208-0.043 0.271-0.115 0.398-0.428 0.283-0.699l-0.625-1.473z"></path>
<path fill="#f0c419" style="fill: var(--color1, #f0c419)" d="M11.207 5.242c0.069 0 0.14-0.014 0.208-0.043 0.271-0.115 0.398-0.428 0.283-0.699l-0.625-1.473c-0.115-0.271-0.428-0.398-0.699-0.283s-0.398 0.428-0.283 0.699l0.625 1.473c0.086 0.203 0.284 0.325 0.491 0.325z"></path>
<path fill="#f0c419" style="fill: var(--color1, #f0c419)" d="M11.605 26.879c-0.273-0.109-0.584 0.021-0.694 0.295l-0.599 1.484c-0.11 0.273 0.022 0.584 0.295 0.694 0.066 0.026 0.133 0.039 0.199 0.039 0.211 0 0.411-0.126 0.495-0.334l0.599-1.484c0.11-0.273-0.022-0.584-0.295-0.694z"></path>
<path fill="#f0c419" style="fill: var(--color1, #f0c419)" d="M20.595 5.16c0.211 0 0.411-0.126 0.495-0.334l0.599-1.484c0.11-0.273-0.022-0.584-0.295-0.694s-0.584 0.022-0.694 0.295l-0.599 1.484c-0.11 0.273 0.022 0.584 0.295 0.694 0.066 0.026 0.133 0.039 0.199 0.039z"></path>
<path fill="#f0c419" style="fill: var(--color1, #f0c419)" d="M26.667 16c0 5.891-4.776 10.667-10.667 10.667s-10.667-4.776-10.667-10.667c0-5.891 4.776-10.667 10.667-10.667s10.667 4.776 10.667 10.667z"></path>
<path fill="#ede21b" style="fill: var(--color2, #ede21b)" d="M24 16c0 4.418-3.582 8-8 8s-8-3.582-8-8c0-4.418 3.582-8 8-8s8 3.582 8 8z"></path>
</symbol>
<symbol id="icon-01n" viewBox="0 0 32 32">
<path fill="#bdc3c7" style="fill: var(--color3, #bdc3c7)" d="M31.459 19.534c-8.041 4.027-17.823 0.772-21.85-7.269-1.864-3.723-2.165-7.818-1.155-11.544-7.642 4.188-10.662 13.704-6.728 21.561 4.027 8.041 13.809 11.295 21.85 7.269 4.318-2.162 7.253-5.985 8.424-10.305-0.179 0.098-0.358 0.197-0.541 0.288z"></path>
</symbol>
<symbol id="icon-02d" viewBox="0 0 32 32">
<path fill="#f0c419" style="fill: var(--color1, #f0c419)" d="M3.265 12.66c0-0.294-0.238-0.532-0.532-0.532h-2.201c-0.294 0-0.532 0.238-0.532 0.532s0.238 0.532 0.532 0.532h2.201c0.294 0 0.532-0.238 0.532-0.532z"></path>
<path fill="#f0c419" style="fill: var(--color1, #f0c419)" d="M11.167 1.493c-0.294 0-0.532 0.238-0.532 0.532v2.2c0 0.294 0.238 0.532 0.532 0.532s0.532-0.238 0.532-0.532v-2.2c0-0.294-0.238-0.532-0.532-0.532z"></path>
<path fill="#f0c419" style="fill: var(--color1, #f0c419)" d="M3.475 4.215c-0.208-0.208-0.544-0.208-0.752 0s-0.208 0.544 0 0.752l2.104 2.104c0.104 0.104 0.24 0.156 0.376 0.156s0.272-0.052 0.376-0.156c0.208-0.208 0.208-0.544 0-0.752l-2.104-2.104z"></path>
<path fill="#f0c419" style="fill: var(--color1, #f0c419)" d="M19.612 4.215c-0.208-0.208-0.544-0.208-0.752 0l-2.104 2.104c-0.208 0.208-0.208 0.544 0 0.752 0.104 0.104 0.24 0.156 0.376 0.156s0.272-0.052 0.376-0.156l2.104-2.104c0.208-0.207 0.208-0.544 0-0.752z"></path>
<path fill="#f0c419" style="fill: var(--color1, #f0c419)" d="M7.931 3.675c-0.115-0.271-0.43-0.396-0.698-0.282-0.271 0.115-0.397 0.427-0.282 0.697l0.43 1.013c0.086 0.203 0.283 0.324 0.49 0.324 0.070 0 0.14-0.014 0.208-0.043 0.271-0.115 0.397-0.427 0.282-0.697l-0.43-1.013z"></path>
<path fill="#f0c419" style="fill: var(--color1, #f0c419)" d="M14.939 3.326c-0.273-0.109-0.582 0.022-0.692 0.294l-0.412 1.020c-0.11 0.272 0.021 0.582 0.294 0.692 0.065 0.026 0.133 0.039 0.199 0.039 0.211 0 0.409-0.125 0.493-0.333l0.412-1.020c0.11-0.272-0.022-0.582-0.294-0.692z"></path>
<path fill="#f0c419" style="fill: var(--color1, #f0c419)" d="M3.195 15.466l-1.012 0.43c-0.271 0.115-0.397 0.427-0.282 0.697 0.086 0.203 0.283 0.324 0.49 0.324 0.070 0 0.14-0.014 0.208-0.043l1.012-0.43c0.271-0.115 0.397-0.427 0.282-0.697s-0.43-0.396-0.698-0.282z"></path>
<path fill="#f0c419" style="fill: var(--color1, #f0c419)" d="M2.127 9.581l1.020 0.412c0.065 0.026 0.133 0.039 0.199 0.039 0.211 0 0.409-0.126 0.493-0.332 0.11-0.272-0.021-0.582-0.294-0.692l-1.020-0.413c-0.272-0.109-0.582 0.022-0.692 0.294-0.11 0.273 0.021 0.583 0.294 0.693z"></path>
<path fill="#ede21b" style="fill: var(--color2, #ede21b)" d="M6.81 18.546c0.382 0.042 0.754 0.119 1.11 0.233-0.237-1.078 0.002-2.25 0.758-3.168 0.995-1.209 2.594-1.629 4.001-1.183l0.006 0.002c0.434-1.093 1.375-1.964 2.607-2.254 0.438-0.103 0.875-0.12 1.298-0.069-0.004-0.082-0.012-0.163-0.012-0.247 0-1.097 0.321-2.118 0.868-2.981-1.285-2.128-3.611-3.556-6.278-3.556-4.051 0-7.335 3.284-7.335 7.335 0 2.416 1.174 4.551 2.977 5.886z"></path>
<path fill="#d0e8f9" style="fill: var(--color4, #d0e8f9)" d="M31.987 15.618h-0.043c0.019 0.162 0.031 0.325 0.031 0.492 0 0.294-0.238 0.532-0.532 0.532s-0.532-0.238-0.532-0.532c0-1.76-1.431-3.191-3.191-3.191s-3.191 1.431-3.191 3.191c0 0.294-0.238 0.532-0.532 0.532s-0.532-0.238-0.532-0.532c0-2.161 1.621-3.947 3.711-4.215-0.12-2.68-2.331-4.825-5.040-4.825-2.718 0-4.935 2.159-5.042 4.851 0.441 0.104 0.868 0.277 1.265 0.522 0.966 0.598 1.641 1.537 1.902 2.643 0.067 0.286-0.11 0.572-0.396 0.64-0.286 0.064-0.572-0.11-0.64-0.396-0.403-1.713-2.127-2.779-3.836-2.375-1.713 0.403-2.779 2.124-2.375 3.837 0.067 0.286-0.11 0.572-0.396 0.639-0.040 0.010-0.081 0.014-0.122 0.014-0.241 0-0.459-0.165-0.517-0.41-0.156-0.665-0.143-1.331 0.006-1.954-1.094-0.16-2.2 0.253-2.921 1.128-0.669 0.813-0.864 1.86-0.625 2.81 0.001 0.006 0.004 0.012 0.004 0.018 0.163 0.631 0.516 1.218 1.056 1.663 0.227 0.187 0.259 0.522 0.073 0.749-0.105 0.128-0.257 0.194-0.411 0.194-0.119 0-0.238-0.039-0.338-0.121-0.647-0.533-1.11-1.229-1.354-2.011-2.15-0.561-4.411 0.344-5.578 2.266-0.7 1.153-0.91 2.51-0.59 3.821s1.131 2.419 2.284 3.12c0.251 0.153 0.331 0.479 0.178 0.731-0.1 0.165-0.275 0.255-0.455 0.255-0.071 0-0.141-0.019-0.208-0.048 0.84 0.498 1.807 0.802 2.842 0.847l4.365 0.002c2.822-0.045 5.24-1.787 6.27-4.25 1.044 2.496 3.511 4.254 6.381 4.254 4.985 0 9.040-4.055 9.040-9.040v-5.318l-0.013-0.532z"></path>
<path fill="#abcadd" style="fill: var(--color5, #abcadd)" d="M28.241 11.93c-0.123-3.265-2.81-5.885-6.104-5.885-3.266 0-5.935 2.576-6.099 5.802-0.297 0.006-0.595 0.041-0.891 0.111-1.242 0.292-2.225 1.107-2.781 2.155-1.533-0.311-3.11 0.23-4.121 1.458-0.665 0.808-0.999 1.812-0.963 2.85-2.462-0.444-4.967 0.651-6.298 2.842-0.849 1.396-1.102 3.039-0.715 4.625s1.369 2.928 2.765 3.777c0.086 0.053 0.182 0.078 0.276 0.078 0.18 0 0.355-0.091 0.455-0.255 0.153-0.252 0.073-0.578-0.178-0.731-1.153-0.701-1.964-1.809-2.284-3.12s-0.11-2.668 0.59-3.821c1.168-1.922 3.428-2.826 5.578-2.266 0.244 0.782 0.707 1.478 1.354 2.011 0.099 0.081 0.219 0.121 0.338 0.121 0.154 0 0.306-0.066 0.411-0.194 0.187-0.227 0.154-0.562-0.073-0.749-0.54-0.445-0.893-1.032-1.056-1.663-0.001-0.006-0.004-0.012-0.004-0.018-0.239-0.95-0.044-1.997 0.625-2.81 0.721-0.875 1.827-1.288 2.921-1.128-0.149 0.624-0.163 1.288-0.006 1.954 0.057 0.245 0.277 0.41 0.517 0.41 0.040 0 0.081-0.005 0.122-0.014 0.286-0.068 0.463-0.354 0.396-0.639-0.403-1.713 0.663-3.434 2.375-3.837 1.71-0.404 3.433 0.662 3.836 2.375 0.068 0.286 0.354 0.46 0.64 0.396 0.286-0.068 0.463-0.354 0.396-0.64-0.261-1.106-0.936-2.045-1.902-2.643-0.397-0.246-0.824-0.417-1.265-0.522 0.106-2.692 2.324-4.851 5.042-4.851 2.709 0 4.921 2.145 5.040 4.825-2.089 0.268-3.711 2.054-3.711 4.215 0 0.294 0.238 0.532 0.532 0.532s0.532-0.238 0.532-0.532c0-1.76 1.431-3.191 3.191-3.191s3.215 1.431 3.215 3.191c0 0.015 0 0.706 0 1.595 0 0.294 0.238 0.532 0.532 0.532s0.532-0.238 0.532-0.532v-1.595c-0.001-2.169-1.658-3.961-3.759-4.219z"></path>
<path fill="#abcadd" style="fill: var(--color5, #abcadd)" d="M22.96 30.507c-2.645 0-5.047-1.387-6.381-3.61-1.334 2.223-3.737 3.61-6.381 3.61-0.294 0-0.532-0.238-0.532-0.532s0.238-0.532 0.532-0.532c2.581 0 4.893-1.542 5.891-3.928l0.49-1.173 0.49 1.173c0.998 2.386 3.31 3.928 5.891 3.928 0.294 0 0.532 0.238 0.532 0.532s-0.238 0.532-0.532 0.532z"></path>
<path fill="#abcadd" style="fill: var(--color5, #abcadd)" d="M29.286 22.996c-0.244-2.116-2.044-3.766-4.224-3.766-2.346 0-4.254 1.909-4.254 4.254 0 0.294 0.238 0.532 0.532 0.532s0.532-0.238 0.532-0.532c0-1.76 1.431-3.191 3.191-3.191 1.597 0 2.919 1.18 3.151 2.713-1.487 0.271-2.619 1.572-2.619 3.136 0 0.294 0.238 0.532 0.532 0.532s0.532-0.238 0.532-0.532c0-1.173 0.954-2.127 2.127-2.127s2.127 0.954 2.127 2.127c0 0.294 0.238 0.532 0.532 0.532s0.532-0.238 0.532-0.532c0-1.588-1.168-2.905-2.689-3.147z"></path>
</symbol>
<symbol id="icon-02n" viewBox="0 0 32 32">
<path fill="#fbd490" style="fill: var(--color6, #fbd490)" d="M6.029 16.76c0.599 0 1.176 0.097 1.718 0.271-0.238-1.081 0.002-2.256 0.76-3.177 0.998-1.212 2.601-1.634 4.012-1.186l0.006 0.002c0.435-1.096 1.379-1.97 2.614-2.26 0.439-0.103 0.878-0.12 1.302-0.069-0.004-0.083-0.012-0.164-0.012-0.247 0-1.29 0.44-2.473 1.172-3.42-1.638-1.803-3.932-2.999-6.507-3.206-0.022 4.694-3.832 8.492-8.531 8.492-0.688 0-1.354-0.090-1.996-0.244-0.083 0.515-0.138 1.039-0.138 1.578 0 1.928 0.562 3.721 1.518 5.241 1.021-1.090 2.469-1.774 4.081-1.774z"></path>
<path fill="#d0e8f9" style="fill: var(--color4, #d0e8f9)" d="M31.987 13.6h-0.043c0.019 0.162 0.031 0.326 0.031 0.493 0 0.295-0.238 0.533-0.533 0.533s-0.533-0.238-0.533-0.533c0-1.765-1.435-3.2-3.2-3.2s-3.2 1.435-3.2 3.2c0 0.295-0.238 0.533-0.533 0.533s-0.533-0.238-0.533-0.533c0-2.167 1.626-3.959 3.721-4.228-0.121-2.687-2.338-4.839-5.055-4.839-2.726 0-4.95 2.165-5.056 4.865 0.442 0.105 0.87 0.277 1.268 0.523 0.968 0.6 1.646 1.541 1.907 2.651 0.067 0.287-0.11 0.574-0.397 0.642-0.287 0.065-0.574-0.11-0.642-0.397-0.404-1.718-2.133-2.787-3.847-2.382-1.718 0.404-2.787 2.13-2.382 3.848 0.067 0.286-0.11 0.573-0.397 0.641-0.041 0.010-0.082 0.014-0.122 0.014-0.242 0-0.461-0.166-0.519-0.411-0.157-0.667-0.143-1.334 0.006-1.959-1.098-0.161-2.206 0.254-2.929 1.132-0.671 0.815-0.867 1.865-0.627 2.819 0.001 0.006 0.004 0.012 0.004 0.018 0.163 0.633 0.517 1.221 1.059 1.668 0.227 0.188 0.26 0.523 0.073 0.751-0.106 0.128-0.258 0.194-0.412 0.194-0.119 0-0.239-0.039-0.339-0.122-0.649-0.534-1.114-1.232-1.358-2.016-2.156-0.562-4.423 0.345-5.594 2.273-0.702 1.156-0.913 2.517-0.592 3.832s1.134 2.426 2.291 3.129c0.252 0.153 0.332 0.48 0.179 0.733-0.1 0.165-0.276 0.256-0.456 0.256-0.071 0-0.141-0.019-0.209-0.049 0.843 0.499 1.813 0.805 2.85 0.85l4.378 0.002c2.83-0.045 5.255-1.792 6.288-4.262 1.047 2.503 3.521 4.266 6.4 4.266 4.999 0 9.066-4.067 9.066-9.066v-5.333l-0.013-0.534z"></path>
<path fill="#abcadd" style="fill: var(--color5, #abcadd)" d="M28.231 9.902c-0.123-3.274-2.818-5.902-6.121-5.902-3.276 0-5.952 2.583-6.117 5.818-0.298 0.006-0.597 0.042-0.894 0.111-1.246 0.293-2.232 1.11-2.789 2.161-1.537-0.312-3.119 0.231-4.133 1.462-0.667 0.811-1.002 1.818-0.965 2.858-2.469-0.445-4.981 0.653-6.316 2.85-0.851 1.4-1.106 3.047-0.717 4.639s1.373 2.936 2.773 3.788c0.086 0.053 0.182 0.078 0.277 0.078 0.18 0 0.356-0.091 0.456-0.256 0.153-0.252 0.073-0.58-0.179-0.733-1.157-0.703-1.97-1.814-2.291-3.129s-0.11-2.676 0.592-3.832c1.171-1.927 3.438-2.835 5.594-2.273 0.244 0.785 0.709 1.482 1.358 2.016 0.1 0.082 0.219 0.122 0.339 0.122 0.154 0 0.307-0.066 0.412-0.194 0.187-0.228 0.154-0.564-0.073-0.751-0.542-0.446-0.895-1.035-1.059-1.668-0.001-0.006-0.004-0.012-0.004-0.018-0.24-0.953-0.044-2.003 0.627-2.819 0.723-0.878 1.832-1.292 2.929-1.132-0.149 0.626-0.164 1.292-0.006 1.959 0.058 0.246 0.277 0.411 0.519 0.411 0.041 0 0.082-0.005 0.122-0.014 0.287-0.068 0.464-0.355 0.397-0.641-0.404-1.718 0.665-3.444 2.382-3.848 1.715-0.405 3.443 0.664 3.847 2.382 0.068 0.286 0.355 0.461 0.642 0.397 0.286-0.068 0.464-0.355 0.397-0.642-0.261-1.109-0.939-2.051-1.907-2.651-0.398-0.246-0.826-0.419-1.268-0.523 0.107-2.7 2.331-4.865 5.056-4.865 2.717 0 4.935 2.151 5.055 4.839-2.095 0.269-3.721 2.060-3.721 4.228 0 0.295 0.238 0.533 0.533 0.533s0.533-0.238 0.533-0.533c0-1.765 1.435-3.2 3.2-3.2s3.224 1.435 3.224 3.2c0 0.015 0 0.708 0 1.6 0 0.294 0.239 0.533 0.533 0.533s0.533-0.239 0.533-0.533v-1.6c-0.001-2.175-1.663-3.973-3.77-4.231z"></path>
<path fill="#abcadd" style="fill: var(--color5, #abcadd)" d="M22.934 28.533c-2.652 0-5.062-1.391-6.4-3.621-1.338 2.23-3.748 3.621-6.4 3.621-0.294 0-0.533-0.238-0.533-0.533s0.239-0.533 0.533-0.533c2.588 0 4.907-1.546 5.908-3.939l0.492-1.176 0.492 1.176c1 2.392 3.32 3.939 5.908 3.939 0.294 0 0.533 0.238 0.533 0.533s-0.238 0.533-0.533 0.533z"></path>
<path fill="#abcadd" style="fill: var(--color5, #abcadd)" d="M29.279 20.999c-0.244-2.122-2.049-3.777-4.236-3.777-2.352 0-4.266 1.914-4.266 4.266 0 0.294 0.239 0.533 0.533 0.533s0.533-0.239 0.533-0.533c0-1.765 1.435-3.2 3.2-3.2 1.602 0 2.928 1.183 3.16 2.721-1.492 0.271-2.627 1.577-2.627 3.145 0 0.294 0.239 0.533 0.533 0.533s0.533-0.239 0.533-0.533c0-1.176 0.957-2.133 2.133-2.133s2.133 0.957 2.133 2.133c0 0.294 0.239 0.533 0.533 0.533s0.533-0.239 0.533-0.533c0-1.592-1.171-2.913-2.697-3.156z"></path>
</symbol>
<symbol id="icon-03d" viewBox="0 0 32 32">
<path fill="#d0e8f9" style="fill: var(--color4, #d0e8f9)" d="M31.987 15.618h-0.043c0.019 0.162 0.031 0.325 0.031 0.492 0 0.294-0.238 0.532-0.532 0.532s-0.532-0.238-0.532-0.532c0-1.76-1.431-3.191-3.191-3.191s-3.191 1.431-3.191 3.191c0 0.294-0.238 0.532-0.532 0.532s-0.532-0.238-0.532-0.532c0-2.161 1.621-3.947 3.711-4.215-0.12-2.68-2.331-4.825-5.040-4.825-2.718 0-4.935 2.159-5.042 4.851 0.441 0.104 0.868 0.277 1.265 0.522 0.966 0.598 1.641 1.537 1.902 2.643 0.067 0.286-0.11 0.572-0.396 0.64-0.286 0.064-0.572-0.11-0.64-0.396-0.403-1.713-2.127-2.779-3.836-2.375-1.713 0.403-2.779 2.124-2.375 3.837 0.067 0.286-0.11 0.572-0.396 0.639-0.040 0.010-0.081 0.014-0.122 0.014-0.241 0-0.459-0.165-0.517-0.41-0.156-0.665-0.143-1.331 0.006-1.954-1.094-0.16-2.2 0.253-2.921 1.128-0.669 0.813-0.864 1.86-0.625 2.81 0.001 0.006 0.004 0.012 0.004 0.018 0.163 0.631 0.516 1.218 1.056 1.663 0.227 0.187 0.259 0.522 0.073 0.749-0.105 0.128-0.257 0.194-0.411 0.194-0.119 0-0.238-0.039-0.338-0.121-0.647-0.533-1.11-1.229-1.354-2.011-2.15-0.561-4.411 0.344-5.578 2.266-0.7 1.153-0.91 2.51-0.59 3.821s1.131 2.419 2.284 3.12c0.251 0.153 0.331 0.479 0.178 0.731-0.1 0.165-0.275 0.255-0.455 0.255-0.071 0-0.141-0.019-0.208-0.048 0.84 0.498 1.807 0.802 2.842 0.847l4.365 0.002c2.822-0.045 5.24-1.787 6.27-4.25 1.044 2.496 3.511 4.254 6.381 4.254 4.985 0 9.040-4.055 9.040-9.040v-5.318l-0.013-0.532z"></path>
<path fill="#abcadd" style="fill: var(--color5, #abcadd)" d="M28.241 11.93c-0.123-3.265-2.81-5.885-6.104-5.885-3.266 0-5.935 2.576-6.099 5.802-0.297 0.006-0.595 0.041-0.891 0.111-1.242 0.292-2.225 1.107-2.781 2.155-1.533-0.311-3.11 0.23-4.121 1.458-0.665 0.808-0.999 1.812-0.963 2.85-2.462-0.444-4.967 0.651-6.298 2.842-0.849 1.396-1.102 3.039-0.715 4.625s1.369 2.928 2.765 3.777c0.086 0.053 0.182 0.078 0.276 0.078 0.18 0 0.355-0.091 0.455-0.255 0.153-0.252 0.073-0.578-0.178-0.731-1.153-0.701-1.964-1.809-2.284-3.12s-0.11-2.668 0.59-3.821c1.168-1.922 3.428-2.826 5.578-2.266 0.244 0.782 0.707 1.478 1.354 2.011 0.099 0.081 0.219 0.121 0.338 0.121 0.154 0 0.306-0.066 0.411-0.194 0.187-0.227 0.154-0.562-0.073-0.749-0.54-0.445-0.893-1.032-1.056-1.663-0.001-0.006-0.004-0.012-0.004-0.018-0.239-0.95-0.044-1.997 0.625-2.81 0.721-0.875 1.827-1.288 2.921-1.128-0.149 0.624-0.163 1.288-0.006 1.954 0.057 0.245 0.277 0.41 0.517 0.41 0.040 0 0.081-0.005 0.122-0.014 0.286-0.068 0.463-0.354 0.396-0.639-0.403-1.713 0.663-3.434 2.375-3.837 1.71-0.404 3.433 0.662 3.836 2.375 0.068 0.286 0.354 0.46 0.64 0.396 0.286-0.068 0.463-0.354 0.396-0.64-0.261-1.106-0.936-2.045-1.902-2.643-0.397-0.246-0.824-0.417-1.265-0.522 0.106-2.692 2.324-4.851 5.042-4.851 2.709 0 4.921 2.145 5.040 4.825-2.089 0.268-3.711 2.054-3.711 4.215 0 0.294 0.238 0.532 0.532 0.532s0.532-0.238 0.532-0.532c0-1.76 1.431-3.191 3.191-3.191s3.215 1.431 3.215 3.191c0 0.015 0 0.706 0 1.595 0 0.294 0.238 0.532 0.532 0.532s0.532-0.238 0.532-0.532v-1.595c-0.001-2.169-1.658-3.961-3.759-4.219z"></path>
<path fill="#abcadd" style="fill: var(--color5, #abcadd)" d="M22.96 30.507c-2.645 0-5.047-1.387-6.381-3.61-1.334 2.223-3.737 3.61-6.381 3.61-0.294 0-0.532-0.238-0.532-0.532s0.238-0.532 0.532-0.532c2.581 0 4.893-1.542 5.891-3.928l0.49-1.173 0.49 1.173c0.998 2.386 3.31 3.928 5.891 3.928 0.294 0 0.532 0.238 0.532 0.532s-0.238 0.532-0.532 0.532z"></path>
<path fill="#abcadd" style="fill: var(--color5, #abcadd)" d="M29.286 22.996c-0.244-2.116-2.044-3.766-4.224-3.766-2.346 0-4.254 1.909-4.254 4.254 0 0.294 0.238 0.532 0.532 0.532s0.532-0.238 0.532-0.532c0-1.76 1.431-3.191 3.191-3.191 1.597 0 2.919 1.18 3.151 2.713-1.487 0.271-2.619 1.572-2.619 3.136 0 0.294 0.238 0.532 0.532 0.532s0.532-0.238 0.532-0.532c0-1.173 0.954-2.127 2.127-2.127s2.127 0.954 2.127 2.127c0 0.294 0.238 0.532 0.532 0.532s0.532-0.238 0.532-0.532c0-1.588-1.168-2.905-2.689-3.147z"></path>
</symbol>
<symbol id="icon-03n" viewBox="0 0 32 32">
<path fill="#d0e8f9" style="fill: var(--color4, #d0e8f9)" d="M31.987 15.618h-0.043c0.019 0.162 0.031 0.325 0.031 0.492 0 0.294-0.238 0.532-0.532 0.532s-0.532-0.238-0.532-0.532c0-1.76-1.431-3.191-3.191-3.191s-3.191 1.431-3.191 3.191c0 0.294-0.238 0.532-0.532 0.532s-0.532-0.238-0.532-0.532c0-2.161 1.621-3.947 3.711-4.215-0.12-2.68-2.331-4.825-5.040-4.825-2.718 0-4.935 2.159-5.042 4.851 0.441 0.104 0.868 0.277 1.265 0.522 0.966 0.598 1.641 1.537 1.902 2.643 0.067 0.286-0.11 0.572-0.396 0.64-0.286 0.064-0.572-0.11-0.64-0.396-0.403-1.713-2.127-2.779-3.836-2.375-1.713 0.403-2.779 2.124-2.375 3.837 0.067 0.286-0.11 0.572-0.396 0.639-0.040 0.010-0.081 0.014-0.122 0.014-0.241 0-0.459-0.165-0.517-0.41-0.156-0.665-0.143-1.331 0.006-1.954-1.094-0.16-2.2 0.253-2.921 1.128-0.669 0.813-0.864 1.86-0.625 2.81 0.001 0.006 0.004 0.012 0.004 0.018 0.163 0.631 0.516 1.218 1.056 1.663 0.227 0.187 0.259 0.522 0.073 0.749-0.105 0.128-0.257 0.194-0.411 0.194-0.119 0-0.238-0.039-0.338-0.121-0.647-0.533-1.11-1.229-1.354-2.011-2.15-0.561-4.411 0.344-5.578 2.266-0.7 1.153-0.91 2.51-0.59 3.821s1.131 2.419 2.284 3.12c0.251 0.153 0.331 0.479 0.178 0.731-0.1 0.165-0.275 0.255-0.455 0.255-0.071 0-0.141-0.019-0.208-0.048 0.84 0.498 1.807 0.802 2.842 0.847l4.365 0.002c2.822-0.045 5.24-1.787 6.27-4.25 1.044 2.496 3.511 4.254 6.381 4.254 4.985 0 9.040-4.055 9.040-9.040v-5.318l-0.013-0.532z"></path>
<path fill="#abcadd" style="fill: var(--color5, #abcadd)" d="M28.241 11.93c-0.123-3.265-2.81-5.885-6.104-5.885-3.266 0-5.935 2.576-6.099 5.802-0.297 0.006-0.595 0.041-0.891 0.111-1.242 0.292-2.225 1.107-2.781 2.155-1.533-0.311-3.11 0.23-4.121 1.458-0.665 0.808-0.999 1.812-0.963 2.85-2.462-0.444-4.967 0.651-6.298 2.842-0.849 1.396-1.102 3.039-0.715 4.625s1.369 2.928 2.765 3.777c0.086 0.053 0.182 0.078 0.276 0.078 0.18 0 0.355-0.091 0.455-0.255 0.153-0.252 0.073-0.578-0.178-0.731-1.153-0.701-1.964-1.809-2.284-3.12s-0.11-2.668 0.59-3.821c1.168-1.922 3.428-2.826 5.578-2.266 0.244 0.782 0.707 1.478 1.354 2.011 0.099 0.081 0.219 0.121 0.338 0.121 0.154 0 0.306-0.066 0.411-0.194 0.187-0.227 0.154-0.562-0.073-0.749-0.54-0.445-0.893-1.032-1.056-1.663-0.001-0.006-0.004-0.012-0.004-0.018-0.239-0.95-0.044-1.997 0.625-2.81 0.721-0.875 1.827-1.288 2.921-1.128-0.149 0.624-0.163 1.288-0.006 1.954 0.057 0.245 0.277 0.41 0.517 0.41 0.040 0 0.081-0.005 0.122-0.014 0.286-0.068 0.463-0.354 0.396-0.639-0.403-1.713 0.663-3.434 2.375-3.837 1.71-0.404 3.433 0.662 3.836 2.375 0.068 0.286 0.354 0.46 0.64 0.396 0.286-0.068 0.463-0.354 0.396-0.64-0.261-1.106-0.936-2.045-1.902-2.643-0.397-0.246-0.824-0.417-1.265-0.522 0.106-2.692 2.324-4.851 5.042-4.851 2.709 0 4.921 2.145 5.040 4.825-2.089 0.268-3.711 2.054-3.711 4.215 0 0.294 0.238 0.532 0.532 0.532s0.532-0.238 0.532-0.532c0-1.76 1.431-3.191 3.191-3.191s3.215 1.431 3.215 3.191c0 0.015 0 0.706 0 1.595 0 0.294 0.238 0.532 0.532 0.532s0.532-0.238 0.532-0.532v-1.595c-0.001-2.169-1.658-3.961-3.759-4.219z"></path>
<path fill="#abcadd" style="fill: var(--color5, #abcadd)" d="M22.96 30.507c-2.645 0-5.047-1.387-6.381-3.61-1.334 2.223-3.737 3.61-6.381 3.61-0.294 0-0.532-0.238-0.532-0.532s0.238-0.532 0.532-0.532c2.581 0 4.893-1.542 5.891-3.928l0.49-1.173 0.49 1.173c0.998 2.386 3.31 3.928 5.891 3.928 0.294 0 0.532 0.238 0.532 0.532s-0.238 0.532-0.532 0.532z"></path>
<path fill="#abcadd" style="fill: var(--color5, #abcadd)" d="M29.286 22.996c-0.244-2.116-2.044-3.766-4.224-3.766-2.346 0-4.254 1.909-4.254 4.254 0 0.294 0.238 0.532 0.532 0.532s0.532-0.238 0.532-0.532c0-1.76 1.431-3.191 3.191-3.191 1.597 0 2.919 1.18 3.151 2.713-1.487 0.271-2.619 1.572-2.619 3.136 0 0.294 0.238 0.532 0.532 0.532s0.532-0.238 0.532-0.532c0-1.173 0.954-2.127 2.127-2.127s2.127 0.954 2.127 2.127c0 0.294 0.238 0.532 0.532 0.532s0.532-0.238 0.532-0.532c0-1.588-1.168-2.905-2.689-3.147z"></path>
</symbol>
<symbol id="icon-04d" viewBox="0 0 32 32">
<path fill="#d0e8f9" style="fill: var(--color4, #d0e8f9)" d="M31.987 15.618h-0.043c0.019 0.162 0.031 0.325 0.031 0.492 0 0.294-0.238 0.532-0.532 0.532s-0.532-0.238-0.532-0.532c0-1.76-1.431-3.191-3.191-3.191s-3.191 1.431-3.191 3.191c0 0.294-0.238 0.532-0.532 0.532s-0.532-0.238-0.532-0.532c0-2.161 1.621-3.947 3.711-4.215-0.12-2.68-2.331-4.825-5.040-4.825-2.718 0-4.935 2.159-5.042 4.851 0.441 0.104 0.868 0.277 1.265 0.522 0.966 0.598 1.641 1.537 1.902 2.643 0.067 0.286-0.11 0.572-0.396 0.64-0.286 0.064-0.572-0.11-0.64-0.396-0.403-1.713-2.127-2.779-3.836-2.375-1.713 0.403-2.779 2.124-2.375 3.837 0.067 0.286-0.11 0.572-0.396 0.639-0.040 0.010-0.081 0.014-0.122 0.014-0.241 0-0.459-0.165-0.517-0.41-0.156-0.665-0.143-1.331 0.006-1.954-1.094-0.16-2.2 0.253-2.921 1.128-0.669 0.813-0.864 1.86-0.625 2.81 0.001 0.006 0.004 0.012 0.004 0.018 0.163 0.631 0.516 1.218 1.056 1.663 0.227 0.187 0.259 0.522 0.073 0.749-0.105 0.128-0.257 0.194-0.411 0.194-0.119 0-0.238-0.039-0.338-0.121-0.647-0.533-1.11-1.229-1.354-2.011-2.15-0.561-4.411 0.344-5.578 2.266-0.7 1.153-0.91 2.51-0.59 3.821s1.131 2.419 2.284 3.12c0.251 0.153 0.331 0.479 0.178 0.731-0.1 0.165-0.275 0.255-0.455 0.255-0.071 0-0.141-0.019-0.208-0.048 0.84 0.498 1.807 0.802 2.842 0.847l4.365 0.002c2.822-0.045 5.24-1.787 6.27-4.25 1.044 2.496 3.511 4.254 6.381 4.254 4.985 0 9.040-4.055 9.040-9.040v-5.318l-0.013-0.532z"></path>
<path fill="#abcadd" style="fill: var(--color5, #abcadd)" d="M28.241 11.93c-0.123-3.265-2.81-5.885-6.104-5.885-3.266 0-5.935 2.576-6.099 5.802-0.297 0.006-0.595 0.041-0.891 0.111-1.242 0.292-2.225 1.107-2.781 2.155-1.533-0.311-3.11 0.23-4.121 1.458-0.665 0.808-0.999 1.812-0.963 2.85-2.462-0.444-4.967 0.651-6.298 2.842-0.849 1.396-1.102 3.039-0.715 4.625s1.369 2.928 2.765 3.777c0.086 0.053 0.182 0.078 0.276 0.078 0.18 0 0.355-0.091 0.455-0.255 0.153-0.252 0.073-0.578-0.178-0.731-1.153-0.701-1.964-1.809-2.284-3.12s-0.11-2.668 0.59-3.821c1.168-1.922 3.428-2.826 5.578-2.266 0.244 0.782 0.707 1.478 1.354 2.011 0.099 0.081 0.219 0.121 0.338 0.121 0.154 0 0.306-0.066 0.411-0.194 0.187-0.227 0.154-0.562-0.073-0.749-0.54-0.445-0.893-1.032-1.056-1.663-0.001-0.006-0.004-0.012-0.004-0.018-0.239-0.95-0.044-1.997 0.625-2.81 0.721-0.875 1.827-1.288 2.921-1.128-0.149 0.624-0.163 1.288-0.006 1.954 0.057 0.245 0.277 0.41 0.517 0.41 0.040 0 0.081-0.005 0.122-0.014 0.286-0.068 0.463-0.354 0.396-0.639-0.403-1.713 0.663-3.434 2.375-3.837 1.71-0.404 3.433 0.662 3.836 2.375 0.068 0.286 0.354 0.46 0.64 0.396 0.286-0.068 0.463-0.354 0.396-0.64-0.261-1.106-0.936-2.045-1.902-2.643-0.397-0.246-0.824-0.417-1.265-0.522 0.106-2.692 2.324-4.851 5.042-4.851 2.709 0 4.921 2.145 5.040 4.825-2.089 0.268-3.711 2.054-3.711 4.215 0 0.294 0.238 0.532 0.532 0.532s0.532-0.238 0.532-0.532c0-1.76 1.431-3.191 3.191-3.191s3.215 1.431 3.215 3.191c0 0.015 0 0.706 0 1.595 0 0.294 0.238 0.532 0.532 0.532s0.532-0.238 0.532-0.532v-1.595c-0.001-2.169-1.658-3.961-3.759-4.219z"></path>
<path fill="#abcadd" style="fill: var(--color5, #abcadd)" d="M22.96 30.507c-2.645 0-5.047-1.387-6.381-3.61-1.334 2.223-3.737 3.61-6.381 3.61-0.294 0-0.532-0.238-0.532-0.532s0.238-0.532 0.532-0.532c2.581 0 4.893-1.542 5.891-3.928l0.49-1.173 0.49 1.173c0.998 2.386 3.31 3.928 5.891 3.928 0.294 0 0.532 0.238 0.532 0.532s-0.238 0.532-0.532 0.532z"></path>
<path fill="#abcadd" style="fill: var(--color5, #abcadd)" d="M29.286 22.996c-0.244-2.116-2.044-3.766-4.224-3.766-2.346 0-4.254 1.909-4.254 4.254 0 0.294 0.238 0.532 0.532 0.532s0.532-0.238 0.532-0.532c0-1.76 1.431-3.191 3.191-3.191 1.597 0 2.919 1.18 3.151 2.713-1.487 0.271-2.619 1.572-2.619 3.136 0 0.294 0.238 0.532 0.532 0.532s0.532-0.238 0.532-0.532c0-1.173 0.954-2.127 2.127-2.127s2.127 0.954 2.127 2.127c0 0.294 0.238 0.532 0.532 0.532s0.532-0.238 0.532-0.532c0-1.588-1.168-2.905-2.689-3.147z"></path>
</symbol>
<symbol id="icon-04n" viewBox="0 0 32 32">
<path fill="#d0e8f9" style="fill: var(--color4, #d0e8f9)" d="M31.987 15.618h-0.043c0.019 0.162 0.031 0.325 0.031 0.492 0 0.294-0.238 0.532-0.532 0.532s-0.532-0.238-0.532-0.532c0-1.76-1.431-3.191-3.191-3.191s-3.191 1.431-3.191 3.191c0 0.294-0.238 0.532-0.532 0.532s-0.532-0.238-0.532-0.532c0-2.161 1.621-3.947 3.711-4.215-0.12-2.68-2.331-4.825-5.040-4.825-2.718 0-4.935 2.159-5.042 4.851 0.441 0.104 0.868 0.277 1.265 0.522 0.966 0.598 1.641 1.537 1.902 2.643 0.067 0.286-0.11 0.572-0.396 0.64-0.286 0.064-0.572-0.11-0.64-0.396-0.403-1.713-2.127-2.779-3.836-2.375-1.713 0.403-2.779 2.124-2.375 3.837 0.067 0.286-0.11 0.572-0.396 0.639-0.040 0.010-0.081 0.014-0.122 0.014-0.241 0-0.459-0.165-0.517-0.41-0.156-0.665-0.143-1.331 0.006-1.954-1.094-0.16-2.2 0.253-2.921 1.128-0.669 0.813-0.864 1.86-0.625 2.81 0.001 0.006 0.004 0.012 0.004 0.018 0.163 0.631 0.516 1.218 1.056 1.663 0.227 0.187 0.259 0.522 0.073 0.749-0.105 0.128-0.257 0.194-0.411 0.194-0.119 0-0.238-0.039-0.338-0.121-0.647-0.533-1.11-1.229-1.354-2.011-2.15-0.561-4.411 0.344-5.578 2.266-0.7 1.153-0.91 2.51-0.59 3.821s1.131 2.419 2.284 3.12c0.251 0.153 0.331 0.479 0.178 0.731-0.1 0.165-0.275 0.255-0.455 0.255-0.071 0-0.141-0.019-0.208-0.048 0.84 0.498 1.807 0.802 2.842 0.847l4.365 0.002c2.822-0.045 5.24-1.787 6.27-4.25 1.044 2.496 3.511 4.254 6.381 4.254 4.985 0 9.040-4.055 9.040-9.040v-5.318l-0.013-0.532z"></path>
<path fill="#abcadd" style="fill: var(--color5, #abcadd)" d="M28.241 11.93c-0.123-3.265-2.81-5.885-6.104-5.885-3.266 0-5.935 2.576-6.099 5.802-0.297 0.006-0.595 0.041-0.891 0.111-1.242 0.292-2.225 1.107-2.781 2.155-1.533-0.311-3.11 0.23-4.121 1.458-0.665 0.808-0.999 1.812-0.963 2.85-2.462-0.444-4.967 0.651-6.298 2.842-0.849 1.396-1.102 3.039-0.715 4.625s1.369 2.928 2.765 3.777c0.086 0.053 0.182 0.078 0.276 0.078 0.18 0 0.355-0.091 0.455-0.255 0.153-0.252 0.073-0.578-0.178-0.731-1.153-0.701-1.964-1.809-2.284-3.12s-0.11-2.668 0.59-3.821c1.168-1.922 3.428-2.826 5.578-2.266 0.244 0.782 0.707 1.478 1.354 2.011 0.099 0.081 0.219 0.121 0.338 0.121 0.154 0 0.306-0.066 0.411-0.194 0.187-0.227 0.154-0.562-0.073-0.749-0.54-0.445-0.893-1.032-1.056-1.663-0.001-0.006-0.004-0.012-0.004-0.018-0.239-0.95-0.044-1.997 0.625-2.81 0.721-0.875 1.827-1.288 2.921-1.128-0.149 0.624-0.163 1.288-0.006 1.954 0.057 0.245 0.277 0.41 0.517 0.41 0.040 0 0.081-0.005 0.122-0.014 0.286-0.068 0.463-0.354 0.396-0.639-0.403-1.713 0.663-3.434 2.375-3.837 1.71-0.404 3.433 0.662 3.836 2.375 0.068 0.286 0.354 0.46 0.64 0.396 0.286-0.068 0.463-0.354 0.396-0.64-0.261-1.106-0.936-2.045-1.902-2.643-0.397-0.246-0.824-0.417-1.265-0.522 0.106-2.692 2.324-4.851 5.042-4.851 2.709 0 4.921 2.145 5.040 4.825-2.089 0.268-3.711 2.054-3.711 4.215 0 0.294 0.238 0.532 0.532 0.532s0.532-0.238 0.532-0.532c0-1.76 1.431-3.191 3.191-3.191s3.215 1.431 3.215 3.191c0 0.015 0 0.706 0 1.595 0 0.294 0.238 0.532 0.532 0.532s0.532-0.238 0.532-0.532v-1.595c-0.001-2.169-1.658-3.961-3.759-4.219z"></path>
<path fill="#abcadd" style="fill: var(--color5, #abcadd)" d="M22.96 30.507c-2.645 0-5.047-1.387-6.381-3.61-1.334 2.223-3.737 3.61-6.381 3.61-0.294 0-0.532-0.238-0.532-0.532s0.238-0.532 0.532-0.532c2.581 0 4.893-1.542 5.891-3.928l0.49-1.173 0.49 1.173c0.998 2.386 3.31 3.928 5.891 3.928 0.294 0 0.532 0.238 0.532 0.532s-0.238 0.532-0.532 0.532z"></path>
<path fill="#abcadd" style="fill: var(--color5, #abcadd)" d="M29.286 22.996c-0.244-2.116-2.044-3.766-4.224-3.766-2.346 0-4.254 1.909-4.254 4.254 0 0.294 0.238 0.532 0.532 0.532s0.532-0.238 0.532-0.532c0-1.76 1.431-3.191 3.191-3.191 1.597 0 2.919 1.18 3.151 2.713-1.487 0.271-2.619 1.572-2.619 3.136 0 0.294 0.238 0.532 0.532 0.532s0.532-0.238 0.532-0.532c0-1.173 0.954-2.127 2.127-2.127s2.127 0.954 2.127 2.127c0 0.294 0.238 0.532 0.532 0.532s0.532-0.238 0.532-0.532c0-1.588-1.168-2.905-2.689-3.147z"></path>
</symbol>
<symbol id="icon-09d" viewBox="0 0 32 32">
<path fill="#d0e8f9" style="fill: var(--color4, #d0e8f9)" d="M31.987 14.554h-0.043c0.019 0.162 0.031 0.325 0.031 0.492 0 0.294-0.238 0.532-0.532 0.532s-0.532-0.238-0.532-0.532c0-1.76-1.431-3.191-3.191-3.191s-3.191 1.431-3.191 3.191c0 0.294-0.238 0.532-0.532 0.532s-0.532-0.238-0.532-0.532c0-2.161 1.621-3.947 3.711-4.215-0.12-2.68-2.331-4.825-5.040-4.825-2.718 0-4.935 2.159-5.042 4.851 0.441 0.104 0.868 0.277 1.265 0.522 0.966 0.598 1.641 1.537 1.902 2.643 0.067 0.286-0.11 0.572-0.396 0.64-0.286 0.064-0.572-0.11-0.64-0.396-0.403-1.713-2.127-2.779-3.836-2.375-1.713 0.403-2.779 2.124-2.375 3.837 0.067 0.286-0.11 0.572-0.396 0.639-0.040 0.010-0.081 0.014-0.122 0.014-0.241 0-0.459-0.165-0.517-0.41-0.156-0.665-0.143-1.331 0.006-1.954-1.094-0.16-2.2 0.253-2.921 1.128-0.669 0.813-0.864 1.86-0.625 2.81 0.001 0.006 0.004 0.012 0.004 0.018 0.163 0.631 0.516 1.218 1.056 1.663 0.227 0.187 0.259 0.522 0.073 0.749-0.105 0.128-0.257 0.194-0.411 0.194-0.119 0-0.238-0.039-0.338-0.121-0.647-0.533-1.11-1.229-1.354-2.011-2.15-0.561-4.411 0.344-5.578 2.266-0.7 1.153-0.91 2.51-0.59 3.821s1.131 2.419 2.284 3.12c0.251 0.153 0.331 0.479 0.178 0.731-0.1 0.165-0.275 0.255-0.455 0.255-0.071 0-0.141-0.019-0.208-0.048 0.84 0.498 1.807 0.802 2.842 0.847l4.365 0.002c2.822-0.045 5.24-1.787 6.27-4.25 1.044 2.496 3.511 4.254 6.381 4.254 4.985 0 9.040-4.055 9.040-9.040v-5.318l-0.013-0.532z"></path>
<path fill="#abcadd" style="fill: var(--color5, #abcadd)" d="M28.241 10.867c-0.122-3.265-2.809-5.885-6.104-5.885-3.266 0-5.935 2.576-6.099 5.802-0.297 0.006-0.595 0.041-0.891 0.111-1.242 0.292-2.225 1.107-2.781 2.155-1.533-0.311-3.11 0.23-4.121 1.458-0.665 0.808-0.999 1.812-0.963 2.85-2.462-0.444-4.967 0.651-6.298 2.842-0.849 1.396-1.102 3.039-0.715 4.625s1.369 2.928 2.765 3.777c0.086 0.053 0.182 0.078 0.276 0.078 0.18 0 0.355-0.091 0.455-0.255 0.153-0.252 0.073-0.578-0.178-0.731-1.153-0.701-1.964-1.809-2.284-3.12s-0.11-2.668 0.59-3.821c1.168-1.922 3.428-2.826 5.578-2.266 0.244 0.782 0.707 1.478 1.354 2.011 0.099 0.081 0.219 0.121 0.338 0.121 0.154 0 0.306-0.066 0.411-0.194 0.187-0.227 0.154-0.562-0.073-0.749-0.54-0.445-0.893-1.032-1.056-1.663-0.001-0.006-0.004-0.012-0.004-0.018-0.239-0.95-0.044-1.997 0.625-2.81 0.721-0.875 1.827-1.288 2.921-1.128-0.149 0.624-0.163 1.288-0.006 1.954 0.057 0.245 0.277 0.41 0.517 0.41 0.040 0 0.081-0.005 0.122-0.014 0.286-0.068 0.463-0.354 0.396-0.639-0.403-1.713 0.663-3.434 2.375-3.837 1.71-0.404 3.433 0.662 3.836 2.375 0.068 0.286 0.354 0.46 0.64 0.396 0.286-0.068 0.463-0.354 0.396-0.64-0.261-1.106-0.936-2.045-1.902-2.643-0.397-0.246-0.824-0.417-1.265-0.522 0.106-2.692 2.324-4.851 5.042-4.851 2.709 0 4.921 2.145 5.040 4.825-2.089 0.268-3.711 2.054-3.711 4.215 0 0.294 0.238 0.532 0.532 0.532s0.532-0.238 0.532-0.532c0-1.76 1.431-3.191 3.191-3.191s3.215 1.431 3.215 3.191c0 0.015 0 0.706 0 1.595 0 0.294 0.238 0.532 0.532 0.532s0.532-0.238 0.532-0.532v-1.595c-0.001-2.169-1.658-3.961-3.759-4.219z"></path>
<path fill="#abc5d3" style="fill: var(--color7, #abc5d3)" d="M17.265 25.877l-1.595 1.595c-0.208 0.208-0.208 0.544 0 0.752 0.104 0.104 0.24 0.156 0.376 0.156s0.272-0.052 0.376-0.156l1.595-1.595c0.208-0.208 0.208-0.544 0-0.752s-0.545-0.207-0.752 0z"></path>
<path fill="#abc5d3" style="fill: var(--color7, #abc5d3)" d="M14.074 29.068l-1.595 1.595c-0.208 0.208-0.208 0.544 0 0.752 0.104 0.104 0.24 0.156 0.376 0.156s0.272-0.052 0.376-0.156l1.595-1.595c0.208-0.208 0.208-0.544 0-0.752s-0.545-0.207-0.752 0z"></path>
<path fill="#fff" style="fill: var(--color8, #fff)" d="M25.461 22.687c-0.208-0.208-0.544-0.208-0.752 0l-1.595 1.595c-0.208 0.208-0.208 0.544 0 0.752 0.104 0.104 0.24 0.156 0.376 0.156s0.272-0.052 0.376-0.156l1.595-1.595c0.208-0.207 0.208-0.544 0-0.752z"></path>
<path fill="#fff" style="fill: var(--color8, #fff)" d="M21.519 25.877l-1.595 1.595c-0.208 0.208-0.208 0.544 0 0.752 0.104 0.104 0.24 0.156 0.376 0.156s0.272-0.052 0.376-0.156l1.595-1.595c0.208-0.208 0.208-0.544 0-0.752s-0.545-0.207-0.752 0z"></path>
<path fill="#fff" style="fill: var(--color8, #fff)" d="M16.953 22.687c-0.208-0.208-0.544-0.208-0.752 0l-1.595 1.595c-0.208 0.208-0.208 0.544 0 0.752 0.104 0.104 0.24 0.156 0.376 0.156s0.272-0.052 0.376-0.156l1.595-1.595c0.208-0.207 0.208-0.544 0-0.752z"></path>
<path fill="#fff" style="fill: var(--color8, #fff)" d="M21.207 22.687c-0.208-0.208-0.544-0.208-0.752 0l-1.595 1.595c-0.208 0.208-0.208 0.544 0 0.752 0.104 0.104 0.24 0.156 0.376 0.156s0.272-0.052 0.376-0.156l1.595-1.595c0.208-0.207 0.208-0.544 0-0.752z"></path>
<path fill="#abc5d3" style="fill: var(--color7, #abc5d3)" d="M13.762 25.877c-0.208-0.208-0.544-0.208-0.752 0l-1.595 1.595c-0.208 0.208-0.208 0.544 0 0.752 0.104 0.104 0.24 0.156 0.376 0.156s0.272-0.052 0.376-0.156l1.595-1.595c0.208-0.207 0.208-0.544 0-0.752z"></path>
</symbol>
<symbol id="icon-09n" viewBox="0 0 32 32">
<path fill="#d0e8f9" style="fill: var(--color4, #d0e8f9)" d="M31.987 14.554h-0.043c0.019 0.162 0.031 0.325 0.031 0.492 0 0.294-0.238 0.532-0.532 0.532s-0.532-0.238-0.532-0.532c0-1.76-1.431-3.191-3.191-3.191s-3.191 1.431-3.191 3.191c0 0.294-0.238 0.532-0.532 0.532s-0.532-0.238-0.532-0.532c0-2.161 1.621-3.947 3.711-4.215-0.12-2.68-2.331-4.825-5.040-4.825-2.718 0-4.935 2.159-5.042 4.851 0.441 0.104 0.868 0.277 1.265 0.522 0.966 0.598 1.641 1.537 1.902 2.643 0.067 0.286-0.11 0.572-0.396 0.64-0.286 0.064-0.572-0.11-0.64-0.396-0.403-1.713-2.127-2.779-3.836-2.375-1.713 0.403-2.779 2.124-2.375 3.837 0.067 0.286-0.11 0.572-0.396 0.639-0.040 0.010-0.081 0.014-0.122 0.014-0.241 0-0.459-0.165-0.517-0.41-0.156-0.665-0.143-1.331 0.006-1.954-1.094-0.16-2.2 0.253-2.921 1.128-0.669 0.813-0.864 1.86-0.625 2.81 0.001 0.006 0.004 0.012 0.004 0.018 0.163 0.631 0.516 1.218 1.056 1.663 0.227 0.187 0.259 0.522 0.073 0.749-0.105 0.128-0.257 0.194-0.411 0.194-0.119 0-0.238-0.039-0.338-0.121-0.647-0.533-1.11-1.229-1.354-2.011-2.15-0.561-4.411 0.344-5.578 2.266-0.7 1.153-0.91 2.51-0.59 3.821s1.131 2.419 2.284 3.12c0.251 0.153 0.331 0.479 0.178 0.731-0.1 0.165-0.275 0.255-0.455 0.255-0.071 0-0.141-0.019-0.208-0.048 0.84 0.498 1.807 0.802 2.842 0.847l4.365 0.002c2.822-0.045 5.24-1.787 6.27-4.25 1.044 2.496 3.511 4.254 6.381 4.254 4.985 0 9.040-4.055 9.040-9.040v-5.318l-0.013-0.532z"></path>
<path fill="#abcadd" style="fill: var(--color5, #abcadd)" d="M28.241 10.867c-0.122-3.265-2.809-5.885-6.104-5.885-3.266 0-5.935 2.576-6.099 5.802-0.297 0.006-0.595 0.041-0.891 0.111-1.242 0.292-2.225 1.107-2.781 2.155-1.533-0.311-3.11 0.23-4.121 1.458-0.665 0.808-0.999 1.812-0.963 2.85-2.462-0.444-4.967 0.651-6.298 2.842-0.849 1.396-1.102 3.039-0.715 4.625s1.369 2.928 2.765 3.777c0.086 0.053 0.182 0.078 0.276 0.078 0.18 0 0.355-0.091 0.455-0.255 0.153-0.252 0.073-0.578-0.178-0.731-1.153-0.701-1.964-1.809-2.284-3.12s-0.11-2.668 0.59-3.821c1.168-1.922 3.428-2.826 5.578-2.266 0.244 0.782 0.707 1.478 1.354 2.011 0.099 0.081 0.219 0.121 0.338 0.121 0.154 0 0.306-0.066 0.411-0.194 0.187-0.227 0.154-0.562-0.073-0.749-0.54-0.445-0.893-1.032-1.056-1.663-0.001-0.006-0.004-0.012-0.004-0.018-0.239-0.95-0.044-1.997 0.625-2.81 0.721-0.875 1.827-1.288 2.921-1.128-0.149 0.624-0.163 1.288-0.006 1.954 0.057 0.245 0.277 0.41 0.517 0.41 0.040 0 0.081-0.005 0.122-0.014 0.286-0.068 0.463-0.354 0.396-0.639-0.403-1.713 0.663-3.434 2.375-3.837 1.71-0.404 3.433 0.662 3.836 2.375 0.068 0.286 0.354 0.46 0.64 0.396 0.286-0.068 0.463-0.354 0.396-0.64-0.261-1.106-0.936-2.045-1.902-2.643-0.397-0.246-0.824-0.417-1.265-0.522 0.106-2.692 2.324-4.851 5.042-4.851 2.709 0 4.921 2.145 5.040 4.825-2.089 0.268-3.711 2.054-3.711 4.215 0 0.294 0.238 0.532 0.532 0.532s0.532-0.238 0.532-0.532c0-1.76 1.431-3.191 3.191-3.191s3.215 1.431 3.215 3.191c0 0.015 0 0.706 0 1.595 0 0.294 0.238 0.532 0.532 0.532s0.532-0.238 0.532-0.532v-1.595c-0.001-2.169-1.658-3.961-3.759-4.219z"></path>
<path fill="#abc5d3" style="fill: var(--color7, #abc5d3)" d="M17.265 25.877l-1.595 1.595c-0.208 0.208-0.208 0.544 0 0.752 0.104 0.104 0.24 0.156 0.376 0.156s0.272-0.052 0.376-0.156l1.595-1.595c0.208-0.208 0.208-0.544 0-0.752s-0.545-0.207-0.752 0z"></path>
<path fill="#abc5d3" style="fill: var(--color7, #abc5d3)" d="M14.074 29.068l-1.595 1.595c-0.208 0.208-0.208 0.544 0 0.752 0.104 0.104 0.24 0.156 0.376 0.156s0.272-0.052 0.376-0.156l1.595-1.595c0.208-0.208 0.208-0.544 0-0.752s-0.545-0.207-0.752 0z"></path>
<path fill="#fff" style="fill: var(--color8, #fff)" d="M25.461 22.687c-0.208-0.208-0.544-0.208-0.752 0l-1.595 1.595c-0.208 0.208-0.208 0.544 0 0.752 0.104 0.104 0.24 0.156 0.376 0.156s0.272-0.052 0.376-0.156l1.595-1.595c0.208-0.207 0.208-0.544 0-0.752z"></path>
<path fill="#fff" style="fill: var(--color8, #fff)" d="M21.519 25.877l-1.595 1.595c-0.208 0.208-0.208 0.544 0 0.752 0.104 0.104 0.24 0.156 0.376 0.156s0.272-0.052 0.376-0.156l1.595-1.595c0.208-0.208 0.208-0.544 0-0.752s-0.545-0.207-0.752 0z"></path>
<path fill="#fff" style="fill: var(--color8, #fff)" d="M16.953 22.687c-0.208-0.208-0.544-0.208-0.752 0l-1.595 1.595c-0.208 0.208-0.208 0.544 0 0.752 0.104 0.104 0.24 0.156 0.376 0.156s0.272-0.052 0.376-0.156l1.595-1.595c0.208-0.207 0.208-0.544 0-0.752z"></path>
<path fill="#fff" style="fill: var(--color8, #fff)" d="M21.207 22.687c-0.208-0.208-0.544-0.208-0.752 0l-1.595 1.595c-0.208 0.208-0.208 0.544 0 0.752 0.104 0.104 0.24 0.156 0.376 0.156s0.272-0.052 0.376-0.156l1.595-1.595c0.208-0.207 0.208-0.544 0-0.752z"></path>
<path fill="#abc5d3" style="fill: var(--color7, #abc5d3)" d="M13.762 25.877c-0.208-0.208-0.544-0.208-0.752 0l-1.595 1.595c-0.208 0.208-0.208 0.544 0 0.752 0.104 0.104 0.24 0.156 0.376 0.156s0.272-0.052 0.376-0.156l1.595-1.595c0.208-0.207 0.208-0.544 0-0.752z"></path>
</symbol>
<symbol id="icon-10d" viewBox="0 0 32 32">
<path fill="#f0c419" style="fill: var(--color1, #f0c419)" d="M3.265 11.596c0-0.294-0.238-0.532-0.532-0.532h-2.201c-0.294 0-0.532 0.238-0.532 0.532s0.238 0.532 0.532 0.532h2.201c0.294 0 0.532-0.238 0.532-0.532z"></path>
<path fill="#f0c419" style="fill: var(--color1, #f0c419)" d="M11.167 0.429c-0.294 0-0.532 0.238-0.532 0.532v2.2c0 0.294 0.238 0.532 0.532 0.532s0.532-0.238 0.532-0.532v-2.2c0-0.294-0.238-0.532-0.532-0.532z"></path>
<path fill="#f0c419" style="fill: var(--color1, #f0c419)" d="M3.475 3.152c-0.208-0.208-0.544-0.208-0.752 0s-0.208 0.544 0 0.752l2.104 2.104c0.104 0.104 0.24 0.156 0.376 0.156s0.272-0.052 0.376-0.156c0.208-0.208 0.208-0.544 0-0.752l-2.104-2.104z"></path>
<path fill="#f0c419" style="fill: var(--color1, #f0c419)" d="M19.612 3.152c-0.208-0.208-0.544-0.208-0.752 0l-2.104 2.104c-0.208 0.208-0.208 0.544 0 0.752 0.104 0.104 0.24 0.156 0.376 0.156s0.272-0.052 0.376-0.156l2.104-2.104c0.208-0.208 0.208-0.545 0-0.752z"></path>
<path fill="#f0c419" style="fill: var(--color1, #f0c419)" d="M7.931 2.611c-0.115-0.271-0.43-0.396-0.698-0.282-0.271 0.115-0.397 0.427-0.282 0.697l0.43 1.013c0.086 0.203 0.283 0.324 0.49 0.324 0.070 0 0.14-0.014 0.208-0.043 0.271-0.115 0.397-0.427 0.282-0.697l-0.43-1.013z"></path>
<path fill="#f0c419" style="fill: var(--color1, #f0c419)" d="M14.939 2.262c-0.273-0.109-0.582 0.022-0.692 0.294l-0.412 1.020c-0.11 0.272 0.021 0.582 0.294 0.692 0.065 0.026 0.132 0.039 0.199 0.039 0.211 0 0.409-0.125 0.493-0.333l0.412-1.020c0.111-0.272-0.021-0.582-0.293-0.692z"></path>
<path fill="#f0c419" style="fill: var(--color1, #f0c419)" d="M3.195 14.403l-1.012 0.43c-0.271 0.115-0.397 0.427-0.282 0.697 0.086 0.203 0.283 0.324 0.49 0.324 0.070 0 0.14-0.014 0.208-0.043l1.012-0.43c0.271-0.115 0.397-0.427 0.282-0.697s-0.43-0.396-0.698-0.282z"></path>
<path fill="#f0c419" style="fill: var(--color1, #f0c419)" d="M2.127 8.517l1.020 0.412c0.065 0.026 0.133 0.039 0.199 0.039 0.211 0 0.409-0.126 0.493-0.332 0.11-0.272-0.021-0.582-0.294-0.692l-1.020-0.413c-0.272-0.109-0.582 0.022-0.692 0.294-0.11 0.273 0.021 0.583 0.294 0.693z"></path>
<path fill="#ede21b" style="fill: var(--color2, #ede21b)" d="M6.81 17.483c0.382 0.042 0.754 0.119 1.11 0.233-0.237-1.078 0.002-2.25 0.758-3.168 0.995-1.209 2.594-1.629 4.001-1.183l0.006 0.002c0.434-1.093 1.375-1.964 2.607-2.254 0.438-0.103 0.875-0.12 1.298-0.069-0.004-0.082-0.012-0.163-0.012-0.247 0-1.097 0.321-2.118 0.868-2.981-1.285-2.128-3.611-3.556-6.278-3.556-4.051 0-7.335 3.284-7.335 7.335 0 2.416 1.174 4.551 2.977 5.886z"></path>
<path fill="#d0e8f9" style="fill: var(--color4, #d0e8f9)" d="M31.987 14.554h-0.043c0.019 0.162 0.031 0.325 0.031 0.492 0 0.294-0.238 0.532-0.532 0.532s-0.532-0.238-0.532-0.532c0-1.76-1.431-3.191-3.191-3.191s-3.191 1.431-3.191 3.191c0 0.294-0.238 0.532-0.532 0.532s-0.532-0.238-0.532-0.532c0-2.161 1.621-3.947 3.711-4.215-0.12-2.68-2.331-4.825-5.040-4.825-2.718 0-4.935 2.159-5.042 4.851 0.441 0.104 0.868 0.277 1.265 0.522 0.966 0.598 1.641 1.537 1.902 2.643 0.067 0.286-0.11 0.572-0.396 0.64-0.286 0.064-0.572-0.11-0.64-0.396-0.403-1.713-2.127-2.779-3.836-2.375-1.713 0.403-2.779 2.124-2.375 3.837 0.067 0.286-0.11 0.572-0.396 0.639-0.040 0.010-0.081 0.014-0.122 0.014-0.241 0-0.459-0.165-0.517-0.41-0.156-0.665-0.143-1.331 0.006-1.954-1.094-0.16-2.2 0.253-2.921 1.128-0.669 0.813-0.864 1.86-0.625 2.81 0.001 0.006 0.004 0.012 0.004 0.018 0.163 0.631 0.516 1.218 1.056 1.663 0.227 0.187 0.259 0.522 0.073 0.749-0.105 0.128-0.257 0.194-0.411 0.194-0.119 0-0.238-0.039-0.338-0.121-0.647-0.533-1.11-1.229-1.354-2.011-2.15-0.561-4.411 0.344-5.578 2.266-0.7 1.153-0.91 2.51-0.59 3.821s1.131 2.419 2.284 3.12c0.251 0.153 0.331 0.479 0.178 0.731-0.1 0.165-0.275 0.255-0.455 0.255-0.071 0-0.141-0.019-0.208-0.048 0.84 0.498 1.807 0.802 2.842 0.847l4.365 0.002c2.822-0.045 5.24-1.787 6.27-4.25 1.044 2.496 3.511 4.254 6.381 4.254 4.985 0 9.040-4.055 9.040-9.040v-5.318l-0.013-0.532z"></path>
<path fill="#abcadd" style="fill: var(--color5, #abcadd)" d="M28.241 10.867c-0.122-3.265-2.809-5.885-6.104-5.885-3.266 0-5.935 2.576-6.099 5.802-0.297 0.006-0.595 0.041-0.891 0.111-1.242 0.292-2.225 1.107-2.781 2.155-1.533-0.311-3.11 0.23-4.121 1.458-0.665 0.808-0.999 1.812-0.963 2.85-2.462-0.444-4.967 0.651-6.298 2.842-0.849 1.396-1.102 3.039-0.715 4.625s1.369 2.928 2.765 3.777c0.086 0.053 0.182 0.078 0.276 0.078 0.18 0 0.355-0.091 0.455-0.255 0.153-0.252 0.073-0.578-0.178-0.731-1.153-0.701-1.964-1.809-2.284-3.12s-0.11-2.668 0.59-3.821c1.168-1.922 3.428-2.826 5.578-2.266 0.244 0.782 0.707 1.478 1.354 2.011 0.099 0.081 0.219 0.121 0.338 0.121 0.154 0 0.306-0.066 0.411-0.194 0.187-0.227 0.154-0.562-0.073-0.749-0.54-0.445-0.893-1.032-1.056-1.663-0.001-0.006-0.004-0.012-0.004-0.018-0.239-0.95-0.044-1.997 0.625-2.81 0.721-0.875 1.827-1.288 2.921-1.128-0.149 0.624-0.163 1.288-0.006 1.954 0.057 0.245 0.277 0.41 0.517 0.41 0.040 0 0.081-0.005 0.122-0.014 0.286-0.068 0.463-0.354 0.396-0.639-0.403-1.713 0.663-3.434 2.375-3.837 1.71-0.404 3.433 0.662 3.836 2.375 0.068 0.286 0.354 0.46 0.64 0.396 0.286-0.068 0.463-0.354 0.396-0.64-0.261-1.106-0.936-2.045-1.902-2.643-0.397-0.246-0.824-0.417-1.265-0.522 0.106-2.692 2.324-4.851 5.042-4.851 2.709 0 4.921 2.145 5.040 4.825-2.089 0.268-3.711 2.054-3.711 4.215 0 0.294 0.238 0.532 0.532 0.532s0.532-0.238 0.532-0.532c0-1.76 1.431-3.191 3.191-3.191s3.215 1.431 3.215 3.191c0 0.015 0 0.706 0 1.595 0 0.294 0.238 0.532 0.532 0.532s0.532-0.238 0.532-0.532v-1.595c-0.001-2.169-1.658-3.961-3.759-4.219z"></path>
<path fill="#abc5d3" style="fill: var(--color7, #abc5d3)" d="M17.265 25.877l-1.595 1.595c-0.208 0.208-0.208 0.544 0 0.752 0.104 0.104 0.24 0.156 0.376 0.156s0.272-0.052 0.376-0.156l1.595-1.595c0.208-0.208 0.208-0.544 0-0.752s-0.545-0.207-0.752 0z"></path>
<path fill="#abc5d3" style="fill: var(--color7, #abc5d3)" d="M14.074 29.068l-1.595 1.595c-0.208 0.208-0.208 0.544 0 0.752 0.104 0.104 0.24 0.156 0.376 0.156s0.272-0.052 0.376-0.156l1.595-1.595c0.208-0.208 0.208-0.544 0-0.752s-0.545-0.207-0.752 0z"></path>
<path fill="#fff" style="fill: var(--color8, #fff)" d="M25.461 22.687c-0.208-0.208-0.544-0.208-0.752 0l-1.595 1.595c-0.208 0.208-0.208 0.544 0 0.752 0.104 0.104 0.24 0.156 0.376 0.156s0.272-0.052 0.376-0.156l1.595-1.595c0.208-0.207 0.208-0.544 0-0.752z"></path>
<path fill="#fff" style="fill: var(--color8, #fff)" d="M21.519 25.877l-1.595 1.595c-0.208 0.208-0.208 0.544 0 0.752 0.104 0.104 0.24 0.156 0.376 0.156s0.272-0.052 0.376-0.156l1.595-1.595c0.208-0.208 0.208-0.544 0-0.752s-0.545-0.207-0.752 0z"></path>
<path fill="#fff" style="fill: var(--color8, #fff)" d="M16.953 22.687c-0.208-0.208-0.544-0.208-0.752 0l-1.595 1.595c-0.208 0.208-0.208 0.544 0 0.752 0.104 0.104 0.24 0.156 0.376 0.156s0.272-0.052 0.376-0.156l1.595-1.595c0.208-0.207 0.208-0.544 0-0.752z"></path>
<path fill="#fff" style="fill: var(--color8, #fff)" d="M21.207 22.687c-0.208-0.208-0.544-0.208-0.752 0l-1.595 1.595c-0.208 0.208-0.208 0.544 0 0.752 0.104 0.104 0.24 0.156 0.376 0.156s0.272-0.052 0.376-0.156l1.595-1.595c0.208-0.207 0.208-0.544 0-0.752z"></path>
<path fill="#abc5d3" style="fill: var(--color7, #abc5d3)" d="M13.762 25.877c-0.208-0.208-0.544-0.208-0.752 0l-1.595 1.595c-0.208 0.208-0.208 0.544 0 0.752 0.104 0.104 0.24 0.156 0.376 0.156s0.272-0.052 0.376-0.156l1.595-1.595c0.208-0.207 0.208-0.544 0-0.752z"></path>
</symbol>
<symbol id="icon-10n" viewBox="0 0 32 32">
<path fill="#fbd490" style="fill: var(--color6, #fbd490)" d="M6.027 14.826c0.599 0 1.176 0.097 1.718 0.271-0.238-1.081 0.002-2.256 0.761-3.177 0.998-1.212 2.601-1.634 4.012-1.186l0.006 0.002c0.435-1.096 1.379-1.97 2.614-2.26 0.439-0.103 0.878-0.12 1.302-0.069-0.004-0.083-0.012-0.164-0.012-0.247 0-1.29 0.44-2.473 1.172-3.42-1.638-1.803-3.932-2.999-6.507-3.206-0.023 4.694-3.833 8.493-8.532 8.493-0.688 0-1.354-0.090-1.996-0.244-0.083 0.515-0.138 1.039-0.138 1.578 0 1.928 0.562 3.721 1.518 5.241 1.022-1.090 2.47-1.775 4.082-1.775z"></path>
<path fill="#d0e8f9" style="fill: var(--color4, #d0e8f9)" d="M31.987 11.801h-0.043c0.019 0.162 0.031 0.326 0.031 0.493 0 0.295-0.238 0.533-0.533 0.533s-0.533-0.238-0.533-0.533c0-1.765-1.435-3.2-3.2-3.2s-3.2 1.435-3.2 3.2c0 0.295-0.238 0.533-0.533 0.533s-0.533-0.238-0.533-0.533c0-2.167 1.626-3.959 3.721-4.228-0.121-2.687-2.338-4.839-5.055-4.839-2.726 0-4.95 2.165-5.056 4.865 0.442 0.105 0.87 0.277 1.268 0.523 0.968 0.6 1.646 1.541 1.907 2.651 0.067 0.287-0.11 0.574-0.397 0.642-0.287 0.065-0.574-0.11-0.642-0.397-0.404-1.718-2.133-2.787-3.847-2.382-1.718 0.404-2.787 2.13-2.382 3.848 0.067 0.286-0.11 0.573-0.397 0.641-0.041 0.010-0.082 0.014-0.122 0.014-0.242 0-0.461-0.166-0.519-0.411-0.157-0.667-0.143-1.334 0.006-1.959-1.098-0.161-2.206 0.254-2.929 1.132-0.671 0.815-0.867 1.865-0.627 2.819 0.001 0.006 0.004 0.012 0.004 0.018 0.163 0.633 0.517 1.221 1.059 1.668 0.227 0.188 0.26 0.523 0.073 0.751-0.106 0.128-0.258 0.194-0.412 0.194-0.119 0-0.239-0.039-0.339-0.122-0.649-0.534-1.114-1.232-1.358-2.016-2.156-0.562-4.423 0.345-5.594 2.273-0.702 1.156-0.913 2.517-0.592 3.832s1.134 2.426 2.291 3.129c0.252 0.153 0.332 0.48 0.179 0.733-0.1 0.165-0.276 0.256-0.456 0.256-0.071 0-0.141-0.019-0.209-0.049 0.843 0.499 1.813 0.805 2.85 0.85l4.378 0.002c2.83-0.045 5.255-1.792 6.288-4.262 1.047 2.503 3.521 4.266 6.4 4.266 4.999 0 9.066-4.067 9.066-9.066v-5.333l-0.013-0.534z"></path>
<path fill="#abcadd" style="fill: var(--color5, #abcadd)" d="M28.231 8.103c-0.123-3.274-2.818-5.902-6.121-5.902-3.276 0-5.952 2.583-6.117 5.818-0.298 0.006-0.597 0.042-0.894 0.111-1.246 0.293-2.232 1.11-2.789 2.161-1.537-0.312-3.119 0.231-4.133 1.462-0.667 0.811-1.002 1.818-0.965 2.858-2.469-0.445-4.981 0.653-6.316 2.85-0.851 1.4-1.106 3.047-0.717 4.639s1.373 2.936 2.773 3.788c0.086 0.053 0.182 0.078 0.277 0.078 0.18 0 0.356-0.091 0.456-0.256 0.153-0.252 0.073-0.58-0.179-0.733-1.157-0.703-1.97-1.814-2.291-3.129s-0.11-2.676 0.592-3.832c1.171-1.927 3.438-2.835 5.594-2.273 0.244 0.784 0.709 1.482 1.358 2.016 0.1 0.082 0.219 0.122 0.339 0.122 0.154 0 0.307-0.066 0.412-0.194 0.187-0.228 0.154-0.564-0.073-0.751-0.542-0.446-0.895-1.035-1.059-1.668-0.001-0.006-0.004-0.012-0.004-0.018-0.24-0.953-0.044-2.003 0.627-2.819 0.723-0.878 1.832-1.292 2.929-1.132-0.149 0.626-0.164 1.292-0.006 1.959 0.058 0.246 0.277 0.411 0.519 0.411 0.041 0 0.082-0.005 0.122-0.014 0.287-0.068 0.464-0.355 0.397-0.641-0.404-1.718 0.665-3.444 2.382-3.848 1.715-0.405 3.443 0.664 3.847 2.382 0.068 0.286 0.355 0.461 0.642 0.397 0.286-0.068 0.464-0.355 0.397-0.642-0.261-1.109-0.939-2.051-1.907-2.651-0.398-0.246-0.826-0.419-1.268-0.523 0.107-2.7 2.331-4.865 5.056-4.865 2.717 0 4.935 2.151 5.055 4.839-2.095 0.269-3.721 2.060-3.721 4.228 0 0.295 0.238 0.533 0.533 0.533s0.533-0.238 0.533-0.533c0-1.765 1.435-3.2 3.2-3.2s3.224 1.435 3.224 3.2c0 0.015 0 0.708 0 1.6 0 0.294 0.239 0.533 0.533 0.533s0.533-0.239 0.533-0.533v-1.6c-0.001-2.175-1.663-3.973-3.77-4.231z"></path>
<path fill="#fff" style="fill: var(--color8, #fff)" d="M25.442 21.557c-0.209-0.209-0.546-0.209-0.754 0l-1.6 1.6c-0.209 0.209-0.209 0.546 0 0.754 0.104 0.104 0.241 0.156 0.377 0.156s0.273-0.052 0.377-0.156l1.6-1.6c0.208-0.209 0.208-0.546 0-0.754z"></path>
<path fill="#fff" style="fill: var(--color8, #fff)" d="M21.489 24.757l-1.6 1.6c-0.209 0.209-0.209 0.546 0 0.754 0.104 0.104 0.241 0.156 0.377 0.156s0.273-0.052 0.377-0.156l1.6-1.6c0.209-0.209 0.209-0.546 0-0.754s-0.546-0.209-0.754 0z"></path>
<path fill="#fff" style="fill: var(--color8, #fff)" d="M16.155 21.557l-1.6 1.6c-0.209 0.209-0.209 0.546 0 0.754 0.104 0.104 0.241 0.156 0.377 0.156s0.273-0.052 0.377-0.156l1.6-1.6c0.209-0.209 0.209-0.546 0-0.754s-0.546-0.209-0.754 0z"></path>
<path fill="#fff" style="fill: var(--color8, #fff)" d="M21.176 21.557c-0.209-0.209-0.546-0.209-0.754 0l-1.6 1.6c-0.209 0.209-0.209 0.546 0 0.754 0.104 0.104 0.241 0.156 0.377 0.156s0.273-0.052 0.377-0.156l1.6-1.6c0.209-0.209 0.209-0.546 0-0.754z"></path>
<path fill="#abc5d3" style="fill: var(--color7, #abc5d3)" d="M17.976 24.757c-0.209-0.209-0.546-0.209-0.754 0l-1.6 1.6c-0.209 0.209-0.209 0.546 0 0.754 0.104 0.104 0.241 0.156 0.377 0.156s0.273-0.052 0.377-0.156l1.6-1.6c0.209-0.209 0.209-0.546 0-0.754z"></path>
<path fill="#abc5d3" style="fill: var(--color7, #abc5d3)" d="M14.022 27.956l-1.6 1.6c-0.209 0.209-0.209 0.546 0 0.754 0.104 0.104 0.241 0.156 0.377 0.156s0.273-0.052 0.377-0.156l1.6-1.6c0.209-0.209 0.209-0.546 0-0.754s-0.546-0.209-0.754 0z"></path>
<path fill="#abc5d3" style="fill: var(--color7, #abc5d3)" d="M13.71 24.757c-0.209-0.209-0.546-0.209-0.754 0l-1.6 1.6c-0.209 0.209-0.209 0.546 0 0.754 0.104 0.104 0.241 0.156 0.377 0.156s0.273-0.052 0.377-0.156l1.6-1.6c0.209-0.209 0.209-0.546 0-0.754z"></path>
</symbol>
<symbol id="icon-11d" viewBox="0 0 32 32">
<path fill="#d0e8f9" style="fill: var(--color4, #d0e8f9)" d="M31.987 12.267h-0.043c0.019 0.162 0.031 0.326 0.031 0.493 0 0.295-0.238 0.533-0.533 0.533s-0.533-0.238-0.533-0.533c0-1.765-1.435-3.2-3.2-3.2s-3.2 1.435-3.2 3.2c0 0.295-0.238 0.533-0.533 0.533s-0.533-0.238-0.533-0.533c0-2.167 1.626-3.959 3.721-4.228-0.121-2.687-2.338-4.839-5.055-4.839-2.726 0-4.95 2.165-5.056 4.865 0.442 0.105 0.87 0.277 1.268 0.523 0.968 0.6 1.646 1.541 1.907 2.651 0.067 0.287-0.11 0.574-0.397 0.642-0.287 0.065-0.574-0.11-0.642-0.397-0.404-1.718-2.133-2.787-3.847-2.382-1.718 0.404-2.787 2.13-2.382 3.848 0.067 0.286-0.11 0.573-0.397 0.641-0.041 0.010-0.082 0.014-0.122 0.014-0.242 0-0.461-0.166-0.519-0.411-0.157-0.667-0.143-1.334 0.006-1.959-1.098-0.161-2.206 0.254-2.929 1.132-0.671 0.815-0.867 1.865-0.627 2.819 0.001 0.006 0.004 0.012 0.004 0.018 0.163 0.633 0.517 1.221 1.059 1.668 0.227 0.188 0.26 0.523 0.073 0.751-0.106 0.128-0.258 0.194-0.412 0.194-0.119 0-0.239-0.039-0.339-0.122-0.649-0.534-1.114-1.232-1.358-2.016-2.156-0.562-4.423 0.345-5.594 2.273-0.702 1.156-0.913 2.517-0.592 3.832s1.134 2.426 2.291 3.129c0.252 0.153 0.332 0.48 0.179 0.733-0.1 0.165-0.276 0.256-0.456 0.256-0.071 0-0.141-0.019-0.209-0.049 0.843 0.499 1.813 0.805 2.85 0.85l4.378 0.002c2.83-0.045 5.255-1.792 6.288-4.262 1.047 2.503 3.521 4.266 6.4 4.266 4.999 0 9.066-4.067 9.066-9.066v-5.333l-0.013-0.534z"></path>
<path fill="#abcadd" style="fill: var(--color5, #abcadd)" d="M28.231 8.569c-0.123-3.274-2.818-5.902-6.121-5.902-3.276 0-5.952 2.583-6.117 5.818-0.298 0.006-0.597 0.042-0.894 0.111-1.246 0.293-2.232 1.11-2.789 2.161-1.537-0.312-3.119 0.231-4.133 1.462-0.667 0.811-1.002 1.818-0.965 2.858-2.469-0.445-4.981 0.653-6.316 2.85-0.851 1.4-1.106 3.047-0.717 4.639s1.373 2.936 2.773 3.788c0.086 0.053 0.182 0.078 0.277 0.078 0.18 0 0.356-0.091 0.456-0.256 0.153-0.252 0.073-0.58-0.179-0.733-1.157-0.703-1.97-1.814-2.291-3.129s-0.11-2.676 0.592-3.832c1.171-1.927 3.438-2.835 5.594-2.273 0.244 0.785 0.709 1.482 1.358 2.016 0.1 0.082 0.219 0.122 0.339 0.122 0.154 0 0.307-0.066 0.412-0.194 0.187-0.228 0.154-0.564-0.073-0.751-0.542-0.446-0.895-1.035-1.059-1.668-0.001-0.006-0.004-0.012-0.004-0.018-0.24-0.953-0.044-2.003 0.627-2.819 0.723-0.878 1.832-1.292 2.929-1.132-0.149 0.626-0.164 1.292-0.006 1.959 0.058 0.246 0.277 0.411 0.519 0.411 0.041 0 0.082-0.005 0.122-0.014 0.287-0.068 0.464-0.355 0.397-0.641-0.404-1.718 0.665-3.444 2.382-3.848 1.715-0.405 3.443 0.664 3.847 2.382 0.068 0.286 0.355 0.461 0.642 0.397 0.286-0.068 0.464-0.355 0.397-0.642-0.261-1.109-0.939-2.051-1.907-2.651-0.398-0.246-0.826-0.419-1.268-0.523 0.107-2.7 2.331-4.865 5.056-4.865 2.717 0 4.935 2.151 5.055 4.839-2.095 0.269-3.721 2.060-3.721 4.228 0 0.295 0.238 0.533 0.533 0.533s0.533-0.238 0.533-0.533c0-1.765 1.435-3.2 3.2-3.2s3.224 1.435 3.224 3.2c0 0.015 0 0.708 0 1.6 0 0.294 0.239 0.533 0.533 0.533s0.533-0.239 0.533-0.533v-1.6c-0.001-2.175-1.663-3.973-3.77-4.231z"></path>
<path fill="#abcadd" style="fill: var(--color5, #abcadd)" d="M25.6 19.733c0.294 0 0.533-0.239 0.533-0.533 0-0.769 0-0.267 0-0.267 0-1.323 1.077-2.4 2.4-2.4s2.4 1.077 2.4 2.4c0 0.295 0.239 0.533 0.533 0.533s0.533-0.238 0.533-0.533c0-1.911-1.555-3.466-3.466-3.466-1.821 0-3.329 1.413-3.466 3.2v0.533c0 0.294 0.239 0.533 0.533 0.533z"></path>
<path fill="#abc5d3" style="fill: var(--color7, #abc5d3)" d="M13.826 26.996c-0.054-0.131-0.158-0.235-0.289-0.289-0.065-0.027-0.134-0.041-0.204-0.041h-1.912l4.423-4.423c0.209-0.209 0.209-0.546 0-0.754s-0.546-0.209-0.754 0l-5.333 5.333c-0.050 0.049-0.089 0.108-0.116 0.174-0.054 0.13-0.054 0.277 0 0.407s0.158 0.235 0.289 0.289c0.065 0.027 0.134 0.041 0.204 0.041h1.912l-2.823 2.823c-0.209 0.209-0.209 0.546 0 0.754 0.104 0.104 0.241 0.156 0.377 0.156s0.273-0.052 0.377-0.156l3.733-3.733c0.050-0.049 0.089-0.108 0.116-0.174 0.054-0.131 0.054-0.277 0-0.407z"></path>
<path fill="#abc5d3" style="fill: var(--color7, #abc5d3)" d="M22.244 19.356c-0.209-0.209-0.546-0.209-0.754 0l-5.333 5.333c-0.050 0.049-0.089 0.108-0.116 0.174-0.054 0.13-0.054 0.277 0 0.407s0.158 0.235 0.289 0.289c0.065 0.027 0.134 0.041 0.204 0.041h1.912l-2.823 2.823c-0.209 0.209-0.209 0.546 0 0.754 0.104 0.104 0.241 0.156 0.377 0.156s0.273-0.052 0.377-0.156l3.733-3.733c0.050-0.049 0.089-0.108 0.116-0.174 0.054-0.13 0.054-0.277 0-0.407s-0.158-0.235-0.289-0.289c-0.065-0.027-0.134-0.041-0.204-0.041h-1.912l4.423-4.423c0.209-0.209 0.209-0.546 0-0.754z"></path>
</symbol>
<symbol id="icon-11n" viewBox="0 0 32 32">
<path fill="#d0e8f9" style="fill: var(--color4, #d0e8f9)" d="M31.987 12.267h-0.043c0.019 0.162 0.031 0.326 0.031 0.493 0 0.295-0.238 0.533-0.533 0.533s-0.533-0.238-0.533-0.533c0-1.765-1.435-3.2-3.2-3.2s-3.2 1.435-3.2 3.2c0 0.295-0.238 0.533-0.533 0.533s-0.533-0.238-0.533-0.533c0-2.167 1.626-3.959 3.721-4.228-0.121-2.687-2.338-4.839-5.055-4.839-2.726 0-4.95 2.165-5.056 4.865 0.442 0.105 0.87 0.277 1.268 0.523 0.968 0.6 1.646 1.541 1.907 2.651 0.067 0.287-0.11 0.574-0.397 0.642-0.287 0.065-0.574-0.11-0.642-0.397-0.404-1.718-2.133-2.787-3.847-2.382-1.718 0.404-2.787 2.13-2.382 3.848 0.067 0.286-0.11 0.573-0.397 0.641-0.041 0.010-0.082 0.014-0.122 0.014-0.242 0-0.461-0.166-0.519-0.411-0.157-0.667-0.143-1.334 0.006-1.959-1.098-0.161-2.206 0.254-2.929 1.132-0.671 0.815-0.867 1.865-0.627 2.819 0.001 0.006 0.004 0.012 0.004 0.018 0.163 0.633 0.517 1.221 1.059 1.668 0.227 0.188 0.26 0.523 0.073 0.751-0.106 0.128-0.258 0.194-0.412 0.194-0.119 0-0.239-0.039-0.339-0.122-0.649-0.534-1.114-1.232-1.358-2.016-2.156-0.562-4.423 0.345-5.594 2.273-0.702 1.156-0.913 2.517-0.592 3.832s1.134 2.426 2.291 3.129c0.252 0.153 0.332 0.48 0.179 0.733-0.1 0.165-0.276 0.256-0.456 0.256-0.071 0-0.141-0.019-0.209-0.049 0.843 0.499 1.813 0.805 2.85 0.85l4.378 0.002c2.83-0.045 5.255-1.792 6.288-4.262 1.047 2.503 3.521 4.266 6.4 4.266 4.999 0 9.066-4.067 9.066-9.066v-5.333l-0.013-0.534z"></path>
<path fill="#abcadd" style="fill: var(--color5, #abcadd)" d="M28.231 8.569c-0.123-3.274-2.818-5.902-6.121-5.902-3.276 0-5.952 2.583-6.117 5.818-0.298 0.006-0.597 0.042-0.894 0.111-1.246 0.293-2.232 1.11-2.789 2.161-1.537-0.312-3.119 0.231-4.133 1.462-0.667 0.811-1.002 1.818-0.965 2.858-2.469-0.445-4.981 0.653-6.316 2.85-0.851 1.4-1.106 3.047-0.717 4.639s1.373 2.936 2.773 3.788c0.086 0.053 0.182 0.078 0.277 0.078 0.18 0 0.356-0.091 0.456-0.256 0.153-0.252 0.073-0.58-0.179-0.733-1.157-0.703-1.97-1.814-2.291-3.129s-0.11-2.676 0.592-3.832c1.171-1.927 3.438-2.835 5.594-2.273 0.244 0.785 0.709 1.482 1.358 2.016 0.1 0.082 0.219 0.122 0.339 0.122 0.154 0 0.307-0.066 0.412-0.194 0.187-0.228 0.154-0.564-0.073-0.751-0.542-0.446-0.895-1.035-1.059-1.668-0.001-0.006-0.004-0.012-0.004-0.018-0.24-0.953-0.044-2.003 0.627-2.819 0.723-0.878 1.832-1.292 2.929-1.132-0.149 0.626-0.164 1.292-0.006 1.959 0.058 0.246 0.277 0.411 0.519 0.411 0.041 0 0.082-0.005 0.122-0.014 0.287-0.068 0.464-0.355 0.397-0.641-0.404-1.718 0.665-3.444 2.382-3.848 1.715-0.405 3.443 0.664 3.847 2.382 0.068 0.286 0.355 0.461 0.642 0.397 0.286-0.068 0.464-0.355 0.397-0.642-0.261-1.109-0.939-2.051-1.907-2.651-0.398-0.246-0.826-0.419-1.268-0.523 0.107-2.7 2.331-4.865 5.056-4.865 2.717 0 4.935 2.151 5.055 4.839-2.095 0.269-3.721 2.060-3.721 4.228 0 0.295 0.238 0.533 0.533 0.533s0.533-0.238 0.533-0.533c0-1.765 1.435-3.2 3.2-3.2s3.224 1.435 3.224 3.2c0 0.015 0 0.708 0 1.6 0 0.294 0.239 0.533 0.533 0.533s0.533-0.239 0.533-0.533v-1.6c-0.001-2.175-1.663-3.973-3.77-4.231z"></path>
<path fill="#abcadd" style="fill: var(--color5, #abcadd)" d="M25.6 19.733c0.294 0 0.533-0.239 0.533-0.533 0-0.769 0-0.267 0-0.267 0-1.323 1.077-2.4 2.4-2.4s2.4 1.077 2.4 2.4c0 0.295 0.239 0.533 0.533 0.533s0.533-0.238 0.533-0.533c0-1.911-1.555-3.466-3.466-3.466-1.821 0-3.329 1.413-3.466 3.2v0.533c0 0.294 0.239 0.533 0.533 0.533z"></path>
<path fill="#abc5d3" style="fill: var(--color7, #abc5d3)" d="M13.826 26.996c-0.054-0.131-0.158-0.235-0.289-0.289-0.065-0.027-0.134-0.041-0.204-0.041h-1.912l4.423-4.423c0.209-0.209 0.209-0.546 0-0.754s-0.546-0.209-0.754 0l-5.333 5.333c-0.050 0.049-0.089 0.108-0.116 0.174-0.054 0.13-0.054 0.277 0 0.407s0.158 0.235 0.289 0.289c0.065 0.027 0.134 0.041 0.204 0.041h1.912l-2.823 2.823c-0.209 0.209-0.209 0.546 0 0.754 0.104 0.104 0.241 0.156 0.377 0.156s0.273-0.052 0.377-0.156l3.733-3.733c0.050-0.049 0.089-0.108 0.116-0.174 0.054-0.131 0.054-0.277 0-0.407z"></path>
<path fill="#abc5d3" style="fill: var(--color7, #abc5d3)" d="M22.244 19.356c-0.209-0.209-0.546-0.209-0.754 0l-5.333 5.333c-0.050 0.049-0.089 0.108-0.116 0.174-0.054 0.13-0.054 0.277 0 0.407s0.158 0.235 0.289 0.289c0.065 0.027 0.134 0.041 0.204 0.041h1.912l-2.823 2.823c-0.209 0.209-0.209 0.546 0 0.754 0.104 0.104 0.241 0.156 0.377 0.156s0.273-0.052 0.377-0.156l3.733-3.733c0.050-0.049 0.089-0.108 0.116-0.174 0.054-0.13 0.054-0.277 0-0.407s-0.158-0.235-0.289-0.289c-0.065-0.027-0.134-0.041-0.204-0.041h-1.912l4.423-4.423c0.209-0.209 0.209-0.546 0-0.754z"></path>
</symbol>
<symbol id="icon-13d" viewBox="0 0 32 32">
<path fill="#f0c419" style="fill: var(--color1, #f0c419)" d="M3.265 11.588c0-0.294-0.238-0.532-0.532-0.532h-2.201c-0.294 0-0.532 0.238-0.532 0.532s0.238 0.532 0.532 0.532h2.201c0.294 0 0.532-0.238 0.532-0.532z"></path>
<path fill="#f0c419" style="fill: var(--color1, #f0c419)" d="M11.167 0.421c-0.294 0-0.532 0.238-0.532 0.532v2.2c0 0.294 0.238 0.532 0.532 0.532s0.532-0.238 0.532-0.532v-2.2c0-0.294-0.238-0.532-0.532-0.532z"></path>
<path fill="#f0c419" style="fill: var(--color1, #f0c419)" d="M3.475 3.144c-0.208-0.208-0.544-0.208-0.752 0s-0.208 0.544 0 0.752l2.104 2.104c0.104 0.104 0.24 0.156 0.376 0.156s0.272-0.052 0.376-0.156c0.208-0.208 0.208-0.544 0-0.752l-2.104-2.104z"></path>
<path fill="#f0c419" style="fill: var(--color1, #f0c419)" d="M19.612 3.144c-0.208-0.208-0.544-0.208-0.752 0l-2.104 2.104c-0.208 0.208-0.208 0.544 0 0.752 0.104 0.104 0.24 0.156 0.376 0.156s0.272-0.052 0.376-0.156l2.104-2.104c0.208-0.208 0.208-0.545 0-0.752z"></path>
<path fill="#f0c419" style="fill: var(--color1, #f0c419)" d="M7.931 2.603c-0.115-0.271-0.43-0.396-0.698-0.282-0.271 0.115-0.397 0.427-0.282 0.697l0.43 1.013c0.086 0.203 0.283 0.324 0.49 0.324 0.070 0 0.14-0.014 0.208-0.043 0.271-0.115 0.397-0.427 0.282-0.697l-0.43-1.013z"></path>
<path fill="#f0c419" style="fill: var(--color1, #f0c419)" d="M14.939 2.254c-0.273-0.109-0.582 0.022-0.692 0.294l-0.412 1.020c-0.11 0.272 0.021 0.582 0.294 0.692 0.065 0.026 0.133 0.039 0.199 0.039 0.211 0 0.409-0.125 0.493-0.333l0.412-1.020c0.11-0.272-0.022-0.582-0.294-0.692z"></path>
<path fill="#f0c419" style="fill: var(--color1, #f0c419)" d="M3.195 14.395l-1.012 0.43c-0.271 0.115-0.397 0.427-0.282 0.697 0.086 0.203 0.283 0.324 0.49 0.324 0.070 0 0.14-0.014 0.208-0.043l1.012-0.43c0.271-0.115 0.397-0.427 0.282-0.697-0.115-0.271-0.43-0.396-0.698-0.282z"></path>
<path fill="#f0c419" style="fill: var(--color1, #f0c419)" d="M2.127 8.509l1.020 0.412c0.065 0.026 0.133 0.039 0.199 0.039 0.211 0 0.409-0.126 0.493-0.332 0.11-0.272-0.021-0.582-0.294-0.692l-1.020-0.412c-0.272-0.109-0.582 0.022-0.692 0.294s0.021 0.582 0.294 0.692z"></path>
<path fill="#ede21b" style="fill: var(--color2, #ede21b)" d="M6.81 17.474c0.382 0.042 0.754 0.119 1.11 0.233-0.237-1.078 0.002-2.25 0.758-3.168 0.995-1.209 2.594-1.629 4.001-1.183l0.006 0.002c0.434-1.093 1.375-1.964 2.607-2.254 0.438-0.103 0.875-0.12 1.298-0.069-0.004-0.082-0.012-0.163-0.012-0.247 0-1.097 0.321-2.118 0.868-2.981-1.285-2.128-3.611-3.556-6.278-3.556-4.051 0-7.335 3.284-7.335 7.335 0 2.416 1.174 4.552 2.977 5.886z"></path>
<path fill="#d0e8f9" style="fill: var(--color4, #d0e8f9)" d="M31.987 14.546h-0.043c0.019 0.162 0.031 0.325 0.031 0.492 0 0.294-0.238 0.532-0.532 0.532s-0.532-0.238-0.532-0.532c0-1.76-1.431-3.191-3.191-3.191s-3.191 1.431-3.191 3.191c0 0.294-0.238 0.532-0.532 0.532s-0.532-0.238-0.532-0.532c0-2.161 1.621-3.947 3.711-4.215-0.12-2.68-2.331-4.825-5.040-4.825-2.718 0-4.935 2.159-5.042 4.851 0.441 0.104 0.868 0.277 1.265 0.522 0.966 0.598 1.641 1.537 1.902 2.643 0.067 0.286-0.11 0.572-0.396 0.64-0.286 0.064-0.572-0.11-0.64-0.396-0.403-1.713-2.127-2.779-3.836-2.375-1.713 0.403-2.779 2.124-2.375 3.837 0.067 0.286-0.11 0.572-0.396 0.639-0.040 0.010-0.081 0.014-0.122 0.014-0.241 0-0.459-0.165-0.517-0.41-0.156-0.665-0.143-1.331 0.006-1.954-1.094-0.16-2.2 0.253-2.921 1.128-0.669 0.813-0.864 1.86-0.625 2.81 0.001 0.006 0.004 0.012 0.004 0.018 0.163 0.631 0.516 1.218 1.056 1.663 0.227 0.187 0.259 0.522 0.073 0.749-0.105 0.128-0.257 0.194-0.411 0.194-0.119 0-0.238-0.039-0.338-0.121-0.647-0.533-1.11-1.229-1.354-2.011-2.15-0.561-4.411 0.344-5.578 2.266-0.7 1.153-0.91 2.51-0.59 3.821s1.131 2.419 2.284 3.12c0.251 0.153 0.331 0.479 0.178 0.731-0.1 0.165-0.275 0.255-0.455 0.255-0.071 0-0.141-0.019-0.208-0.048 0.84 0.498 1.807 0.802 2.842 0.847l4.365 0.002c2.822-0.045 5.24-1.787 6.27-4.25 1.044 2.496 3.511 4.254 6.381 4.254 4.985 0 9.040-4.055 9.040-9.040v-5.318l-0.013-0.532z"></path>
<path fill="#abcadd" style="fill: var(--color5, #abcadd)" d="M28.241 10.859c-0.122-3.265-2.809-5.885-6.104-5.885-3.266 0-5.935 2.576-6.099 5.802-0.297 0.006-0.595 0.041-0.891 0.111-1.242 0.292-2.225 1.107-2.781 2.155-1.533-0.311-3.11 0.23-4.121 1.458-0.665 0.808-0.999 1.812-0.963 2.85-2.462-0.444-4.967 0.651-6.298 2.842-0.849 1.396-1.102 3.039-0.715 4.625s1.369 2.928 2.765 3.777c0.086 0.053 0.182 0.078 0.276 0.078 0.18 0 0.355-0.091 0.455-0.255 0.153-0.252 0.073-0.578-0.178-0.731-1.153-0.701-1.964-1.809-2.284-3.12s-0.11-2.668 0.59-3.821c1.168-1.922 3.428-2.826 5.578-2.266 0.244 0.782 0.707 1.478 1.354 2.011 0.099 0.081 0.219 0.121 0.338 0.121 0.154 0 0.306-0.066 0.411-0.194 0.187-0.227 0.154-0.562-0.073-0.749-0.54-0.445-0.893-1.032-1.056-1.663-0.001-0.006-0.004-0.012-0.004-0.018-0.239-0.95-0.044-1.997 0.625-2.81 0.721-0.875 1.827-1.288 2.921-1.128-0.149 0.624-0.163 1.288-0.006 1.954 0.057 0.245 0.277 0.41 0.517 0.41 0.040 0 0.081-0.005 0.122-0.014 0.286-0.068 0.463-0.354 0.396-0.639-0.403-1.713 0.663-3.434 2.375-3.837 1.71-0.404 3.433 0.662 3.836 2.375 0.068 0.286 0.354 0.46 0.64 0.396 0.286-0.068 0.463-0.354 0.396-0.64-0.261-1.106-0.936-2.045-1.902-2.643-0.397-0.246-0.824-0.417-1.265-0.522 0.106-2.692 2.324-4.851 5.042-4.851 2.709 0 4.921 2.145 5.040 4.825-2.089 0.268-3.711 2.054-3.711 4.215 0 0.294 0.238 0.532 0.532 0.532s0.532-0.238 0.532-0.532c0-1.76 1.431-3.191 3.191-3.191s3.215 1.431 3.215 3.191c0 0.015 0 0.706 0 1.595 0 0.294 0.238 0.532 0.532 0.532s0.532-0.238 0.532-0.532v-1.595c-0.001-2.169-1.658-3.961-3.759-4.219z"></path>
<path fill="#fff" style="fill: var(--color8, #fff)" d="M30.846 22.328l-1.505-0.869 1.505-0.869c0.255-0.147 0.342-0.472 0.195-0.726s-0.473-0.342-0.726-0.195l-1.505 0.869v-1.738c0-0.294-0.238-0.532-0.532-0.532s-0.532 0.238-0.532 0.532v1.738l-1.505-0.869c-0.254-0.147-0.58-0.060-0.726 0.195s-0.060 0.58 0.195 0.726l1.505 0.869-1.505 0.869c-0.255 0.147-0.342 0.472-0.195 0.726 0.099 0.171 0.277 0.266 0.461 0.266 0.090 0 0.182-0.023 0.265-0.071l1.505-0.869v1.738c0 0.294 0.238 0.532 0.532 0.532s0.532-0.238 0.532-0.532v-1.738l1.505 0.869c0.084 0.048 0.175 0.071 0.265 0.071 0.184 0 0.363-0.095 0.461-0.266 0.147-0.255 0.060-0.58-0.195-0.726z"></path>
<path fill="#fff" style="fill: var(--color8, #fff)" d="M19.874 19.864c-0.147-0.255-0.473-0.342-0.726-0.195l-1.505 0.869v-1.738c0-0.294-0.238-0.532-0.532-0.532s-0.532 0.238-0.532 0.532v1.738l-1.505-0.869c-0.254-0.147-0.58-0.060-0.726 0.195s-0.060 0.58 0.195 0.726l1.505 0.869-1.505 0.869c-0.255 0.147-0.342 0.472-0.195 0.726 0.099 0.171 0.277 0.266 0.461 0.266 0.090 0 0.182-0.023 0.265-0.071l1.505-0.869v1.738c0 0.294 0.238 0.532 0.532 0.532s0.532-0.238 0.532-0.532v-1.738l1.505 0.869c0.084 0.048 0.175 0.071 0.265 0.071 0.184 0 0.363-0.095 0.461-0.266 0.147-0.255 0.060-0.58-0.195-0.726l-1.505-0.869 1.505-0.869c0.254-0.147 0.341-0.472 0.195-0.726z"></path>
<path fill="#abc5d3" style="fill: var(--color7, #abc5d3)" d="M25.723 26.793c-0.147-0.255-0.473-0.342-0.726-0.195l-1.505 0.869v-1.738c0-0.294-0.238-0.532-0.532-0.532s-0.532 0.238-0.532 0.532v1.738l-1.505-0.869c-0.254-0.147-0.58-0.060-0.726 0.195s-0.060 0.58 0.195 0.726l1.505 0.869-1.505 0.869c-0.255 0.147-0.342 0.472-0.195 0.726 0.099 0.171 0.277 0.266 0.461 0.266 0.090 0 0.182-0.023 0.265-0.071l1.505-0.869v1.738c0 0.294 0.238 0.532 0.532 0.532s0.532-0.238 0.532-0.532v-1.738l1.505 0.869c0.084 0.048 0.175 0.071 0.265 0.071 0.184 0 0.363-0.095 0.461-0.266 0.147-0.255 0.060-0.58-0.195-0.726l-1.505-0.869 1.505-0.869c0.254-0.147 0.341-0.472 0.195-0.726z"></path>
</symbol>
<symbol id="icon-13n" viewBox="0 0 32 32">
<path fill="#fbd490" style="fill: var(--color6, #fbd490)" d="M6.027 14.551c0.599 0 1.176 0.097 1.718 0.271-0.238-1.081 0.002-2.256 0.761-3.177 0.998-1.212 2.601-1.634 4.012-1.186l0.006 0.002c0.435-1.096 1.379-1.97 2.614-2.26 0.439-0.103 0.878-0.12 1.302-0.069-0.004-0.083-0.012-0.164-0.012-0.247 0-1.29 0.44-2.473 1.172-3.42-1.638-1.803-3.932-2.999-6.507-3.206-0.022 4.694-3.832 8.492-8.531 8.492-0.688 0-1.354-0.090-1.996-0.244-0.083 0.515-0.138 1.039-0.138 1.578 0 1.928 0.562 3.721 1.518 5.241 1.021-1.089 2.469-1.774 4.081-1.774z"></path>
<path fill="#d0e8f9" style="fill: var(--color4, #d0e8f9)" d="M31.987 11.526h-0.043c0.019 0.162 0.031 0.326 0.031 0.493 0 0.295-0.238 0.533-0.533 0.533s-0.533-0.238-0.533-0.533c0-1.765-1.435-3.2-3.2-3.2s-3.2 1.435-3.2 3.2c0 0.295-0.238 0.533-0.533 0.533s-0.533-0.238-0.533-0.533c0-2.167 1.626-3.959 3.721-4.228-0.121-2.687-2.338-4.839-5.055-4.839-2.726 0-4.95 2.165-5.056 4.865 0.442 0.105 0.87 0.277 1.268 0.523 0.968 0.6 1.646 1.541 1.907 2.651 0.067 0.287-0.11 0.574-0.397 0.642-0.287 0.065-0.574-0.11-0.642-0.397-0.404-1.718-2.133-2.787-3.847-2.382-1.718 0.404-2.787 2.13-2.382 3.848 0.067 0.286-0.11 0.573-0.397 0.641-0.041 0.010-0.082 0.014-0.122 0.014-0.242 0-0.461-0.166-0.519-0.411-0.157-0.667-0.143-1.334 0.006-1.959-1.098-0.161-2.206 0.254-2.929 1.132-0.671 0.815-0.867 1.865-0.627 2.819 0.001 0.006 0.004 0.012 0.004 0.018 0.163 0.633 0.517 1.221 1.059 1.668 0.227 0.188 0.26 0.523 0.073 0.751-0.106 0.128-0.258 0.194-0.412 0.194-0.119 0-0.239-0.039-0.339-0.122-0.649-0.534-1.114-1.232-1.358-2.016-2.156-0.562-4.423 0.345-5.594 2.273-0.702 1.156-0.913 2.517-0.592 3.832s1.134 2.426 2.291 3.129c0.252 0.153 0.332 0.48 0.179 0.733-0.1 0.165-0.276 0.256-0.456 0.256-0.071 0-0.141-0.019-0.209-0.049 0.843 0.499 1.813 0.805 2.85 0.85l4.378 0.002c2.83-0.045 5.255-1.792 6.288-4.262 1.047 2.503 3.521 4.266 6.4 4.266 4.999 0 9.066-4.067 9.066-9.066v-5.333l-0.013-0.534z"></path>
<path fill="#abcadd" style="fill: var(--color5, #abcadd)" d="M28.231 7.828c-0.123-3.274-2.818-5.902-6.121-5.902-3.276 0-5.952 2.583-6.117 5.818-0.298 0.006-0.597 0.042-0.894 0.111-1.246 0.293-2.232 1.11-2.789 2.161-1.537-0.312-3.119 0.231-4.133 1.462-0.667 0.811-1.002 1.817-0.965 2.858-2.469-0.445-4.981 0.653-6.316 2.85-0.851 1.4-1.106 3.047-0.717 4.639s1.373 2.936 2.773 3.788c0.086 0.053 0.182 0.078 0.277 0.078 0.18 0 0.356-0.091 0.456-0.256 0.153-0.252 0.073-0.58-0.179-0.733-1.157-0.703-1.97-1.814-2.291-3.129s-0.11-2.676 0.592-3.832c1.171-1.927 3.438-2.835 5.594-2.273 0.244 0.784 0.709 1.482 1.358 2.016 0.1 0.082 0.219 0.122 0.339 0.122 0.154 0 0.307-0.066 0.412-0.194 0.187-0.228 0.154-0.564-0.073-0.751-0.542-0.446-0.895-1.035-1.059-1.668-0.001-0.006-0.004-0.012-0.004-0.018-0.24-0.953-0.044-2.003 0.627-2.819 0.723-0.878 1.832-1.292 2.929-1.132-0.149 0.626-0.164 1.292-0.006 1.959 0.058 0.246 0.277 0.411 0.519 0.411 0.041 0 0.082-0.005 0.122-0.014 0.287-0.068 0.464-0.355 0.397-0.641-0.404-1.718 0.665-3.444 2.382-3.848 1.715-0.405 3.443 0.664 3.847 2.382 0.068 0.286 0.355 0.461 0.642 0.397 0.286-0.068 0.464-0.355 0.397-0.642-0.261-1.109-0.939-2.051-1.907-2.651-0.398-0.246-0.826-0.419-1.268-0.523 0.107-2.7 2.331-4.865 5.056-4.865 2.717 0 4.935 2.151 5.055 4.839-2.095 0.269-3.721 2.060-3.721 4.228 0 0.295 0.238 0.533 0.533 0.533s0.533-0.238 0.533-0.533c0-1.765 1.435-3.2 3.2-3.2s3.224 1.435 3.224 3.2c0 0.015 0 0.708 0 1.6 0 0.294 0.239 0.533 0.533 0.533s0.533-0.239 0.533-0.533v-1.6c-0.001-2.175-1.663-3.972-3.77-4.231z"></path>
<path fill="#fff" style="fill: var(--color8, #fff)" d="M26.4 21.463l-1.509-0.871 1.509-0.871c0.255-0.147 0.343-0.474 0.195-0.729s-0.475-0.343-0.729-0.195l-1.509 0.871v-1.743c0-0.294-0.238-0.533-0.533-0.533s-0.533 0.239-0.533 0.533v1.743l-1.509-0.871c-0.256-0.148-0.581-0.060-0.729 0.195s-0.060 0.581 0.195 0.729l1.509 0.871-1.509 0.871c-0.255 0.147-0.342 0.474-0.195 0.729 0.099 0.171 0.278 0.267 0.462 0.267 0.090 0 0.182-0.023 0.266-0.071l1.509-0.871v1.743c0 0.294 0.238 0.533 0.533 0.533s0.533-0.239 0.533-0.533v-1.743l1.509 0.871c0.084 0.049 0.175 0.071 0.266 0.071 0.185 0 0.364-0.095 0.462-0.267 0.148-0.255 0.060-0.581-0.195-0.729z"></path>
<path fill="#fff" style="fill: var(--color8, #fff)" d="M15.396 18.992c-0.148-0.255-0.474-0.343-0.729-0.195l-1.509 0.871v-1.743c0-0.294-0.239-0.533-0.533-0.533s-0.533 0.239-0.533 0.533v1.743l-1.509-0.871c-0.256-0.148-0.581-0.060-0.729 0.195s-0.060 0.581 0.195 0.729l1.509 0.871-1.509 0.871c-0.255 0.147-0.342 0.474-0.195 0.729 0.099 0.171 0.278 0.267 0.462 0.267 0.090 0 0.182-0.023 0.266-0.071l1.509-0.871v1.743c0 0.294 0.239 0.533 0.533 0.533s0.533-0.239 0.533-0.533v-1.743l1.509 0.871c0.084 0.049 0.176 0.071 0.266 0.071 0.185 0 0.364-0.095 0.462-0.267 0.147-0.255 0.060-0.581-0.195-0.729l-1.509-0.871 1.509-0.871c0.255-0.147 0.342-0.473 0.195-0.729z"></path>
<path fill="#bdc3c7" style="fill: var(--color3, #bdc3c7)" d="M21.262 25.942c-0.147-0.255-0.474-0.343-0.729-0.195l-1.509 0.871v-1.743c0-0.294-0.239-0.533-0.533-0.533s-0.533 0.239-0.533 0.533v1.743l-1.509-0.871c-0.256-0.148-0.581-0.060-0.729 0.195s-0.060 0.581 0.195 0.729l1.509 0.871-1.509 0.871c-0.255 0.147-0.342 0.474-0.195 0.729 0.099 0.171 0.278 0.267 0.462 0.267 0.090 0 0.182-0.023 0.266-0.071l1.509-0.871v1.743c0 0.294 0.239 0.533 0.533 0.533s0.533-0.239 0.533-0.533v-1.743l1.509 0.871c0.084 0.049 0.176 0.071 0.266 0.071 0.185 0 0.364-0.095 0.462-0.267 0.147-0.255 0.060-0.581-0.195-0.729l-1.509-0.871 1.509-0.871c0.255-0.147 0.342-0.473 0.195-0.729z"></path>
</symbol>
<symbol id="icon-50d" viewBox="0 0 32 32">
<path fill="#abcadd" style="fill: var(--color5, #abcadd)" d="M31.759 11.156c-0.235-0.195-2.338-1.915-3.816-1.915-0.873 0-1.545 0.544-2.143 1.028-0.464 0.37-0.9 0.726-1.303 0.726-0.363 0-0.779-0.343-1.223-0.705-0.598-0.49-1.276-1.048-2.163-1.048-0.88 0-1.538 0.551-2.123 1.035-0.45 0.376-0.867 0.726-1.263 0.726-0.41 0-0.846-0.356-1.31-0.739-0.578-0.477-1.236-1.014-2.076-1.014-0.873 0-1.545 0.544-2.143 1.028-0.464 0.37-0.9 0.726-1.303 0.726-0.396 0-0.82-0.356-1.263-0.726-0.585-0.484-1.243-1.035-2.123-1.035s-1.538 0.551-2.123 1.035c-0.45 0.376-0.867 0.726-1.263 0.726-0.712 0-2.197-0.941-3.023-1.606-0.289-0.235-0.712-0.188-0.947 0.101s-0.188 0.712 0.101 0.947c0.242 0.195 2.398 1.908 3.87 1.908 0.88 0 1.538-0.551 2.123-1.035 0.45-0.376 0.867-0.726 1.263-0.726s0.82 0.356 1.263 0.726c0.585 0.484 1.243 1.035 2.123 1.035 0.873 0 1.545-0.544 2.143-1.028 0.464-0.37 0.9-0.726 1.303-0.726 0.363 0 0.779 0.343 1.223 0.705 0.598 0.49 1.276 1.048 2.163 1.048 0.88 0 1.538-0.551 2.123-1.035 0.45-0.376 0.867-0.726 1.263-0.726 0.41 0 0.846 0.356 1.31 0.739 0.578 0.477 1.236 1.014 2.076 1.014 0.873 0 1.545-0.544 2.143-1.028 0.464-0.37 0.9-0.726 1.303-0.726 0.705 0 2.15 0.934 2.949 1.599 0.128 0.101 0.275 0.155 0.43 0.155v0c0.195 0 0.383-0.081 0.524-0.242 0.235-0.289 0.195-0.712-0.087-0.947z"></path>
<path fill="#abcadd" style="fill: var(--color5, #abcadd)" d="M0.251 5.237c0.242 0.195 2.398 1.908 3.87 1.908 0.88 0 1.538-0.551 2.123-1.035 0.45-0.376 0.867-0.726 1.263-0.726s0.82 0.356 1.263 0.726c0.585 0.484 1.243 1.035 2.123 1.035 0.873 0 1.545-0.544 2.143-1.028 0.464-0.37 0.9-0.726 1.303-0.726 0.363 0 0.779 0.343 1.223 0.705 0.598 0.49 1.276 1.048 2.163 1.048 0.88 0 1.538-0.551 2.123-1.035 0.45-0.376 0.867-0.726 1.263-0.726 0.41 0 0.846 0.356 1.31 0.739 0.578 0.477 1.236 1.014 2.076 1.014 0.873 0 1.545-0.544 2.143-1.028 0.464-0.37 0.9-0.726 1.303-0.726 0.705 0 2.15 0.934 2.949 1.599 0.128 0.101 0.275 0.155 0.43 0.155v0c0.195 0 0.383-0.081 0.524-0.242 0.235-0.289 0.195-0.712-0.087-0.947-0.235-0.202-2.338-1.915-3.816-1.915-0.873 0-1.545 0.544-2.143 1.028-0.464 0.37-0.9 0.726-1.303 0.726-0.363 0-0.779-0.343-1.223-0.705-0.598-0.49-1.276-1.048-2.163-1.048-0.88 0-1.538 0.551-2.123 1.035-0.45 0.376-0.867 0.726-1.263 0.726-0.41 0-0.846-0.356-1.31-0.739-0.578-0.477-1.236-1.014-2.076-1.014-0.873 0-1.545 0.544-2.143 1.028-0.464 0.37-0.9 0.726-1.303 0.726-0.396 0-0.82-0.356-1.263-0.726-0.585-0.484-1.243-1.035-2.123-1.035s-1.538 0.551-2.123 1.035c-0.45 0.376-0.867 0.726-1.263 0.726-0.712 0-2.197-0.941-3.023-1.606-0.289-0.235-0.712-0.188-0.947 0.101s-0.188 0.712 0.101 0.947z"></path>
<path fill="#abcadd" style="fill: var(--color5, #abcadd)" d="M31.759 21.563c-0.235-0.195-2.338-1.915-3.816-1.915-0.873 0-1.545 0.544-2.143 1.028-0.464 0.369-0.9 0.726-1.303 0.726-0.363 0-0.779-0.343-1.223-0.705-0.598-0.49-1.276-1.048-2.163-1.048-0.88 0-1.538 0.551-2.123 1.035-0.45 0.376-0.867 0.726-1.263 0.726-0.41 0-0.846-0.356-1.31-0.739-0.578-0.477-1.236-1.014-2.076-1.014-0.873 0-1.545 0.544-2.143 1.028-0.464 0.369-0.9 0.726-1.303 0.726-0.396 0-0.82-0.356-1.263-0.726-0.585-0.484-1.243-1.035-2.123-1.035s-1.538 0.551-2.123 1.035c-0.45 0.376-0.867 0.726-1.263 0.726-0.712 0-2.197-0.941-3.023-1.606-0.289-0.235-0.712-0.188-0.947 0.101s-0.188 0.712 0.101 0.947c0.242 0.195 2.398 1.908 3.87 1.908 0.88 0 1.538-0.551 2.123-1.035 0.45-0.376 0.867-0.726 1.263-0.726s0.82 0.356 1.263 0.726c0.585 0.484 1.243 1.035 2.123 1.035 0.873 0 1.545-0.544 2.143-1.028 0.464-0.369 0.9-0.726 1.303-0.726 0.363 0 0.779 0.343 1.223 0.705 0.598 0.49 1.276 1.048 2.163 1.048 0.88 0 1.538-0.551 2.123-1.035 0.45-0.376 0.867-0.726 1.263-0.726 0.41 0 0.846 0.356 1.31 0.739 0.578 0.477 1.236 1.014 2.076 1.014 0.873 0 1.545-0.544 2.143-1.028 0.464-0.369 0.9-0.726 1.303-0.726 0.705 0 2.15 0.934 2.949 1.599 0.128 0.101 0.275 0.155 0.43 0.155v0c0.195 0 0.383-0.081 0.524-0.242 0.235-0.289 0.195-0.712-0.087-0.947z"></path>
<path fill="#abcadd" style="fill: var(--color5, #abcadd)" d="M31.759 16.363c-0.235-0.195-2.338-1.915-3.816-1.915-0.873 0-1.545 0.544-2.143 1.028-0.464 0.37-0.9 0.726-1.303 0.726-0.363 0-0.779-0.343-1.223-0.705-0.598-0.49-1.276-1.048-2.163-1.048-0.88 0-1.538 0.551-2.123 1.035-0.45 0.376-0.867 0.726-1.263 0.726-0.41 0-0.846-0.356-1.31-0.739-0.578-0.477-1.236-1.014-2.076-1.014-0.873 0-1.545 0.544-2.143 1.028-0.464 0.37-0.9 0.726-1.303 0.726-0.396 0-0.82-0.356-1.263-0.726-0.585-0.484-1.243-1.035-2.123-1.035s-1.538 0.551-2.123 1.035c-0.45 0.376-0.867 0.726-1.263 0.726-0.712 0-2.197-0.941-3.023-1.606-0.289-0.235-0.712-0.188-0.947 0.101s-0.188 0.712 0.101 0.947c0.242 0.195 2.398 1.908 3.87 1.908 0.88 0 1.538-0.551 2.123-1.035 0.45-0.376 0.867-0.726 1.263-0.726s0.82 0.356 1.263 0.726c0.585 0.484 1.243 1.035 2.123 1.035 0.873 0 1.545-0.544 2.143-1.028 0.464-0.369 0.9-0.726 1.303-0.726 0.363 0 0.779 0.343 1.223 0.705 0.598 0.49 1.276 1.048 2.163 1.048 0.88 0 1.538-0.551 2.123-1.035 0.45-0.376 0.867-0.726 1.263-0.726 0.41 0 0.846 0.356 1.31 0.739 0.578 0.477 1.236 1.014 2.076 1.014 0.873 0 1.545-0.544 2.143-1.028 0.464-0.369 0.9-0.726 1.303-0.726 0.705 0 2.15 0.934 2.949 1.599 0.128 0.101 0.275 0.155 0.43 0.155v0c0.195 0 0.383-0.087 0.524-0.242 0.235-0.289 0.195-0.712-0.087-0.947z"></path>
<path fill="#abcadd" style="fill: var(--color5, #abcadd)" d="M31.759 26.769c-0.235-0.202-2.338-1.915-3.816-1.915-0.873 0-1.545 0.544-2.143 1.028-0.464 0.369-0.9 0.726-1.303 0.726-0.363 0-0.779-0.343-1.223-0.705-0.598-0.49-1.276-1.048-2.163-1.048-0.88 0-1.538 0.551-2.123 1.035-0.45 0.376-0.867 0.726-1.263 0.726-0.41 0-0.846-0.356-1.31-0.739-0.578-0.477-1.236-1.014-2.076-1.014-0.873 0-1.545 0.544-2.143 1.028-0.464 0.369-0.9 0.726-1.303 0.726-0.396 0-0.82-0.356-1.263-0.726-0.585-0.484-1.243-1.035-2.123-1.035s-1.538 0.551-2.123 1.035c-0.45 0.376-0.867 0.726-1.263 0.726-0.712 0-2.197-0.941-3.023-1.606-0.289-0.235-0.712-0.188-0.947 0.101s-0.188 0.712 0.101 0.947c0.242 0.195 2.398 1.908 3.87 1.908 0.88 0 1.538-0.551 2.123-1.035 0.45-0.376 0.867-0.726 1.263-0.726s0.82 0.356 1.263 0.726c0.585 0.484 1.243 1.035 2.123 1.035 0.873 0 1.545-0.544 2.143-1.028 0.464-0.369 0.9-0.726 1.303-0.726 0.363 0 0.779 0.343 1.223 0.705 0.598 0.49 1.276 1.048 2.163 1.048 0.88 0 1.538-0.551 2.123-1.035 0.45-0.376 0.867-0.726 1.263-0.726 0.41 0 0.846 0.356 1.31 0.739 0.578 0.477 1.236 1.014 2.076 1.014 0.873 0 1.545-0.544 2.143-1.028 0.464-0.369 0.9-0.726 1.303-0.726 0.705 0 2.15 0.934 2.949 1.599 0.128 0.101 0.275 0.155 0.43 0.155v0c0.195 0 0.383-0.081 0.524-0.242 0.235-0.289 0.195-0.712-0.087-0.947z"></path>
</symbol>
<symbol id="icon-50n" viewBox="0 0 32 32">
<path fill="#abcadd" style="fill: var(--color5, #abcadd)" d="M31.759 11.156c-0.235-0.195-2.338-1.915-3.816-1.915-0.873 0-1.545 0.544-2.143 1.028-0.464 0.37-0.9 0.726-1.303 0.726-0.363 0-0.779-0.343-1.223-0.705-0.598-0.49-1.276-1.048-2.163-1.048-0.88 0-1.538 0.551-2.123 1.035-0.45 0.376-0.867 0.726-1.263 0.726-0.41 0-0.846-0.356-1.31-0.739-0.578-0.477-1.236-1.014-2.076-1.014-0.873 0-1.545 0.544-2.143 1.028-0.464 0.37-0.9 0.726-1.303 0.726-0.396 0-0.82-0.356-1.263-0.726-0.585-0.484-1.243-1.035-2.123-1.035s-1.538 0.551-2.123 1.035c-0.45 0.376-0.867 0.726-1.263 0.726-0.712 0-2.197-0.941-3.023-1.606-0.289-0.235-0.712-0.188-0.947 0.101s-0.188 0.712 0.101 0.947c0.242 0.195 2.398 1.908 3.87 1.908 0.88 0 1.538-0.551 2.123-1.035 0.45-0.376 0.867-0.726 1.263-0.726s0.82 0.356 1.263 0.726c0.585 0.484 1.243 1.035 2.123 1.035 0.873 0 1.545-0.544 2.143-1.028 0.464-0.37 0.9-0.726 1.303-0.726 0.363 0 0.779 0.343 1.223 0.705 0.598 0.49 1.276 1.048 2.163 1.048 0.88 0 1.538-0.551 2.123-1.035 0.45-0.376 0.867-0.726 1.263-0.726 0.41 0 0.846 0.356 1.31 0.739 0.578 0.477 1.236 1.014 2.076 1.014 0.873 0 1.545-0.544 2.143-1.028 0.464-0.37 0.9-0.726 1.303-0.726 0.705 0 2.15 0.934 2.949 1.599 0.128 0.101 0.275 0.155 0.43 0.155v0c0.195 0 0.383-0.081 0.524-0.242 0.235-0.289 0.195-0.712-0.087-0.947z"></path>
<path fill="#abcadd" style="fill: var(--color5, #abcadd)" d="M0.251 5.237c0.242 0.195 2.398 1.908 3.87 1.908 0.88 0 1.538-0.551 2.123-1.035 0.45-0.376 0.867-0.726 1.263-0.726s0.82 0.356 1.263 0.726c0.585 0.484 1.243 1.035 2.123 1.035 0.873 0 1.545-0.544 2.143-1.028 0.464-0.37 0.9-0.726 1.303-0.726 0.363 0 0.779 0.343 1.223 0.705 0.598 0.49 1.276 1.048 2.163 1.048 0.88 0 1.538-0.551 2.123-1.035 0.45-0.376 0.867-0.726 1.263-0.726 0.41 0 0.846 0.356 1.31 0.739 0.578 0.477 1.236 1.014 2.076 1.014 0.873 0 1.545-0.544 2.143-1.028 0.464-0.37 0.9-0.726 1.303-0.726 0.705 0 2.15 0.934 2.949 1.599 0.128 0.101 0.275 0.155 0.43 0.155v0c0.195 0 0.383-0.081 0.524-0.242 0.235-0.289 0.195-0.712-0.087-0.947-0.235-0.202-2.338-1.915-3.816-1.915-0.873 0-1.545 0.544-2.143 1.028-0.464 0.37-0.9 0.726-1.303 0.726-0.363 0-0.779-0.343-1.223-0.705-0.598-0.49-1.276-1.048-2.163-1.048-0.88 0-1.538 0.551-2.123 1.035-0.45 0.376-0.867 0.726-1.263 0.726-0.41 0-0.846-0.356-1.31-0.739-0.578-0.477-1.236-1.014-2.076-1.014-0.873 0-1.545 0.544-2.143 1.028-0.464 0.37-0.9 0.726-1.303 0.726-0.396 0-0.82-0.356-1.263-0.726-0.585-0.484-1.243-1.035-2.123-1.035s-1.538 0.551-2.123 1.035c-0.45 0.376-0.867 0.726-1.263 0.726-0.712 0-2.197-0.941-3.023-1.606-0.289-0.235-0.712-0.188-0.947 0.101s-0.188 0.712 0.101 0.947z"></path>
<path fill="#abcadd" style="fill: var(--color5, #abcadd)" d="M31.759 21.563c-0.235-0.195-2.338-1.915-3.816-1.915-0.873 0-1.545 0.544-2.143 1.028-0.464 0.369-0.9 0.726-1.303 0.726-0.363 0-0.779-0.343-1.223-0.705-0.598-0.49-1.276-1.048-2.163-1.048-0.88 0-1.538 0.551-2.123 1.035-0.45 0.376-0.867 0.726-1.263 0.726-0.41 0-0.846-0.356-1.31-0.739-0.578-0.477-1.236-1.014-2.076-1.014-0.873 0-1.545 0.544-2.143 1.028-0.464 0.369-0.9 0.726-1.303 0.726-0.396 0-0.82-0.356-1.263-0.726-0.585-0.484-1.243-1.035-2.123-1.035s-1.538 0.551-2.123 1.035c-0.45 0.376-0.867 0.726-1.263 0.726-0.712 0-2.197-0.941-3.023-1.606-0.289-0.235-0.712-0.188-0.947 0.101s-0.188 0.712 0.101 0.947c0.242 0.195 2.398 1.908 3.87 1.908 0.88 0 1.538-0.551 2.123-1.035 0.45-0.376 0.867-0.726 1.263-0.726s0.82 0.356 1.263 0.726c0.585 0.484 1.243 1.035 2.123 1.035 0.873 0 1.545-0.544 2.143-1.028 0.464-0.369 0.9-0.726 1.303-0.726 0.363 0 0.779 0.343 1.223 0.705 0.598 0.49 1.276 1.048 2.163 1.048 0.88 0 1.538-0.551 2.123-1.035 0.45-0.376 0.867-0.726 1.263-0.726 0.41 0 0.846 0.356 1.31 0.739 0.578 0.477 1.236 1.014 2.076 1.014 0.873 0 1.545-0.544 2.143-1.028 0.464-0.369 0.9-0.726 1.303-0.726 0.705 0 2.15 0.934 2.949 1.599 0.128 0.101 0.275 0.155 0.43 0.155v0c0.195 0 0.383-0.081 0.524-0.242 0.235-0.289 0.195-0.712-0.087-0.947z"></path>
<path fill="#abcadd" style="fill: var(--color5, #abcadd)" d="M31.759 16.363c-0.235-0.195-2.338-1.915-3.816-1.915-0.873 0-1.545 0.544-2.143 1.028-0.464 0.37-0.9 0.726-1.303 0.726-0.363 0-0.779-0.343-1.223-0.705-0.598-0.49-1.276-1.048-2.163-1.048-0.88 0-1.538 0.551-2.123 1.035-0.45 0.376-0.867 0.726-1.263 0.726-0.41 0-0.846-0.356-1.31-0.739-0.578-0.477-1.236-1.014-2.076-1.014-0.873 0-1.545 0.544-2.143 1.028-0.464 0.37-0.9 0.726-1.303 0.726-0.396 0-0.82-0.356-1.263-0.726-0.585-0.484-1.243-1.035-2.123-1.035s-1.538 0.551-2.123 1.035c-0.45 0.376-0.867 0.726-1.263 0.726-0.712 0-2.197-0.941-3.023-1.606-0.289-0.235-0.712-0.188-0.947 0.101s-0.188 0.712 0.101 0.947c0.242 0.195 2.398 1.908 3.87 1.908 0.88 0 1.538-0.551 2.123-1.035 0.45-0.376 0.867-0.726 1.263-0.726s0.82 0.356 1.263 0.726c0.585 0.484 1.243 1.035 2.123 1.035 0.873 0 1.545-0.544 2.143-1.028 0.464-0.369 0.9-0.726 1.303-0.726 0.363 0 0.779 0.343 1.223 0.705 0.598 0.49 1.276 1.048 2.163 1.048 0.88 0 1.538-0.551 2.123-1.035 0.45-0.376 0.867-0.726 1.263-0.726 0.41 0 0.846 0.356 1.31 0.739 0.578 0.477 1.236 1.014 2.076 1.014 0.873 0 1.545-0.544 2.143-1.028 0.464-0.369 0.9-0.726 1.303-0.726 0.705 0 2.15 0.934 2.949 1.599 0.128 0.101 0.275 0.155 0.43 0.155v0c0.195 0 0.383-0.087 0.524-0.242 0.235-0.289 0.195-0.712-0.087-0.947z"></path>
<path fill="#abcadd" style="fill: var(--color5, #abcadd)" d="M31.759 26.769c-0.235-0.202-2.338-1.915-3.816-1.915-0.873 0-1.545 0.544-2.143 1.028-0.464 0.369-0.9 0.726-1.303 0.726-0.363 0-0.779-0.343-1.223-0.705-0.598-0.49-1.276-1.048-2.163-1.048-0.88 0-1.538 0.551-2.123 1.035-0.45 0.376-0.867 0.726-1.263 0.726-0.41 0-0.846-0.356-1.31-0.739-0.578-0.477-1.236-1.014-2.076-1.014-0.873 0-1.545 0.544-2.143 1.028-0.464 0.369-0.9 0.726-1.303 0.726-0.396 0-0.82-0.356-1.263-0.726-0.585-0.484-1.243-1.035-2.123-1.035s-1.538 0.551-2.123 1.035c-0.45 0.376-0.867 0.726-1.263 0.726-0.712 0-2.197-0.941-3.023-1.606-0.289-0.235-0.712-0.188-0.947 0.101s-0.188 0.712 0.101 0.947c0.242 0.195 2.398 1.908 3.87 1.908 0.88 0 1.538-0.551 2.123-1.035 0.45-0.376 0.867-0.726 1.263-0.726s0.82 0.356 1.263 0.726c0.585 0.484 1.243 1.035 2.123 1.035 0.873 0 1.545-0.544 2.143-1.028 0.464-0.369 0.9-0.726 1.303-0.726 0.363 0 0.779 0.343 1.223 0.705 0.598 0.49 1.276 1.048 2.163 1.048 0.88 0 1.538-0.551 2.123-1.035 0.45-0.376 0.867-0.726 1.263-0.726 0.41 0 0.846 0.356 1.31 0.739 0.578 0.477 1.236 1.014 2.076 1.014 0.873 0 1.545-0.544 2.143-1.028 0.464-0.369 0.9-0.726 1.303-0.726 0.705 0 2.15 0.934 2.949 1.599 0.128 0.101 0.275 0.155 0.43 0.155v0c0.195 0 0.383-0.081 0.524-0.242 0.235-0.289 0.195-0.712-0.087-0.947z"></path>
</symbol>
<symbol id="icon-search" viewBox="0 0 32 32">
<path d="M31.008 27.231l-7.58-6.447c-0.784-0.705-1.622-1.029-2.299-0.998 1.789-2.096 2.87-4.815 2.87-7.787 0-6.627-5.373-12-12-12s-12 5.373-12 12 5.373 12 12 12c2.972 0 5.691-1.081 7.787-2.87-0.031 0.677 0.293 1.515 0.998 2.299l6.447 7.58c1.104 1.226 2.907 1.33 4.007 0.23s0.997-2.903-0.23-4.007zM12 20c-4.418 0-8-3.582-8-8s3.582-8 8-8 8 3.582 8 8-3.582 8-8 8z"></path>
</symbol>
</defs>
</svg>
